STARTFONT 2.3
FONT -FontForge-Rajdhani-Book-R-Normal--20-200-72-72-P-123-ISO10646-1
SIZE 20 72 72  2
FONTBOUNDINGBOX 50 25 -9 -7
COMMENT "Generated by fontforge, http://fontforge.sourceforge.net"
COMMENT "Copyright (c) 2014 Indian Type Foundry (info@indiantypefoundry.com)"
STARTPROPERTIES 41
FOUNDRY "FontForge"
FAMILY_NAME "Rajdhani"
WEIGHT_NAME "Book"
SLANT "R"
SETWIDTH_NAME "Normal"
ADD_STYLE_NAME ""
PIXEL_SIZE 20
POINT_SIZE 200
RESOLUTION_X 72
RESOLUTION_Y 72
SPACING "P"
AVERAGE_WIDTH 123
CHARSET_REGISTRY "ISO10646"
CHARSET_ENCODING "1"
FONTNAME_REGISTRY ""
CHARSET_COLLECTIONS "ISO8859-2 ISO8859-9 ISO8859-4 ISO10646-1"
BITS_PER_PIXEL 2
FONT_NAME "Rajdhani-Regular"
FACE_NAME "Rajdhani Regular"
COPYRIGHT "Copyright (c) 2014 Indian Type Foundry (info@indiantypefoundry.com)"
FONT_VERSION "1.201;PS 1.0;hotconv 1.0.78;makeotf.lib2.5.61930; ttfautohint (v1.1) -l 7 -r 28 -G 50 -x 13 -D latn -f deva -w G"
FONT_ASCENT 16
FONT_DESCENT 4
UNDERLINE_POSITION -2
UNDERLINE_THICKNESS 1
X_HEIGHT 9
CAP_HEIGHT 12
DEFAULT_CHAR 3
RAW_ASCENT 800
RAW_DESCENT 200
NORM_SPACE 5
RELATIVE_WEIGHT 40
RELATIVE_SETWIDTH 50
SUPERSCRIPT_X 0
SUPERSCRIPT_Y 7
SUPERSCRIPT_SIZE 12
SUBSCRIPT_X 0
SUBSCRIPT_Y 1
SUBSCRIPT_SIZE 12
AVG_LOWERCASE_WIDTH 90
AVG_UPPERCASE_WIDTH 105
ENDPROPERTIES
CHARS 1043
STARTCHAR NULL.dup1
ENCODING 0
SWIDTH 0 0
DWIDTH 0 0
BBX 1 1 0 0
BITMAP
00
ENDCHAR
STARTCHAR CR
ENCODING 13
SWIDTH 0 0
DWIDTH 0 0
BBX 1 1 0 0
BITMAP
00
ENDCHAR
STARTCHAR space
ENCODING 32
SWIDTH 267 0
DWIDTH 5 0
BBX 1 1 0 0
BITMAP
00
ENDCHAR
STARTCHAR exclam
ENCODING 33
SWIDTH 237 0
DWIDTH 5 0
BBX 2 13 1 0
BITMAP
70
70
70
70
70
30
30
20
20
00
20
30
30
ENDCHAR
STARTCHAR quotedbl
ENCODING 34
SWIDTH 330 0
DWIDTH 7 0
BBX 5 4 1 9
BITMAP
9240
9240
8240
4100
ENDCHAR
STARTCHAR numbersign
ENCODING 35
SWIDTH 677 0
DWIDTH 14 0
BBX 12 13 1 0
BITMAP
006024
009030
008020
00C060
1FFFFD
0240C0
020180
020140
050200
BFFFF0
080600
180900
240800
ENDCHAR
STARTCHAR dollar
ENCODING 36
SWIDTH 504 0
DWIDTH 10 0
BBX 8 17 1 -2
BITMAP
0040
0180
1FF4
6009
9006
9005
9000
6000
1FF8
0009
0006
5006
9006
6009
1FF8
0180
0080
ENDCHAR
STARTCHAR percent
ENCODING 37
SWIDTH 717 0
DWIDTH 14 0
BBX 13 13 1 0
BITMAP
7F408000
80C08000
C0824000
C0820000
90C50000
6E480000
00180000
0020A900
00224240
00920140
00820140
01424240
0200BE00
ENDCHAR
STARTCHAR ampersand
ENCODING 38
SWIDTH 597 0
DWIDTH 12 0
BBX 10 13 1 0
BITMAP
06F800
0D0900
180600
180600
1C0000
090000
2F4000
61FFE0
907000
902800
900A00
600A80
1FF890
ENDCHAR
STARTCHAR quotesingle
ENCODING 39
SWIDTH 186 0
DWIDTH 4 0
BBX 2 4 1 9
BITMAP
90
90
90
40
ENDCHAR
STARTCHAR parenleft
ENCODING 40
SWIDTH 283 0
DWIDTH 6 0
BBX 4 15 1 -2
BITMAP
2D
60
80
C0
C0
C0
C0
C0
C0
C0
C0
C0
80
60
2D
ENDCHAR
STARTCHAR parenright
ENCODING 41
SWIDTH 283 0
DWIDTH 6 0
BBX 4 15 1 -2
BITMAP
A4
1C
09
09
09
09
09
09
09
09
09
09
09
1C
A0
ENDCHAR
STARTCHAR asterisk
ENCODING 42
SWIDTH 406 0
DWIDTH 8 0
BBX 6 5 1 8
BITMAP
0500
0510
6590
0900
2580
ENDCHAR
STARTCHAR plus
ENCODING 43
SWIDTH 523 0
DWIDTH 10 0
BBX 8 8 1 2
BITMAP
0180
0180
0180
0180
7FFF
0180
0180
0180
ENDCHAR
STARTCHAR comma
ENCODING 44
SWIDTH 191 0
DWIDTH 4 0
BBX 2 5 1 -2
BITMAP
90
90
90
80
40
ENDCHAR
STARTCHAR hyphen
ENCODING 45
SWIDTH 312 0
DWIDTH 6 0
BBX 5 1 1 6
BITMAP
FF40
ENDCHAR
STARTCHAR period
ENCODING 46
SWIDTH 191 0
DWIDTH 4 0
BBX 2 3 1 0
BITMAP
90
90
90
ENDCHAR
STARTCHAR slash
ENCODING 47
SWIDTH 396 0
DWIDTH 8 0
BBX 6 13 1 0
BITMAP
0060
0090
00C0
0180
0340
0700
0900
0C00
1800
2400
3000
6000
9000
ENDCHAR
STARTCHAR zero
ENCODING 48
SWIDTH 514 0
DWIDTH 10 0
BBX 8 13 1 0
BITMAP
2FF8
600A
9003
9003
9003
9003
9003
9003
9003
9003
9003
600A
2FF8
ENDCHAR
STARTCHAR one
ENCODING 49
SWIDTH 317 0
DWIDTH 6 0
BBX 5 13 0 0
BITMAP
0680
2E80
5180
0180
0180
0180
0180
0180
0180
0180
0180
0180
0180
ENDCHAR
STARTCHAR two
ENCODING 50
SWIDTH 478 0
DWIDTH 10 0
BBX 8 13 1 0
BITMAP
2FE4
A01C
9009
C009
0009
0028
00A0
0740
1D00
7000
9000
9000
BFFD
ENDCHAR
STARTCHAR three
ENCODING 51
SWIDTH 496 0
DWIDTH 10 0
BBX 8 13 1 0
BITMAP
2FF4
6009
9006
9006
0006
0009
02F4
0009
0006
9006
9006
6009
2FF4
ENDCHAR
STARTCHAR four
ENCODING 52
SWIDTH 520 0
DWIDTH 10 0
BBX 9 13 1 0
BITMAP
002C00
006C00
00CC00
024C00
060C00
080C00
180C00
300C00
900C00
FFFF80
000C00
000C00
000C00
ENDCHAR
STARTCHAR five
ENCODING 53
SWIDTH 482 0
DWIDTH 10 0
BBX 8 13 1 0
BITMAP
BFFD
9000
9000
9000
9000
ABF4
A00D
0009
0006
5006
9009
600D
2FF4
ENDCHAR
STARTCHAR six
ENCODING 54
SWIDTH 497 0
DWIDTH 10 0
BBX 8 13 1 0
BITMAP
2FFC
A000
9000
D000
D000
FFF4
D00D
D006
D006
D006
9006
A009
2FF4
ENDCHAR
STARTCHAR seven
ENCODING 55
SWIDTH 380 0
DWIDTH 8 0
BBX 8 13 0 0
BITMAP
BFFD
000C
0018
0034
0070
0090
00C0
0180
0240
0300
0600
0900
1C00
ENDCHAR
STARTCHAR eight
ENCODING 56
SWIDTH 519 0
DWIDTH 10 0
BBX 8 13 1 0
BITMAP
2FF8
6006
9003
9003
9003
600A
2FFC
6006
9003
9003
9003
6006
2FF8
ENDCHAR
STARTCHAR nine
ENCODING 57
SWIDTH 497 0
DWIDTH 10 0
BBX 8 13 1 0
BITMAP
2FF4
A009
9006
C006
C006
9006
A006
2FFE
0006
0006
0006
0009
7FF4
ENDCHAR
STARTCHAR colon
ENCODING 58
SWIDTH 191 0
DWIDTH 4 0
BBX 2 10 1 0
BITMAP
90
90
90
00
00
00
00
90
90
90
ENDCHAR
STARTCHAR semicolon
ENCODING 59
SWIDTH 191 0
DWIDTH 4 0
BBX 2 12 1 -2
BITMAP
90
90
90
00
00
00
00
50
90
90
80
40
ENDCHAR
STARTCHAR less
ENCODING 60
SWIDTH 513 0
DWIDTH 10 0
BBX 8 7 1 3
BITMAP
0006
01B9
1A40
A000
2A40
01B8
0006
ENDCHAR
STARTCHAR equal
ENCODING 61
SWIDTH 531 0
DWIDTH 11 0
BBX 8 4 1 4
BITMAP
7FFF
0000
0000
7FFF
ENDCHAR
STARTCHAR greater
ENCODING 62
SWIDTH 531 0
DWIDTH 11 0
BBX 8 7 1 3
BITMAP
5000
1A40
01B9
0007
0069
1A40
6400
ENDCHAR
STARTCHAR question
ENCODING 63
SWIDTH 473 0
DWIDTH 9 0
BBX 7 13 1 0
BITMAP
1FE0
6018
900C
900C
0018
0060
0180
0240
0140
0000
0240
0240
0240
ENDCHAR
STARTCHAR at
ENCODING 64
SWIDTH 753 0
DWIDTH 15 0
BBX 13 13 1 -1
BITMAP
01BFF900
09000600
24000140
206FD140
51C09140
51809140
51409140
51809140
51C1D200
206E7900
24000000
0A000000
01BFD000
ENDCHAR
STARTCHAR A
ENCODING 65
SWIDTH 533 0
DWIDTH 11 0
BBX 10 13 0 0
BITMAP
007000
00A400
00D800
018C00
024900
030600
060300
090240
0C0180
1FFFC0
2400D0
300060
600030
ENDCHAR
STARTCHAR B
ENCODING 66
SWIDTH 546 0
DWIDTH 11 0
BBX 9 13 1 0
BITMAP
7FF900
600300
600240
600240
600240
600700
7FFD00
600340
600240
600180
600240
600340
7FFD00
ENDCHAR
STARTCHAR C
ENCODING 67
SWIDTH 542 0
DWIDTH 11 0
BBX 9 13 1 0
BITMAP
1FFD00
700240
600180
A00180
A00000
A00000
A00000
A00000
A00000
A00180
600180
700240
1FFD00
ENDCHAR
STARTCHAR D
ENCODING 68
SWIDTH 557 0
DWIDTH 11 0
BBX 9 13 1 0
BITMAP
7FFD00
600240
600180
600180
600180
600180
600180
600180
600180
600180
600180
600240
7FFD00
ENDCHAR
STARTCHAR E
ENCODING 69
SWIDTH 481 0
DWIDTH 10 0
BBX 8 13 1 0
BITMAP
7FFD
6000
6000
6000
6000
6000
7FF8
6000
6000
6000
6000
6000
7FFD
ENDCHAR
STARTCHAR F
ENCODING 70
SWIDTH 459 0
DWIDTH 9 0
BBX 8 13 1 0
BITMAP
7FFD
6000
6000
6000
6000
6000
7FF8
6000
6000
6000
6000
6000
6000
ENDCHAR
STARTCHAR G
ENCODING 71
SWIDTH 539 0
DWIDTH 11 0
BBX 9 13 1 0
BITMAP
1FF900
700700
600240
A00240
A00000
A00000
A07F40
A00240
A00240
A00240
600240
700700
1FF900
ENDCHAR
STARTCHAR H
ENCODING 72
SWIDTH 570 0
DWIDTH 11 0
BBX 9 13 1 0
BITMAP
600180
600180
600180
600180
600180
600180
7FFF80
600180
600180
600180
600180
600180
600180
ENDCHAR
STARTCHAR I
ENCODING 73
SWIDTH 230 0
DWIDTH 5 0
BBX 2 13 1 0
BITMAP
60
60
60
60
60
60
60
60
60
60
60
60
60
ENDCHAR
STARTCHAR J
ENCODING 74
SWIDTH 499 0
DWIDTH 10 0
BBX 9 13 0 0
BITMAP
000240
000240
000240
000240
000240
000240
000240
000240
200240
600240
700240
340700
1BF900
ENDCHAR
STARTCHAR K
ENCODING 75
SWIDTH 530 0
DWIDTH 11 0
BBX 9 13 1 0
BITMAP
600340
600A00
601800
607000
60D000
628000
67C000
6CA000
743400
601C00
600A00
600340
600180
ENDCHAR
STARTCHAR L
ENCODING 76
SWIDTH 451 0
DWIDTH 9 0
BBX 8 13 1 0
BITMAP
6000
6000
6000
6000
6000
6000
6000
6000
6000
6000
6000
6000
7FFD
ENDCHAR
STARTCHAR M
ENCODING 77
SWIDTH 696 0
DWIDTH 14 0
BBX 12 13 1 0
BITMAP
74001D
78002D
6C0069
660099
6300C9
624289
60C309
609609
606909
603809
600009
600009
600009
ENDCHAR
STARTCHAR N
ENCODING 78
SWIDTH 579 0
DWIDTH 12 0
BBX 9 13 1 0
BITMAP
7000C0
7400C0
7C00C0
6A00C0
6340C0
6180C0
6090C0
6070C0
6024C0
600DC0
6006C0
6002C0
6001C0
ENDCHAR
STARTCHAR O
ENCODING 79
SWIDTH 553 0
DWIDTH 11 0
BBX 9 13 1 0
BITMAP
1FFD00
700340
600180
A00180
A00180
A00180
A00180
A00180
A00180
A00180
600180
700340
1FFD00
ENDCHAR
STARTCHAR P
ENCODING 80
SWIDTH 524 0
DWIDTH 10 0
BBX 9 13 1 0
BITMAP
7FF900
600700
600240
600240
600240
600240
600700
7FF900
600000
600000
600000
600000
600000
ENDCHAR
STARTCHAR Q
ENCODING 81
SWIDTH 556 0
DWIDTH 11 0
BBX 9 16 1 -3
BITMAP
1FFD00
700240
600180
600180
600180
600180
600180
600180
600180
600180
600180
700240
1FFD00
003400
001800
000900
ENDCHAR
STARTCHAR R
ENCODING 82
SWIDTH 534 0
DWIDTH 11 0
BBX 9 13 1 0
BITMAP
7FF900
600700
600240
600240
600240
600240
600700
7FF800
602400
601C00
600900
600700
600240
ENDCHAR
STARTCHAR S
ENCODING 83
SWIDTH 562 0
DWIDTH 11 0
BBX 9 13 1 0
BITMAP
1BFD00
340340
600180
600140
600000
290000
06E800
001B00
000280
500180
600180
340240
1BFD00
ENDCHAR
STARTCHAR T
ENCODING 84
SWIDTH 420 0
DWIDTH 8 0
BBX 8 13 0 0
BITMAP
BFFF
0180
0180
0180
0180
0180
0180
0180
0180
0180
0180
0180
0180
ENDCHAR
STARTCHAR U
ENCODING 85
SWIDTH 552 0
DWIDTH 11 0
BBX 9 13 1 0
BITMAP
600240
600240
600240
600240
600240
600240
600240
600240
600240
600240
600240
300300
1FFD00
ENDCHAR
STARTCHAR V
ENCODING 86
SWIDTH 500 0
DWIDTH 10 0
BBX 10 13 0 0
BITMAP
600090
3000C0
240180
180240
1C0340
0C0300
090600
060900
030C00
025800
01A400
00F000
00A000
ENDCHAR
STARTCHAR W
ENCODING 87
SWIDTH 794 0
DWIDTH 16 0
BBX 15 13 0 0
BITMAP
6002800C
3003C00C
34069018
24095028
180C6024
1C0C3030
0C182470
09241460
09301890
06200C90
036009C0
03900680
02C00380
ENDCHAR
STARTCHAR X
ENCODING 88
SWIDTH 504 0
DWIDTH 10 0
BBX 9 13 1 0
BITMAP
D00300
600900
241C00
1C2400
096000
03C000
02C000
069000
0D3000
182800
300C00
A00600
C00340
ENDCHAR
STARTCHAR Y
ENCODING 89
SWIDTH 493 0
DWIDTH 10 0
BBX 10 13 0 0
BITMAP
6000D0
340180
180340
0D0600
060D00
035800
01A400
00E000
009000
009000
009000
009000
009000
ENDCHAR
STARTCHAR Z
ENCODING 90
SWIDTH 482 0
DWIDTH 10 0
BBX 8 13 1 0
BITMAP
BFFE
000D
0028
0034
00A0
01C0
0340
0600
0D00
2800
7000
9000
FFFE
ENDCHAR
STARTCHAR bracketleft
ENCODING 91
SWIDTH 287 0
DWIDTH 6 0
BBX 4 15 1 -2
BITMAP
BD
90
90
90
90
90
90
90
90
90
90
90
90
90
BD
ENDCHAR
STARTCHAR backslash
ENCODING 92
SWIDTH 396 0
DWIDTH 8 0
BBX 6 13 1 0
BITMAP
9000
6000
3000
2400
1800
0C00
0A00
0700
0340
0280
00C0
0090
0060
ENDCHAR
STARTCHAR bracketright
ENCODING 93
SWIDTH 287 0
DWIDTH 6 0
BBX 4 15 1 -2
BITMAP
BD
09
09
09
09
09
09
09
09
09
09
09
09
09
BD
ENDCHAR
STARTCHAR asciicircum
ENCODING 94
SWIDTH 465 0
DWIDTH 9 0
BBX 7 6 1 7
BITMAP
0780
09C0
1860
3024
6018
4004
ENDCHAR
STARTCHAR underscore
ENCODING 95
SWIDTH 372 0
DWIDTH 7 0
BBX 8 1 0 -2
BITMAP
FFFD
ENDCHAR
STARTCHAR grave
ENCODING 96
SWIDTH 269 0
DWIDTH 5 0
BBX 3 3 1 11
BITMAP
70
28
04
ENDCHAR
STARTCHAR a
ENCODING 97
SWIDTH 502 0
DWIDTH 10 0
BBX 8 10 1 0
BITMAP
2FFE
6006
9006
9006
9006
9006
9006
900A
600E
2FEA
ENDCHAR
STARTCHAR b
ENCODING 98
SWIDTH 504 0
DWIDTH 10 0
BBX 8 14 1 0
BITMAP
5000
A000
A000
A000
ABF8
B009
A006
A006
A006
A006
A006
A006
A009
7FF8
ENDCHAR
STARTCHAR c
ENCODING 99
SWIDTH 394 0
DWIDTH 8 0
BBX 6 10 1 0
BITMAP
2FF0
6000
9000
9000
9000
9000
9000
9000
6000
2FF0
ENDCHAR
STARTCHAR d
ENCODING 100
SWIDTH 504 0
DWIDTH 10 0
BBX 8 14 1 0
BITMAP
0006
0006
0006
0006
2FEA
600E
9006
9006
9006
9006
9006
9006
600E
2FEA
ENDCHAR
STARTCHAR e
ENCODING 101
SWIDTH 492 0
DWIDTH 10 0
BBX 8 10 1 0
BITMAP
2FF4
6009
9006
9006
9006
BFFE
9000
9000
6000
2FFD
ENDCHAR
STARTCHAR f
ENCODING 102
SWIDTH 303 0
DWIDTH 6 0
BBX 6 14 0 0
BITMAP
02E0
0600
0900
0900
7FE0
0900
0900
0900
0900
0900
0900
0900
0900
0900
ENDCHAR
STARTCHAR g
ENCODING 103
SWIDTH 506 0
DWIDTH 10 0
BBX 8 13 1 -3
BITMAP
1FFE
6006
9006
9006
9006
9006
9006
9006
701E
1BEA
0006
0009
3FF4
ENDCHAR
STARTCHAR h
ENCODING 104
SWIDTH 507 0
DWIDTH 10 0
BBX 8 14 1 0
BITMAP
5000
A000
A000
A000
ABF8
B009
A006
A006
A006
A006
A006
A006
A006
5006
ENDCHAR
STARTCHAR i
ENCODING 105
SWIDTH 210 0
DWIDTH 4 0
BBX 2 14 1 0
BITMAP
60
60
00
00
60
60
60
60
60
60
60
60
60
60
ENDCHAR
STARTCHAR j
ENCODING 106
SWIDTH 210 0
DWIDTH 4 0
BBX 4 17 -1 -3
BITMAP
06
06
00
00
06
06
06
06
06
06
06
06
06
06
06
0D
F4
ENDCHAR
STARTCHAR k
ENCODING 107
SWIDTH 431 0
DWIDTH 9 0
BBX 7 14 1 0
BITMAP
5000
A000
A000
A000
A018
A034
A090
A180
A340
A240
A0C0
A060
A024
500C
ENDCHAR
STARTCHAR l
ENCODING 108
SWIDTH 210 0
DWIDTH 4 0
BBX 2 14 1 0
BITMAP
60
60
60
60
60
60
60
60
60
60
60
60
60
60
ENDCHAR
STARTCHAR m
ENCODING 109
SWIDTH 769 0
DWIDTH 15 0
BBX 13 10 1 0
BITMAP
6BE5BE00
B01E0280
A00900C0
A00900C0
A00900C0
A00900C0
A00900C0
A00900C0
A00900C0
500900C0
ENDCHAR
STARTCHAR n
ENCODING 110
SWIDTH 507 0
DWIDTH 10 0
BBX 8 10 1 0
BITMAP
6BF8
B009
A006
A006
A006
A006
A006
A006
A006
5006
ENDCHAR
STARTCHAR o
ENCODING 111
SWIDTH 496 0
DWIDTH 10 0
BBX 8 10 1 0
BITMAP
2FF4
6009
9006
9006
9006
9006
9006
9006
6009
2FF4
ENDCHAR
STARTCHAR p
ENCODING 112
SWIDTH 504 0
DWIDTH 10 0
BBX 8 13 1 -3
BITMAP
6BF8
B009
A006
A006
A006
A006
A006
A006
B009
ABF8
A000
A000
5000
ENDCHAR
STARTCHAR q
ENCODING 113
SWIDTH 502 0
DWIDTH 10 0
BBX 8 13 1 -3
BITMAP
2FFE
6006
9006
9006
9006
9006
9006
900A
600E
2FEA
0006
0006
0006
ENDCHAR
STARTCHAR r
ENCODING 114
SWIDTH 313 0
DWIDTH 6 0
BBX 5 10 1 0
BITMAP
6B80
B400
A000
A000
A000
A000
A000
A000
A000
5000
ENDCHAR
STARTCHAR s
ENCODING 115
SWIDTH 431 0
DWIDTH 9 0
BBX 7 10 1 0
BITMAP
6FF0
D000
C000
A000
1E40
01A0
0024
0028
0024
BFE0
ENDCHAR
STARTCHAR t
ENCODING 116
SWIDTH 347 0
DWIDTH 7 0
BBX 6 12 0 0
BITMAP
0C00
0C00
7FE0
0C00
0C00
0C00
0C00
0C00
0C00
0900
0A00
02F0
ENDCHAR
STARTCHAR u
ENCODING 117
SWIDTH 507 0
DWIDTH 10 0
BBX 8 10 1 0
BITMAP
9006
9006
9006
9006
9006
9006
9006
9006
600A
1FEA
ENDCHAR
STARTCHAR v
ENCODING 118
SWIDTH 416 0
DWIDTH 8 0
BBX 8 10 0 0
BITMAP
5006
600A
300D
240C
1818
0C24
0930
0660
0390
02C0
ENDCHAR
STARTCHAR w
ENCODING 119
SWIDTH 683 0
DWIDTH 14 0
BBX 13 10 0 0
BITMAP
600900C0
700E01C0
301B0180
24264240
18318300
0C608600
09508900
05909C00
02C06800
03803400
ENDCHAR
STARTCHAR x
ENCODING 120
SWIDTH 413 0
DWIDTH 8 0
BBX 8 10 0 0
BITMAP
3009
2818
0C34
0660
02C0
03C0
0660
0C24
241C
600A
ENDCHAR
STARTCHAR y
ENCODING 121
SWIDTH 459 0
DWIDTH 9 0
BBX 9 13 0 -3
BITMAP
600180
300340
240700
180900
0C0C00
091800
062400
037000
02A000
00D000
00C000
028000
3E0000
ENDCHAR
STARTCHAR z
ENCODING 122
SWIDTH 405 0
DWIDTH 8 0
BBX 8 10 0 0
BITMAP
3FFD
001C
0034
00A0
01C0
0340
0A00
1C00
2400
7FFD
ENDCHAR
STARTCHAR braceleft
ENCODING 123
SWIDTH 298 0
DWIDTH 6 0
BBX 5 15 0 -2
BITMAP
0280
0900
0800
0800
0800
0800
0C00
7400
0C00
0800
0800
0800
0800
0900
0280
ENDCHAR
STARTCHAR bar
ENCODING 124
SWIDTH 207 0
DWIDTH 4 0
BBX 2 13 1 0
BITMAP
50
50
50
50
50
50
50
50
50
50
50
50
50
ENDCHAR
STARTCHAR braceright
ENCODING 125
SWIDTH 298 0
DWIDTH 6 0
BBX 5 15 0 -2
BITMAP
7400
0C00
0900
0900
0900
0900
0600
0380
0600
0900
0900
0900
0900
0C00
7400
ENDCHAR
STARTCHAR asciitilde
ENCODING 126
SWIDTH 523 0
DWIDTH 10 0
BBX 8 1 1 6
BITMAP
6FFE
ENDCHAR
STARTCHAR uni00A0
ENCODING 160
SWIDTH 267 0
DWIDTH 5 0
BBX 1 1 0 0
BITMAP
00
ENDCHAR
STARTCHAR exclamdown
ENCODING 161
SWIDTH 237 0
DWIDTH 5 0
BBX 2 13 1 0
BITMAP
30
30
20
00
20
20
30
30
70
70
70
70
70
ENDCHAR
STARTCHAR cent
ENCODING 162
SWIDTH 414 0
DWIDTH 8 0
BBX 7 14 1 -2
BITMAP
0180
0180
2FF4
6000
9000
9000
9000
9000
9000
9000
6000
2FF4
0180
0040
ENDCHAR
STARTCHAR sterling
ENCODING 163
SWIDTH 528 0
DWIDTH 11 0
BBX 9 13 0 0
BITMAP
02FE00
060180
0900C0
090080
090000
090000
090000
7FF800
090000
090000
090000
0C0000
7FFFC0
ENDCHAR
STARTCHAR yen
ENCODING 165
SWIDTH 499 0
DWIDTH 10 0
BBX 10 13 0 0
BITMAP
6000D0
240180
180240
0D0600
060900
035C00
6BAE80
00F000
00A000
7FFFC0
009000
009000
005000
ENDCHAR
STARTCHAR brokenbar
ENCODING 166
SWIDTH 201 0
DWIDTH 4 0
BBX 2 13 1 0
BITMAP
50
50
50
50
50
00
00
00
50
50
50
50
50
ENDCHAR
STARTCHAR section
ENCODING 167
SWIDTH 454 0
DWIDTH 9 0
BBX 7 13 1 0
BITMAP
2FF4
A000
9000
A000
AE90
8164
9018
750C
16EC
001C
001C
0028
BFE0
ENDCHAR
STARTCHAR dieresis
ENCODING 168
SWIDTH 345 0
DWIDTH 7 0
BBX 5 3 1 11
BITMAP
9180
9180
9140
ENDCHAR
STARTCHAR copyright
ENCODING 169
SWIDTH 723 0
DWIDTH 14 0
BBX 12 13 1 0
BITMAP
1FFFF8
600006
900002
90BE42
918182
914082
924002
924002
914082
918182
906A02
600006
1FFFF8
ENDCHAR
STARTCHAR guillemotleft
ENCODING 171
SWIDTH 431 0
DWIDTH 9 0
BBX 7 7 1 2
BITMAP
0100
0920
2490
9240
6240
2890
0524
ENDCHAR
STARTCHAR registered
ENCODING 174
SWIDTH 439 0
DWIDTH 9 0
BBX 7 6 1 8
BITMAP
2FE0
9B54
8894
8B54
9454
2FE0
ENDCHAR
STARTCHAR macron
ENCODING 175
SWIDTH 358 0
DWIDTH 7 0
BBX 5 1 1 12
BITMAP
BF80
ENDCHAR
STARTCHAR degree
ENCODING 176
SWIDTH 298 0
DWIDTH 6 0
BBX 4 4 1 10
BITMAP
7D
55
55
7D
ENDCHAR
STARTCHAR plusminus
ENCODING 177
SWIDTH 523 0
DWIDTH 10 0
BBX 8 8 1 2
BITMAP
0180
0180
0180
7FFF
0180
0180
0000
7FFF
ENDCHAR
STARTCHAR acute
ENCODING 180
SWIDTH 269 0
DWIDTH 5 0
BBX 3 3 1 11
BITMAP
28
60
40
ENDCHAR
STARTCHAR paragraph
ENCODING 182
SWIDTH 513 0
DWIDTH 10 0
BBX 8 13 1 0
BITMAP
6FFD
FD06
FD06
FD06
FD06
BD06
1906
0906
0906
0906
0906
0906
0905
ENDCHAR
STARTCHAR periodcentered
ENCODING 183
SWIDTH 207 0
DWIDTH 4 0
BBX 2 3 1 5
BITMAP
60
A0
60
ENDCHAR
STARTCHAR cedilla
ENCODING 184
SWIDTH 257 0
DWIDTH 5 0
BBX 3 4 1 -4
BITMAP
20
64
08
74
ENDCHAR
STARTCHAR guillemotright
ENCODING 187
SWIDTH 431 0
DWIDTH 9 0
BBX 7 7 1 2
BITMAP
4100
6240
2890
0924
0920
2490
9240
ENDCHAR
STARTCHAR questiondown
ENCODING 191
SWIDTH 473 0
DWIDTH 9 0
BBX 7 13 1 0
BITMAP
0300
0300
0200
0000
0200
0300
0600
1800
7000
900C
900C
6018
1FE0
ENDCHAR
STARTCHAR Agrave
ENCODING 192
SWIDTH 532 0
DWIDTH 11 0
BBX 10 17 0 0
BITMAP
010000
018000
009000
000000
007000
00A400
00D800
018C00
024900
030600
060300
090240
0C0180
1FFFC0
2400D0
300060
600030
ENDCHAR
STARTCHAR Aacute
ENCODING 193
SWIDTH 532 0
DWIDTH 11 0
BBX 10 17 0 0
BITMAP
000500
000C00
002400
000000
007000
00A400
00D800
018C00
024900
030600
060300
090240
0C0180
1FFFC0
2400D0
300060
600030
ENDCHAR
STARTCHAR Acircumflex
ENCODING 194
SWIDTH 532 0
DWIDTH 11 0
BBX 10 17 0 0
BITMAP
001000
009400
014800
000000
007000
00A400
00D800
018C00
024900
030600
060300
090240
0C0180
1FFFC0
2400D0
300060
600030
ENDCHAR
STARTCHAR Atilde
ENCODING 195
SWIDTH 532 0
DWIDTH 11 0
BBX 10 17 0 0
BITMAP
022D00
022500
019100
000000
007000
00A400
00D800
018C00
024900
030600
060300
090240
0C0180
1FFFC0
2400D0
300060
600030
ENDCHAR
STARTCHAR Adieresis
ENCODING 196
SWIDTH 532 0
DWIDTH 11 0
BBX 10 17 0 0
BITMAP
020500
024900
024900
000000
007000
00A400
00D800
018C00
024900
030600
060300
090240
0C0180
1FFFC0
2400D0
300060
600030
ENDCHAR
STARTCHAR Aring
ENCODING 197
SWIDTH 532 0
DWIDTH 11 0
BBX 10 17 0 0
BITMAP
00B400
014800
014800
00B400
007000
00A400
00D800
018C00
024900
030600
060300
090240
0C0180
1FFFC0
2400D0
300060
600030
ENDCHAR
STARTCHAR AE
ENCODING 198
SWIDTH 773 0
DWIDTH 15 0
BBX 14 13 0 0
BITMAP
0007FFF0
000E8000
00198000
00358000
00618000
00D18000
0281FFD0
03418000
0A018000
1FFF8000
28018000
70018000
9001FFF0
ENDCHAR
STARTCHAR Ccedilla
ENCODING 199
SWIDTH 542 0
DWIDTH 11 0
BBX 9 17 1 -4
BITMAP
1FFD00
700240
600180
A00180
A00000
A00000
A00000
A00000
A00000
A00180
600180
700240
1FFD00
008000
01A000
002000
01E000
ENDCHAR
STARTCHAR Egrave
ENCODING 200
SWIDTH 481 0
DWIDTH 10 0
BBX 8 17 1 0
BITMAP
0400
0600
0240
0000
7FFD
6000
6000
6000
6000
6000
7FF8
6000
6000
6000
6000
6000
7FFD
ENDCHAR
STARTCHAR Eacute
ENCODING 201
SWIDTH 481 0
DWIDTH 10 0
BBX 8 17 1 0
BITMAP
0010
0090
0180
0000
7FFD
6000
6000
6000
6000
6000
7FF8
6000
6000
6000
6000
6000
7FFD
ENDCHAR
STARTCHAR Ecircumflex
ENCODING 202
SWIDTH 481 0
DWIDTH 10 0
BBX 8 17 1 0
BITMAP
0140
0280
0860
0000
7FFD
6000
6000
6000
6000
6000
7FF8
6000
6000
6000
6000
6000
7FFD
ENDCHAR
STARTCHAR Edieresis
ENCODING 203
SWIDTH 481 0
DWIDTH 10 0
BBX 8 17 1 0
BITMAP
0820
0C30
0C30
0000
7FFD
6000
6000
6000
6000
6000
7FF8
6000
6000
6000
6000
6000
7FFD
ENDCHAR
STARTCHAR Igrave
ENCODING 204
SWIDTH 230 0
DWIDTH 5 0
BBX 3 17 0 0
BITMAP
40
60
14
00
18
18
18
18
18
18
18
18
18
18
18
18
18
ENDCHAR
STARTCHAR Iacute
ENCODING 205
SWIDTH 231 0
DWIDTH 5 0
BBX 4 17 1 0
BITMAP
05
1C
20
00
60
60
60
60
60
60
60
60
60
60
60
60
60
ENDCHAR
STARTCHAR Icircumflex
ENCODING 206
SWIDTH 229 0
DWIDTH 5 0
BBX 4 17 0 0
BITMAP
04
29
52
00
18
18
18
18
18
18
18
18
18
18
18
18
18
ENDCHAR
STARTCHAR Idieresis
ENCODING 207
SWIDTH 230 0
DWIDTH 5 0
BBX 5 17 0 0
BITMAP
8140
8240
8240
0000
1800
1800
1800
1800
1800
1800
1800
1800
1800
1800
1800
1800
1800
ENDCHAR
STARTCHAR Eth
ENCODING 208
SWIDTH 514 0
DWIDTH 10 0
BBX 10 13 0 0
BITMAP
1FFF80
180090
180060
180060
180060
180060
7FF060
180060
180060
180060
180060
180090
1FFF80
ENDCHAR
STARTCHAR Ntilde
ENCODING 209
SWIDTH 579 0
DWIDTH 12 0
BBX 9 17 1 0
BITMAP
053800
059800
038800
000000
7000C0
7400C0
7C00C0
6A00C0
6340C0
6180C0
6090C0
6070C0
6024C0
600DC0
6006C0
6002C0
6001C0
ENDCHAR
STARTCHAR Ograve
ENCODING 210
SWIDTH 553 0
DWIDTH 11 0
BBX 9 17 1 0
BITMAP
050000
030000
018000
000000
1FFD00
700340
600180
A00180
A00180
A00180
A00180
A00180
A00180
A00180
600180
700340
1FFD00
ENDCHAR
STARTCHAR Oacute
ENCODING 211
SWIDTH 553 0
DWIDTH 11 0
BBX 9 17 1 0
BITMAP
001400
003000
009000
000000
1FFD00
700340
600180
A00180
A00180
A00180
A00180
A00180
A00180
A00180
600180
700340
1FFD00
ENDCHAR
STARTCHAR Ocircumflex
ENCODING 212
SWIDTH 553 0
DWIDTH 11 0
BBX 9 17 1 0
BITMAP
004000
026000
062400
000000
1FFD00
700340
600180
A00180
A00180
A00180
A00180
A00180
A00180
A00180
600180
700340
1FFD00
ENDCHAR
STARTCHAR Otilde
ENCODING 213
SWIDTH 553 0
DWIDTH 11 0
BBX 9 17 1 0
BITMAP
087400
088800
074800
000000
1FFD00
700340
600180
A00180
A00180
A00180
A00180
A00180
A00180
A00180
600180
700340
1FFD00
ENDCHAR
STARTCHAR Odieresis
ENCODING 214
SWIDTH 553 0
DWIDTH 11 0
BBX 9 17 1 0
BITMAP
051800
091800
091800
000000
1FFD00
700340
600180
A00180
A00180
A00180
A00180
A00180
A00180
A00180
600180
700340
1FFD00
ENDCHAR
STARTCHAR multiply
ENCODING 215
SWIDTH 493 0
DWIDTH 10 0
BBX 6 7 2 3
BITMAP
4010
A0A0
2A80
0E00
2A80
A0A0
4010
ENDCHAR
STARTCHAR Oslash
ENCODING 216
SWIDTH 559 0
DWIDTH 11 0
BBX 9 13 1 0
BITMAP
1FFD80
300380
600380
600A80
601580
606180
608180
624180
660180
680180
740180
700240
9FFD00
ENDCHAR
STARTCHAR Ugrave
ENCODING 217
SWIDTH 552 0
DWIDTH 11 0
BBX 9 17 1 0
BITMAP
050000
034000
008000
000000
600240
600240
600240
600240
600240
600240
600240
600240
600240
600240
600240
300300
1FFD00
ENDCHAR
STARTCHAR Uacute
ENCODING 218
SWIDTH 552 0
DWIDTH 11 0
BBX 9 17 1 0
BITMAP
001400
003000
009000
000000
600240
600240
600240
600240
600240
600240
600240
600240
600240
600240
600240
300300
1FFD00
ENDCHAR
STARTCHAR Ucircumflex
ENCODING 219
SWIDTH 552 0
DWIDTH 11 0
BBX 9 17 1 0
BITMAP
004000
026000
062400
000000
600240
600240
600240
600240
600240
600240
600240
600240
600240
600240
600240
300300
1FFD00
ENDCHAR
STARTCHAR Udieresis
ENCODING 220
SWIDTH 552 0
DWIDTH 11 0
BBX 9 17 1 0
BITMAP
051800
091800
091800
000000
600240
600240
600240
600240
600240
600240
600240
600240
600240
600240
600240
300300
1FFD00
ENDCHAR
STARTCHAR Yacute
ENCODING 221
SWIDTH 493 0
DWIDTH 10 0
BBX 10 17 0 0
BITMAP
000400
002400
006000
000000
6000D0
340180
180340
0D0600
060D00
035800
01A400
00E000
009000
009000
009000
009000
009000
ENDCHAR
STARTCHAR Thorn
ENCODING 222
SWIDTH 501 0
DWIDTH 10 0
BBX 7 13 2 0
BITMAP
9000
9000
9000
BFE0
9024
9018
9018
9018
9024
BFD0
9000
9000
9000
ENDCHAR
STARTCHAR germandbls
ENCODING 223
SWIDTH 540 0
DWIDTH 11 0
BBX 9 13 1 0
BITMAP
1FF900
300700
600300
600240
600300
600600
60FD00
600700
600240
600240
600240
600300
61FD00
ENDCHAR
STARTCHAR agrave
ENCODING 224
SWIDTH 502 0
DWIDTH 10 0
BBX 8 14 1 0
BITMAP
0600
0240
0080
0000
2FFE
6006
9006
9006
9006
9006
9006
900A
600E
2FEA
ENDCHAR
STARTCHAR aacute
ENCODING 225
SWIDTH 502 0
DWIDTH 10 0
BBX 8 14 1 0
BITMAP
0034
0090
0040
0000
2FFE
6006
9006
9006
9006
9006
9006
900A
600E
2FEA
ENDCHAR
STARTCHAR acircumflex
ENCODING 226
SWIDTH 502 0
DWIDTH 10 0
BBX 8 14 1 0
BITMAP
0280
0260
0520
0000
2FFE
6006
9006
9006
9006
9006
9006
900A
600E
2FEA
ENDCHAR
STARTCHAR atilde
ENCODING 227
SWIDTH 504 0
DWIDTH 10 0
BBX 8 14 1 0
BITMAP
0874
0888
0644
0000
2FFE
6006
9006
9006
9006
9006
9006
900A
600E
2FEA
ENDCHAR
STARTCHAR adieresis
ENCODING 228
SWIDTH 502 0
DWIDTH 10 0
BBX 8 14 1 0
BITMAP
0914
0924
0814
0000
2FFE
6006
9006
9006
9006
9006
9006
900A
600E
2FEA
ENDCHAR
STARTCHAR aring
ENCODING 229
SWIDTH 502 0
DWIDTH 10 0
BBX 8 15 1 0
BITMAP
07D0
0820
0820
07D0
0000
2FFE
6006
9006
9006
9006
9006
9006
900A
600E
2FEA
ENDCHAR
STARTCHAR ae
ENCODING 230
SWIDTH 795 0
DWIDTH 16 0
BBX 14 10 1 0
BITMAP
2FF5FF40
000F0090
000A0060
000A0060
2FFE0060
600BFFE0
900A0000
900A0000
600B0000
2FE5FFE0
ENDCHAR
STARTCHAR ccedilla
ENCODING 231
SWIDTH 394 0
DWIDTH 8 0
BBX 6 14 1 -4
BITMAP
2FF0
6000
9000
9000
9000
9000
9000
9000
6000
2FF0
0240
0280
0090
0380
ENDCHAR
STARTCHAR egrave
ENCODING 232
SWIDTH 492 0
DWIDTH 10 0
BBX 8 14 1 0
BITMAP
0D00
0700
0140
0000
2FF4
6009
9006
9006
9006
BFFE
9000
9000
6000
2FFD
ENDCHAR
STARTCHAR eacute
ENCODING 233
SWIDTH 492 0
DWIDTH 10 0
BBX 8 14 1 0
BITMAP
00A0
00C0
0140
0000
2FF4
6009
9006
9006
9006
BFFE
9000
9000
6000
2FFD
ENDCHAR
STARTCHAR ecircumflex
ENCODING 234
SWIDTH 492 0
DWIDTH 10 0
BBX 8 14 1 0
BITMAP
0280
0590
0820
0000
2FF4
6009
9006
9006
9006
BFFE
9000
9000
6000
2FFD
ENDCHAR
STARTCHAR edieresis
ENCODING 235
SWIDTH 492 0
DWIDTH 10 0
BBX 8 14 1 0
BITMAP
0820
0C30
0820
0000
2FF4
6009
9006
9006
9006
BFFE
9000
9000
6000
2FFD
ENDCHAR
STARTCHAR igrave
ENCODING 236
SWIDTH 210 0
DWIDTH 4 0
BBX 3 14 0 0
BITMAP
D0
60
14
00
18
18
18
18
18
18
18
18
18
18
ENDCHAR
STARTCHAR iacute
ENCODING 237
SWIDTH 208 0
DWIDTH 4 0
BBX 4 14 1 0
BITMAP
0D
24
10
00
60
60
60
60
60
60
60
60
60
60
ENDCHAR
STARTCHAR icircumflex
ENCODING 238
SWIDTH 210 0
DWIDTH 4 0
BBX 4 14 0 0
BITMAP
28
65
42
00
18
18
18
18
18
18
18
18
18
18
ENDCHAR
STARTCHAR idieresis
ENCODING 239
SWIDTH 210 0
DWIDTH 4 0
BBX 5 14 0 0
BITMAP
C240
C240
8240
0000
1800
1800
1800
1800
1800
1800
1800
1800
1800
1800
ENDCHAR
STARTCHAR eth
ENCODING 240
SWIDTH 488 0
DWIDTH 10 0
BBX 8 14 1 0
BITMAP
0404
0964
0280
0690
1834
001C
1FE9
601E
900A
900A
900A
9009
600D
2FF4
ENDCHAR
STARTCHAR ntilde
ENCODING 241
SWIDTH 507 0
DWIDTH 10 0
BBX 8 14 1 0
BITMAP
08B0
0954
0A14
0000
6BF8
B009
A006
A006
A006
A006
A006
A006
A006
5006
ENDCHAR
STARTCHAR ograve
ENCODING 242
SWIDTH 496 0
DWIDTH 10 0
BBX 8 14 1 0
BITMAP
0D00
0600
0100
0000
2FF4
6009
9006
9006
9006
9006
9006
9006
6009
2FF4
ENDCHAR
STARTCHAR oacute
ENCODING 243
SWIDTH 496 0
DWIDTH 10 0
BBX 8 14 1 0
BITMAP
0070
0090
0140
0000
2FF4
6009
9006
9006
9006
9006
9006
9006
6009
2FF4
ENDCHAR
STARTCHAR ocircumflex
ENCODING 244
SWIDTH 496 0
DWIDTH 10 0
BBX 8 14 1 0
BITMAP
0280
0590
0810
0000
2FF4
6009
9006
9006
9006
9006
9006
9006
6009
2FF4
ENDCHAR
STARTCHAR otilde
ENCODING 245
SWIDTH 496 0
DWIDTH 10 0
BBX 8 14 1 0
BITMAP
14E0
1560
0A20
0000
2FF4
6009
9006
9006
9006
9006
9006
9006
6009
2FF4
ENDCHAR
STARTCHAR odieresis
ENCODING 246
SWIDTH 496 0
DWIDTH 10 0
BBX 8 14 1 0
BITMAP
0830
0830
0820
0000
2FF4
6009
9006
9006
9006
9006
9006
9006
6009
2FF4
ENDCHAR
STARTCHAR divide
ENCODING 247
SWIDTH 510 0
DWIDTH 10 0
BBX 8 8 1 2
BITMAP
0180
0140
0000
7FFE
0000
0000
0180
0140
ENDCHAR
STARTCHAR oslash
ENCODING 248
SWIDTH 521 0
DWIDTH 10 0
BBX 10 10 0 0
BITMAP
07FE10
0C02D0
1802C0
1809C0
1824C0
1890C0
1A40C0
1D0180
2C0280
57FE00
ENDCHAR
STARTCHAR ugrave
ENCODING 249
SWIDTH 507 0
DWIDTH 10 0
BBX 8 14 1 0
BITMAP
0D00
0600
0140
0000
9006
9006
9006
9006
9006
9006
9006
9006
600A
1FEA
ENDCHAR
STARTCHAR uacute
ENCODING 250
SWIDTH 507 0
DWIDTH 10 0
BBX 8 14 1 0
BITMAP
0070
0090
0040
0000
9006
9006
9006
9006
9006
9006
9006
9006
600A
1FEA
ENDCHAR
STARTCHAR ucircumflex
ENCODING 251
SWIDTH 507 0
DWIDTH 10 0
BBX 8 14 1 0
BITMAP
0280
0650
0820
0000
9006
9006
9006
9006
9006
9006
9006
9006
600A
1FEA
ENDCHAR
STARTCHAR udieresis
ENCODING 252
SWIDTH 507 0
DWIDTH 10 0
BBX 8 14 1 0
BITMAP
0C20
0C30
0820
0000
9006
9006
9006
9006
9006
9006
9006
9006
600A
1FEA
ENDCHAR
STARTCHAR yacute
ENCODING 253
SWIDTH 459 0
DWIDTH 9 0
BBX 9 17 0 -3
BITMAP
002800
007000
004000
000000
600180
300340
240700
180900
0C0C00
091800
062400
037000
02A000
00D000
00C000
028000
3E0000
ENDCHAR
STARTCHAR thorn
ENCODING 254
SWIDTH 508 0
DWIDTH 10 0
BBX 8 17 1 -3
BITMAP
6000
6000
6000
6000
6BF8
740A
6006
6003
6003
6003
6003
6006
740A
6BF8
6000
6000
6000
ENDCHAR
STARTCHAR ydieresis
ENCODING 255
SWIDTH 459 0
DWIDTH 9 0
BBX 9 17 0 -3
BITMAP
051800
091800
051800
000000
600180
300340
240700
180900
0C0C00
091800
062400
037000
02A000
00D000
00C000
028000
3E0000
ENDCHAR
STARTCHAR Amacron
ENCODING 256
SWIDTH 532 0
DWIDTH 11 0
BBX 10 16 0 0
BITMAP
02FD00
000000
000000
007000
00A400
00D800
018C00
024900
030600
060300
090240
0C0180
1FFFC0
2400D0
300060
600030
ENDCHAR
STARTCHAR amacron
ENCODING 257
SWIDTH 502 0
DWIDTH 10 0
BBX 8 13 1 0
BITMAP
0BF8
0000
0000
2FFE
6006
9006
9006
9006
9006
9006
900A
600E
2FEA
ENDCHAR
STARTCHAR Abreve
ENCODING 258
SWIDTH 532 0
DWIDTH 11 0
BBX 10 17 0 0
BITMAP
010400
024900
00A400
000000
007000
00A400
00D800
018C00
024900
030600
060300
090240
0C0180
1FFFC0
2400D0
300060
600030
ENDCHAR
STARTCHAR abreve
ENCODING 259
SWIDTH 502 0
DWIDTH 10 0
BBX 8 14 1 0
BITMAP
0814
0524
0290
0000
2FFE
6006
9006
9006
9006
9006
9006
900A
600E
2FEA
ENDCHAR
STARTCHAR Aogonek
ENCODING 260
SWIDTH 532 0
DWIDTH 11 0
BBX 10 15 0 -2
BITMAP
007000
00A400
00D800
018C00
024900
030600
060300
090240
0C0180
1FFFC0
2400D0
300060
600030
000080
0001D0
ENDCHAR
STARTCHAR aogonek
ENCODING 261
SWIDTH 502 0
DWIDTH 10 0
BBX 8 12 1 -2
BITMAP
2FFE
6006
9006
9006
9006
9006
9006
900A
600E
2FEA
0014
0028
ENDCHAR
STARTCHAR Cacute
ENCODING 262
SWIDTH 542 0
DWIDTH 11 0
BBX 9 17 1 0
BITMAP
001400
003000
009000
000000
1FFD00
700240
600180
A00180
A00000
A00000
A00000
A00000
A00000
A00180
600180
700240
1FFD00
ENDCHAR
STARTCHAR cacute
ENCODING 263
SWIDTH 394 0
DWIDTH 8 0
BBX 6 14 1 0
BITMAP
0090
0180
0100
0000
2FF0
6000
9000
9000
9000
9000
9000
9000
6000
2FF0
ENDCHAR
STARTCHAR Cdotaccent
ENCODING 266
SWIDTH 542 0
DWIDTH 11 0
BBX 9 16 1 0
BITMAP
00C000
00C000
000000
1FFD00
700240
600180
A00180
A00000
A00000
A00000
A00000
A00000
A00180
600180
700240
1FFD00
ENDCHAR
STARTCHAR cdotaccent
ENCODING 267
SWIDTH 394 0
DWIDTH 8 0
BBX 6 14 1 0
BITMAP
0300
0300
0000
0000
2FF0
6000
9000
9000
9000
9000
9000
9000
6000
2FF0
ENDCHAR
STARTCHAR Ccaron
ENCODING 268
SWIDTH 542 0
DWIDTH 11 0
BBX 9 17 1 0
BITMAP
011400
022000
019000
000000
1FFD00
700240
600180
A00180
A00000
A00000
A00000
A00000
A00000
A00180
600180
700240
1FFD00
ENDCHAR
STARTCHAR ccaron
ENCODING 269
SWIDTH 394 0
DWIDTH 8 0
BBX 6 14 1 0
BITMAP
0850
0580
0240
0000
2FF0
6000
9000
9000
9000
9000
9000
9000
6000
2FF0
ENDCHAR
STARTCHAR Dcaron
ENCODING 270
SWIDTH 557 0
DWIDTH 11 0
BBX 9 17 1 0
BITMAP
051000
022000
019000
000000
7FFD00
600240
600180
600180
600180
600180
600180
600180
600180
600180
600180
600240
7FFD00
ENDCHAR
STARTCHAR dcaron
ENCODING 271
SWIDTH 534 0
DWIDTH 11 0
BBX 10 14 1 0
BITMAP
000660
000660
000660
000650
2FEA40
601E00
900600
900600
900600
900600
900600
900600
600E00
2FEA00
ENDCHAR
STARTCHAR Dcroat
ENCODING 272
SWIDTH 514 0
DWIDTH 10 0
BBX 10 13 0 0
BITMAP
1FFF80
180090
180060
180060
180060
7FF060
180060
180060
180060
180060
180060
180090
1FFF80
ENDCHAR
STARTCHAR dcroat
ENCODING 273
SWIDTH 539 0
DWIDTH 11 0
BBX 10 14 1 0
BITMAP
000600
000600
03FFD0
000600
000600
1FEA00
601E00
900600
900600
900600
900600
900600
600E00
2FEA00
ENDCHAR
STARTCHAR Emacron
ENCODING 274
SWIDTH 481 0
DWIDTH 10 0
BBX 8 16 1 0
BITMAP
1FF0
0000
0000
7FFD
6000
6000
6000
6000
6000
7FF8
6000
6000
6000
6000
6000
7FFD
ENDCHAR
STARTCHAR emacron
ENCODING 275
SWIDTH 492 0
DWIDTH 10 0
BBX 8 13 1 0
BITMAP
1FF4
0000
0000
2FF4
6009
9006
9006
9006
BFFE
9000
9000
6000
2FFD
ENDCHAR
STARTCHAR Ebreve
ENCODING 276
SWIDTH 481 0
DWIDTH 10 0
BBX 8 17 1 0
BITMAP
0410
0820
0690
0000
7FFD
6000
6000
6000
6000
6000
7FF8
6000
6000
6000
6000
6000
7FFD
ENDCHAR
STARTCHAR ebreve
ENCODING 277
SWIDTH 492 0
DWIDTH 10 0
BBX 8 14 1 0
BITMAP
0820
0820
0690
0000
2FF4
6009
9006
9006
9006
BFFE
9000
9000
6000
2FFD
ENDCHAR
STARTCHAR Edotaccent
ENCODING 278
SWIDTH 496 0
DWIDTH 10 0
BBX 8 16 1 0
BITMAP
0140
0140
0000
7FFD
6000
6000
6000
6000
6000
7FF8
6000
6000
6000
6000
6000
7FFD
ENDCHAR
STARTCHAR edotaccent
ENCODING 279
SWIDTH 492 0
DWIDTH 10 0
BBX 8 14 1 0
BITMAP
0140
0240
0000
0000
2FF4
6009
9006
9006
9006
BFFE
9000
9000
6000
2FFD
ENDCHAR
STARTCHAR Eogonek
ENCODING 280
SWIDTH 481 0
DWIDTH 10 0
BBX 8 15 1 -2
BITMAP
7FFD
6000
6000
6000
6000
6000
7FF8
6000
6000
6000
6000
6000
7FFD
0010
00A0
ENDCHAR
STARTCHAR eogonek
ENCODING 281
SWIDTH 492 0
DWIDTH 10 0
BBX 8 12 1 -2
BITMAP
2FF4
6009
9006
9006
9006
BFFE
9000
9000
6000
2FFD
0010
00A0
ENDCHAR
STARTCHAR Ecaron
ENCODING 282
SWIDTH 481 0
DWIDTH 10 0
BBX 8 17 1 0
BITMAP
0410
0550
0280
0000
7FFD
6000
6000
6000
6000
6000
7FF8
6000
6000
6000
6000
6000
7FFD
ENDCHAR
STARTCHAR ecaron
ENCODING 283
SWIDTH 492 0
DWIDTH 10 0
BBX 8 14 1 0
BITMAP
0820
0690
0140
0000
2FF4
6009
9006
9006
9006
BFFE
9000
9000
6000
2FFD
ENDCHAR
STARTCHAR Gcircumflex
ENCODING 284
SWIDTH 539 0
DWIDTH 11 0
BBX 9 17 1 0
BITMAP
004000
026000
062000
000000
1FF900
700700
600240
A00240
A00000
A00000
A07F40
A00240
A00240
A00240
600240
700700
1FF900
ENDCHAR
STARTCHAR gcircumflex
ENCODING 285
SWIDTH 506 0
DWIDTH 10 0
BBX 8 17 1 -3
BITMAP
01D0
0220
0510
0000
1FFE
6006
9006
9006
9006
9006
9006
9006
701E
1BEA
0006
0009
3FF4
ENDCHAR
STARTCHAR Gbreve
ENCODING 286
SWIDTH 539 0
DWIDTH 11 0
BBX 9 17 1 0
BITMAP
040400
051400
02A000
000000
1FF900
700700
600240
A00240
A00000
A00000
A07F40
A00240
A00240
A00240
600240
700700
1FF900
ENDCHAR
STARTCHAR gbreve
ENCODING 287
SWIDTH 506 0
DWIDTH 10 0
BBX 8 17 1 -3
BITMAP
0508
0514
02A0
0000
1FFE
6006
9006
9006
9006
9006
9006
9006
701E
1BEA
0006
0009
3FF4
ENDCHAR
STARTCHAR Gdotaccent
ENCODING 288
SWIDTH 539 0
DWIDTH 11 0
BBX 9 16 1 0
BITMAP
00C000
00C000
000000
1FF900
700700
600240
A00240
A00000
A00000
A07F40
A00240
A00240
A00240
600240
700700
1FF900
ENDCHAR
STARTCHAR gdotaccent
ENCODING 289
SWIDTH 506 0
DWIDTH 10 0
BBX 8 17 1 -3
BITMAP
00C0
00C0
0000
0000
1FFE
6006
9006
9006
9006
9006
9006
9006
701E
1BEA
0006
0009
3FF4
ENDCHAR
STARTCHAR uni0122
ENCODING 290
SWIDTH 539 0
DWIDTH 11 0
BBX 9 18 1 -5
BITMAP
1FF900
700700
600240
A00240
A00000
A00000
A07F40
A00240
A00240
A00240
600240
700700
1FF900
000000
009000
009000
008000
004000
ENDCHAR
STARTCHAR uni0123
ENCODING 291
SWIDTH 506 0
DWIDTH 10 0
BBX 8 18 1 -3
BITMAP
0040
0080
00C0
00C0
0000
1FFE
6006
9006
9006
9006
9006
9006
9006
701E
1BEA
0006
0009
3FF4
ENDCHAR
STARTCHAR hcircumflex
ENCODING 293
SWIDTH 507 0
DWIDTH 10 0
BBX 8 15 1 0
BITMAP
0190
5220
A000
A000
A000
ABF8
B009
A006
A006
A006
A006
A006
A006
A006
5006
ENDCHAR
STARTCHAR Hbar
ENCODING 294
SWIDTH 523 0
DWIDTH 10 0
BBX 11 13 0 0
BITMAP
180060
180060
180060
7FFFFC
180060
180060
1FFFE0
180060
180060
180060
180060
180060
180060
ENDCHAR
STARTCHAR hbar
ENCODING 295
SWIDTH 544 0
DWIDTH 11 0
BBX 10 14 0 0
BITMAP
090000
090000
7FF800
090000
090000
09BE40
0A01C0
090090
090090
090090
090090
090090
090090
090090
ENDCHAR
STARTCHAR Itilde
ENCODING 296
SWIDTH 230 0
DWIDTH 5 0
BBX 5 17 0 0
BITMAP
8B00
8940
7440
0000
1800
1800
1800
1800
1800
1800
1800
1800
1800
1800
1800
1800
1800
ENDCHAR
STARTCHAR itilde
ENCODING 297
SWIDTH 210 0
DWIDTH 4 0
BBX 5 14 0 0
BITMAP
8B00
9540
A140
0000
1800
1800
1800
1800
1800
1800
1800
1800
1800
1800
ENDCHAR
STARTCHAR Imacron
ENCODING 298
SWIDTH 230 0
DWIDTH 5 0
BBX 5 16 0 0
BITMAP
BF40
0000
0000
1800
1800
1800
1800
1800
1800
1800
1800
1800
1800
1800
1800
1800
ENDCHAR
STARTCHAR imacron
ENCODING 299
SWIDTH 208 0
DWIDTH 4 0
BBX 5 13 0 0
BITMAP
FF40
0000
0000
1800
1800
1800
1800
1800
1800
1800
1800
1800
1800
ENDCHAR
STARTCHAR Ibreve
ENCODING 300
SWIDTH 231 0
DWIDTH 5 0
BBX 5 17 0 0
BITMAP
4100
9240
2900
0000
1800
1800
1800
1800
1800
1800
1800
1800
1800
1800
1800
1800
1800
ENDCHAR
STARTCHAR ibreve
ENCODING 301
SWIDTH 211 0
DWIDTH 4 0
BBX 4 14 0 0
BITMAP
82
82
29
00
18
18
18
18
18
18
18
18
18
18
ENDCHAR
STARTCHAR Iogonek
ENCODING 302
SWIDTH 230 0
DWIDTH 5 0
BBX 3 15 0 -2
BITMAP
18
18
18
18
18
18
18
18
18
18
18
18
18
20
74
ENDCHAR
STARTCHAR iogonek
ENCODING 303
SWIDTH 210 0
DWIDTH 4 0
BBX 3 16 0 -2
BITMAP
18
18
00
00
18
18
18
18
18
18
18
18
18
18
20
64
ENDCHAR
STARTCHAR Idotaccent
ENCODING 304
SWIDTH 230 0
DWIDTH 5 0
BBX 2 16 1 0
BITMAP
60
60
00
60
60
60
60
60
60
60
60
60
60
60
60
60
ENDCHAR
STARTCHAR dotlessi
ENCODING 305
SWIDTH 212 0
DWIDTH 4 0
BBX 2 10 1 0
BITMAP
60
60
60
60
60
60
60
60
60
60
ENDCHAR
STARTCHAR IJ
ENCODING 306
SWIDTH 721 0
DWIDTH 14 0
BBX 12 13 1 0
BITMAP
200003
600003
600003
600003
600003
600003
600003
600003
609003
609003
609006
60600A
202FF8
ENDCHAR
STARTCHAR ij
ENCODING 307
SWIDTH 419 0
DWIDTH 8 0
BBX 6 17 1 -3
BITMAP
6060
6060
0000
0000
6060
6060
6060
6060
6060
6060
6060
6060
6060
6060
0060
0090
0B80
ENDCHAR
STARTCHAR Jcircumflex
ENCODING 308
SWIDTH 494 0
DWIDTH 10 0
BBX 10 17 0 0
BITMAP
000140
000680
000860
000000
000240
000240
000240
000240
000240
000240
000240
000240
200240
600240
700240
340700
1BF900
ENDCHAR
STARTCHAR jcircumflex
ENCODING 309
SWIDTH 209 0
DWIDTH 4 0
BBX 5 17 -1 -3
BITMAP
0A00
1940
1080
0000
0600
0600
0600
0600
0600
0600
0600
0600
0600
0600
0600
0D00
F400
ENDCHAR
STARTCHAR uni0136
ENCODING 310
SWIDTH 530 0
DWIDTH 11 0
BBX 9 18 1 -5
BITMAP
600340
600A00
601800
607000
60D000
628000
67C000
6CA000
743400
601C00
600A00
600340
600180
005000
009000
009000
008000
004000
ENDCHAR
STARTCHAR uni0137
ENCODING 311
SWIDTH 431 0
DWIDTH 9 0
BBX 7 19 1 -5
BITMAP
5000
A000
A000
A000
A018
A034
A090
A180
A340
A240
A0C0
A060
A024
500C
0000
0240
0240
0200
0100
ENDCHAR
STARTCHAR Lacute
ENCODING 313
SWIDTH 451 0
DWIDTH 9 0
BBX 8 17 1 0
BITMAP
0500
1800
2000
0000
6000
6000
6000
6000
6000
6000
6000
6000
6000
6000
6000
6000
7FFD
ENDCHAR
STARTCHAR lacute
ENCODING 314
SWIDTH 207 0
DWIDTH 4 0
BBX 3 18 1 0
BITMAP
04
18
34
10
60
60
60
60
60
60
60
60
60
60
60
60
60
60
ENDCHAR
STARTCHAR uni013B
ENCODING 315
SWIDTH 451 0
DWIDTH 9 0
BBX 8 18 1 -5
BITMAP
6000
6000
6000
6000
6000
6000
6000
6000
6000
6000
6000
6000
7FFD
0000
0180
0180
0140
0100
ENDCHAR
STARTCHAR uni013C
ENCODING 316
SWIDTH 211 0
DWIDTH 4 0
BBX 2 19 1 -5
BITMAP
60
60
60
60
60
60
60
60
60
60
60
60
60
60
00
60
60
50
40
ENDCHAR
STARTCHAR Lcaron
ENCODING 317
SWIDTH 451 0
DWIDTH 9 0
BBX 8 13 1 0
BITMAP
6024
6024
6020
6020
6010
6000
6000
6000
6000
6000
6000
6000
7FFD
ENDCHAR
STARTCHAR lcaron
ENCODING 318
SWIDTH 274 0
DWIDTH 5 0
BBX 4 14 1 0
BITMAP
63
63
63
62
61
60
60
60
60
60
60
60
60
60
ENDCHAR
STARTCHAR Ldot
ENCODING 319
SWIDTH 500 0
DWIDTH 10 0
BBX 8 13 1 0
BITMAP
6000
6000
6000
6000
6000
6060
6060
6060
6000
6000
6000
6000
7FFD
ENDCHAR
STARTCHAR ldot
ENCODING 320
SWIDTH 314 0
DWIDTH 6 0
BBX 5 14 1 0
BITMAP
6000
6000
6000
6000
6000
6000
6240
6240
6240
6000
6000
6000
6000
6000
ENDCHAR
STARTCHAR Lslash
ENCODING 321
SWIDTH 504 0
DWIDTH 10 0
BBX 9 13 0 0
BITMAP
080000
0C0000
0C0000
0D8000
1D0000
AC0000
0C0000
0C0000
0C0000
0C0000
0C0000
0C0000
0FFF80
ENDCHAR
STARTCHAR lslash
ENCODING 322
SWIDTH 296 0
DWIDTH 6 0
BBX 6 14 0 0
BITMAP
0900
0900
0900
0900
0A90
0B40
7900
4900
0900
0900
0900
0900
0900
0900
ENDCHAR
STARTCHAR Nacute
ENCODING 323
SWIDTH 579 0
DWIDTH 12 0
BBX 9 17 1 0
BITMAP
000400
002800
006000
000000
7000C0
7400C0
7C00C0
6A00C0
6340C0
6180C0
6090C0
6070C0
6024C0
600DC0
6006C0
6002C0
6001C0
ENDCHAR
STARTCHAR nacute
ENCODING 324
SWIDTH 507 0
DWIDTH 10 0
BBX 8 14 1 0
BITMAP
0034
0090
0040
0000
6BF8
B009
A006
A006
A006
A006
A006
A006
A006
5006
ENDCHAR
STARTCHAR uni0145
ENCODING 325
SWIDTH 579 0
DWIDTH 12 0
BBX 9 18 1 -5
BITMAP
7000C0
7400C0
7C00C0
6A00C0
6340C0
6180C0
6090C0
6070C0
6024C0
600DC0
6006C0
6002C0
6001C0
000000
009000
009000
008000
004000
ENDCHAR
STARTCHAR uni0146
ENCODING 326
SWIDTH 505 0
DWIDTH 10 0
BBX 8 15 1 -5
BITMAP
6BF8
B009
A006
A006
A006
A006
A006
A006
A006
5006
0000
0180
0180
0140
0100
ENDCHAR
STARTCHAR Ncaron
ENCODING 327
SWIDTH 579 0
DWIDTH 12 0
BBX 9 17 1 0
BITMAP
010400
026400
00A000
000000
7000C0
7400C0
7C00C0
6A00C0
6340C0
6180C0
6090C0
6070C0
6024C0
600DC0
6006C0
6002C0
6001C0
ENDCHAR
STARTCHAR ncaron
ENCODING 328
SWIDTH 507 0
DWIDTH 10 0
BBX 8 14 1 0
BITMAP
0920
0290
0180
0000
6BF8
B009
A006
A006
A006
A006
A006
A006
A006
5006
ENDCHAR
STARTCHAR Eng
ENCODING 330
SWIDTH 519 0
DWIDTH 10 0
BBX 9 16 1 -3
BITMAP
7000C0
7800C0
7C00C0
6600C0
6340C0
6180C0
6090C0
6070C0
6028C0
600DC0
6006C0
6002C0
6001C0
0000C0
000280
002E00
ENDCHAR
STARTCHAR eng
ENCODING 331
SWIDTH 507 0
DWIDTH 10 0
BBX 8 13 1 -3
BITMAP
6BF8
B009
A006
A006
A006
A006
A006
A006
A006
5006
0006
0009
00B8
ENDCHAR
STARTCHAR Omacron
ENCODING 332
SWIDTH 553 0
DWIDTH 11 0
BBX 9 16 1 0
BITMAP
0BF800
000000
000000
1FFD00
700340
600180
A00180
A00180
A00180
A00180
A00180
A00180
A00180
600180
700340
1FFD00
ENDCHAR
STARTCHAR omacron
ENCODING 333
SWIDTH 496 0
DWIDTH 10 0
BBX 8 13 1 0
BITMAP
1FF0
0000
0000
2FF4
6009
9006
9006
9006
9006
9006
9006
6009
2FF4
ENDCHAR
STARTCHAR Obreve
ENCODING 334
SWIDTH 553 0
DWIDTH 11 0
BBX 9 17 1 0
BITMAP
040400
051400
02A000
000000
1FFD00
700340
600180
A00180
A00180
A00180
A00180
A00180
A00180
A00180
600180
700340
1FFD00
ENDCHAR
STARTCHAR obreve
ENCODING 335
SWIDTH 496 0
DWIDTH 10 0
BBX 8 14 1 0
BITMAP
0820
0820
0690
0000
2FF4
6009
9006
9006
9006
9006
9006
9006
6009
2FF4
ENDCHAR
STARTCHAR Ohungarumlaut
ENCODING 336
SWIDTH 553 0
DWIDTH 11 0
BBX 9 17 1 0
BITMAP
008500
018800
021400
000000
1FFD00
700340
600180
A00180
A00180
A00180
A00180
A00180
A00180
A00180
600180
700340
1FFD00
ENDCHAR
STARTCHAR ohungarumlaut
ENCODING 337
SWIDTH 496 0
DWIDTH 10 0
BBX 8 14 1 0
BITMAP
018C
0214
0520
0000
2FF4
6009
9006
9006
9006
9006
9006
9006
6009
2FF4
ENDCHAR
STARTCHAR OE
ENCODING 338
SWIDTH 775 0
DWIDTH 16 0
BBX 13 13 1 0
BITMAP
1FFFFFC0
70090000
60090000
60090000
60090000
60090000
600BFF40
60090000
60090000
60090000
60090000
70090000
1FFFFFC0
ENDCHAR
STARTCHAR oe
ENCODING 339
SWIDTH 812 0
DWIDTH 16 0
BBX 14 10 1 0
BITMAP
2FF5BF80
600B40A0
90060030
90060030
90060030
9007FFF0
90060000
90060000
600B0000
2FF5BFE0
ENDCHAR
STARTCHAR Racute
ENCODING 340
SWIDTH 534 0
DWIDTH 11 0
BBX 9 17 1 0
BITMAP
001000
00A000
018000
000000
7FF900
600700
600240
600240
600240
600240
600700
7FF800
602400
601C00
600900
600700
600240
ENDCHAR
STARTCHAR racute
ENCODING 341
SWIDTH 313 0
DWIDTH 6 0
BBX 5 14 1 0
BITMAP
0700
0900
1400
0000
6B80
B400
A000
A000
A000
A000
A000
A000
A000
5000
ENDCHAR
STARTCHAR uni0156
ENCODING 342
SWIDTH 534 0
DWIDTH 11 0
BBX 9 18 1 -5
BITMAP
7FF900
600700
600240
600240
600240
600240
600700
7FF800
602400
601C00
600900
600700
600240
000000
00C000
018000
018000
014000
ENDCHAR
STARTCHAR uni0157
ENCODING 343
SWIDTH 313 0
DWIDTH 6 0
BBX 5 15 1 -5
BITMAP
6B80
B400
A000
A000
A000
A000
A000
A000
A000
5000
0000
6000
9000
9000
4000
ENDCHAR
STARTCHAR Rcaron
ENCODING 344
SWIDTH 534 0
DWIDTH 11 0
BBX 9 17 1 0
BITMAP
041000
055000
028000
000000
7FF900
600700
600240
600240
600240
600240
600700
7FF800
602400
601C00
600900
600700
600240
ENDCHAR
STARTCHAR rcaron
ENCODING 345
SWIDTH 313 0
DWIDTH 6 0
BBX 5 14 1 0
BITMAP
6240
2600
0800
0000
6B80
B400
A000
A000
A000
A000
A000
A000
A000
5000
ENDCHAR
STARTCHAR Sacute
ENCODING 346
SWIDTH 562 0
DWIDTH 11 0
BBX 9 17 1 0
BITMAP
001400
003000
009000
000000
1BFD00
340340
600180
600140
600000
290000
06E800
001B00
000280
500180
600180
340240
1BFD00
ENDCHAR
STARTCHAR sacute
ENCODING 347
SWIDTH 427 0
DWIDTH 9 0
BBX 7 14 1 0
BITMAP
01C0
0340
0500
0000
6FF0
D000
C000
A000
1E40
01A0
0024
0028
0024
BFE0
ENDCHAR
STARTCHAR Scircumflex
ENCODING 348
SWIDTH 562 0
DWIDTH 11 0
BBX 9 17 1 0
BITMAP
004000
016000
022400
000000
1BFD00
340340
600180
600140
600000
290000
06E800
001B00
000280
500180
600180
340240
1BFD00
ENDCHAR
STARTCHAR scircumflex
ENCODING 349
SWIDTH 427 0
DWIDTH 9 0
BBX 7 14 1 0
BITMAP
0A00
0980
1480
0000
6FF0
D000
C000
A000
1E40
01A0
0024
0028
0024
BFE0
ENDCHAR
STARTCHAR uni015E
ENCODING 350
SWIDTH 562 0
DWIDTH 11 0
BBX 9 17 1 -4
BITMAP
1BFD00
340340
600180
600140
600000
290000
06E800
001B00
000280
500180
600180
340240
1BFD00
008000
01E000
002400
00E000
ENDCHAR
STARTCHAR uni015F
ENCODING 351
SWIDTH 427 0
DWIDTH 9 0
BBX 7 14 1 -4
BITMAP
6FF0
D000
C000
A000
1E40
01A0
0024
0028
0024
BFE0
0600
0B40
0080
0740
ENDCHAR
STARTCHAR Scaron
ENCODING 352
SWIDTH 562 0
DWIDTH 11 0
BBX 9 17 1 0
BITMAP
011400
022000
019000
000000
1BFD00
340340
600180
600140
600000
290000
06E800
001B00
000280
500180
600180
340240
1BFD00
ENDCHAR
STARTCHAR scaron
ENCODING 353
SWIDTH 427 0
DWIDTH 9 0
BBX 7 14 1 0
BITMAP
1480
0940
0600
0000
6FF0
D000
C000
A000
1E40
01A0
0024
0028
0024
BFE0
ENDCHAR
STARTCHAR uni0162
ENCODING 354
SWIDTH 420 0
DWIDTH 8 0
BBX 8 17 0 -4
BITMAP
BFFF
0180
0180
0180
0180
0180
0180
0180
0180
0180
0180
0180
0180
0040
0180
0180
0140
ENDCHAR
STARTCHAR uni0163
ENCODING 355
SWIDTH 347 0
DWIDTH 7 0
BBX 6 17 0 -5
BITMAP
0C00
0C00
7FE0
0C00
0C00
0C00
0C00
0C00
0C00
0900
0A00
02F0
0140
0180
0180
0140
0100
ENDCHAR
STARTCHAR Tcaron
ENCODING 356
SWIDTH 420 0
DWIDTH 8 0
BBX 8 17 0 0
BITMAP
0410
0660
0280
0000
BFFF
0180
0180
0180
0180
0180
0180
0180
0180
0180
0180
0180
0180
ENDCHAR
STARTCHAR tcaron
ENCODING 357
SWIDTH 396 0
DWIDTH 8 0
BBX 8 13 0 0
BITMAP
0406
0C06
0C06
7FE5
0C04
0C00
0C00
0C00
0C00
0C00
0900
0A00
02F0
ENDCHAR
STARTCHAR Tbar
ENCODING 358
SWIDTH 501 0
DWIDTH 10 0
BBX 8 13 0 0
BITMAP
7FFF
0180
0180
0180
0180
0180
1FFD
0180
0180
0180
0180
0180
0180
ENDCHAR
STARTCHAR tbar
ENCODING 359
SWIDTH 350 0
DWIDTH 7 0
BBX 6 12 0 0
BITMAP
0800
0D00
7FE0
0C00
0C00
0C00
7FE0
0C00
0C00
0900
0A00
02F0
ENDCHAR
STARTCHAR Utilde
ENCODING 360
SWIDTH 552 0
DWIDTH 11 0
BBX 9 17 1 0
BITMAP
087400
088800
074800
000000
600240
600240
600240
600240
600240
600240
600240
600240
600240
600240
600240
300300
1FFD00
ENDCHAR
STARTCHAR utilde
ENCODING 361
SWIDTH 507 0
DWIDTH 10 0
BBX 8 14 1 0
BITMAP
04E0
0960
0A10
0000
9006
9006
9006
9006
9006
9006
9006
9006
600A
1FEA
ENDCHAR
STARTCHAR Umacron
ENCODING 362
SWIDTH 552 0
DWIDTH 11 0
BBX 9 16 1 0
BITMAP
0BF800
000000
000000
600240
600240
600240
600240
600240
600240
600240
600240
600240
600240
600240
300300
1FFD00
ENDCHAR
STARTCHAR umacron
ENCODING 363
SWIDTH 507 0
DWIDTH 10 0
BBX 8 13 1 0
BITMAP
0FF4
0000
0000
9006
9006
9006
9006
9006
9006
9006
9006
600A
1FEA
ENDCHAR
STARTCHAR Ubreve
ENCODING 364
SWIDTH 552 0
DWIDTH 11 0
BBX 9 17 1 0
BITMAP
040400
051400
02A000
000000
600240
600240
600240
600240
600240
600240
600240
600240
600240
600240
600240
300300
1FFD00
ENDCHAR
STARTCHAR ubreve
ENCODING 365
SWIDTH 507 0
DWIDTH 10 0
BBX 8 14 1 0
BITMAP
0820
0820
0690
0000
9006
9006
9006
9006
9006
9006
9006
9006
600A
1FEA
ENDCHAR
STARTCHAR Uring
ENCODING 366
SWIDTH 552 0
DWIDTH 11 0
BBX 9 17 1 0
BITMAP
02E000
022000
022000
02E000
600240
600240
600240
600240
600240
600240
600240
600240
600240
600240
600240
300300
1FFD00
ENDCHAR
STARTCHAR uring
ENCODING 367
SWIDTH 507 0
DWIDTH 10 0
BBX 8 15 1 0
BITMAP
0B80
0850
0850
0B80
0000
9006
9006
9006
9006
9006
9006
9006
9006
600A
1FEA
ENDCHAR
STARTCHAR Uhungarumlaut
ENCODING 368
SWIDTH 552 0
DWIDTH 11 0
BBX 9 17 1 0
BITMAP
008500
014800
021400
000000
600240
600240
600240
600240
600240
600240
600240
600240
600240
600240
600240
300300
1FFD00
ENDCHAR
STARTCHAR uhungarumlaut
ENCODING 369
SWIDTH 507 0
DWIDTH 10 0
BBX 8 14 1 0
BITMAP
018C
0214
0520
0000
9006
9006
9006
9006
9006
9006
9006
9006
600A
1FEA
ENDCHAR
STARTCHAR Uogonek
ENCODING 370
SWIDTH 552 0
DWIDTH 11 0
BBX 9 15 1 -2
BITMAP
600240
600240
600240
600240
600240
600240
600240
600240
600240
600240
600240
300300
1FFD00
008000
01D000
ENDCHAR
STARTCHAR uogonek
ENCODING 371
SWIDTH 503 0
DWIDTH 10 0
BBX 8 12 1 -2
BITMAP
9006
9006
9006
9006
9006
9006
9006
9006
600A
1FEA
0008
0028
ENDCHAR
STARTCHAR Wcircumflex
ENCODING 372
SWIDTH 795 0
DWIDTH 16 0
BBX 15 17 0 0
BITMAP
00014000
00068000
00086000
00000000
6002800C
3003C00C
34069018
24095028
180C6024
1C0C3030
0C182470
09241460
09301890
06200C90
036009C0
03900680
02C00380
ENDCHAR
STARTCHAR wcircumflex
ENCODING 373
SWIDTH 682 0
DWIDTH 14 0
BBX 13 14 0 0
BITMAP
000A0000
00264000
00204000
00000000
600900C0
700E01C0
301B0180
24264240
18318300
0C608600
09508900
05909C00
02C06800
03803400
ENDCHAR
STARTCHAR Ycircumflex
ENCODING 374
SWIDTH 493 0
DWIDTH 10 0
BBX 10 17 0 0
BITMAP
005000
01A000
021800
000000
6000D0
340180
180340
0D0600
060D00
035800
01A400
00E000
009000
009000
009000
009000
009000
ENDCHAR
STARTCHAR ycircumflex
ENCODING 375
SWIDTH 459 0
DWIDTH 9 0
BBX 9 17 0 -3
BITMAP
00A000
026000
021400
000000
600180
300340
240700
180900
0C0C00
091800
062400
037000
02A000
00D000
00C000
028000
3E0000
ENDCHAR
STARTCHAR Ydieresis
ENCODING 376
SWIDTH 493 0
DWIDTH 10 0
BBX 10 17 0 0
BITMAP
020800
060C00
060C00
000000
6000D0
340180
180340
0D0600
060D00
035800
01A400
00E000
009000
009000
009000
009000
009000
ENDCHAR
STARTCHAR Zacute
ENCODING 377
SWIDTH 482 0
DWIDTH 10 0
BBX 8 17 1 0
BITMAP
0010
0060
0080
0000
BFFE
000D
0028
0034
00A0
01C0
0340
0600
0D00
2800
7000
9000
FFFE
ENDCHAR
STARTCHAR zacute
ENCODING 378
SWIDTH 405 0
DWIDTH 8 0
BBX 8 14 0 0
BITMAP
0024
0060
0080
0000
3FFD
001C
0034
00A0
01C0
0340
0A00
1C00
2400
7FFD
ENDCHAR
STARTCHAR Zdotaccent
ENCODING 379
SWIDTH 482 0
DWIDTH 10 0
BBX 8 16 1 0
BITMAP
0180
0180
0000
BFFE
000D
0028
0034
00A0
01C0
0340
0600
0D00
2800
7000
9000
FFFE
ENDCHAR
STARTCHAR zdotaccent
ENCODING 380
SWIDTH 405 0
DWIDTH 8 0
BBX 8 14 0 0
BITMAP
00C0
00C0
0000
0000
3FFD
001C
0034
00A0
01C0
0340
0A00
1C00
2400
7FFD
ENDCHAR
STARTCHAR Zcaron
ENCODING 381
SWIDTH 482 0
DWIDTH 10 0
BBX 8 17 1 0
BITMAP
0410
0660
0280
0000
BFFE
000D
0028
0034
00A0
01C0
0340
0600
0D00
2800
7000
9000
FFFE
ENDCHAR
STARTCHAR zcaron
ENCODING 382
SWIDTH 405 0
DWIDTH 8 0
BBX 8 14 0 0
BITMAP
0624
0260
0080
0000
3FFD
001C
0034
00A0
01C0
0340
0A00
1C00
2400
7FFD
ENDCHAR
STARTCHAR florin
ENCODING 402
SWIDTH 494 0
DWIDTH 10 0
BBX 10 17 0 -3
BITMAP
0002D0
000D00
001800
002400
002400
003000
07FF40
006000
009000
009000
00C000
018000
018000
024000
030000
060000
B80000
ENDCHAR
STARTCHAR AEacute
ENCODING 508
SWIDTH 773 0
DWIDTH 15 0
BBX 14 17 0 0
BITMAP
00001400
00003000
00009000
00000000
0007FFF0
000E8000
00198000
00358000
00618000
00D18000
0281FFD0
03418000
0A018000
1FFF8000
28018000
70018000
9001FFF0
ENDCHAR
STARTCHAR aeacute
ENCODING 509
SWIDTH 795 0
DWIDTH 16 0
BBX 14 14 1 0
BITMAP
0000D000
00024000
00010000
00000000
2FF5FF40
000F0090
000A0060
000A0060
2FFE0060
600BFFE0
900A0000
900A0000
600B0000
2FE5FFE0
ENDCHAR
STARTCHAR Oslashacute
ENCODING 510
SWIDTH 558 0
DWIDTH 11 0
BBX 9 17 1 0
BITMAP
001400
003000
009000
000000
1FFD80
300380
600380
600A80
601580
606180
608180
624180
660180
680180
740180
700240
9FFD00
ENDCHAR
STARTCHAR oslashacute
ENCODING 511
SWIDTH 521 0
DWIDTH 10 0
BBX 10 14 0 0
BITMAP
000D00
001800
002000
000000
07FE10
0C02D0
1802C0
1809C0
1824C0
1890C0
1A40C0
1D0180
2C0280
57FE00
ENDCHAR
STARTCHAR uni0218
ENCODING 536
SWIDTH 562 0
DWIDTH 11 0
BBX 9 18 1 -5
BITMAP
1BFD00
340340
600180
600140
600000
290000
06E800
001B00
000280
500180
600180
340240
1BFD00
000000
009000
009000
008000
004000
ENDCHAR
STARTCHAR uni0219
ENCODING 537
SWIDTH 427 0
DWIDTH 9 0
BBX 7 15 1 -5
BITMAP
6FF0
D000
C000
A000
1E40
01A0
0024
0028
0024
BFE0
0100
0300
0300
0200
0100
ENDCHAR
STARTCHAR circumflex
ENCODING 710
SWIDTH 326 0
DWIDTH 7 0
BBX 4 3 1 11
BITMAP
28
66
41
ENDCHAR
STARTCHAR caron
ENCODING 711
SWIDTH 326 0
DWIDTH 7 0
BBX 4 3 1 11
BITMAP
52
29
14
ENDCHAR
STARTCHAR uni02C9
ENCODING 713
SWIDTH 358 0
DWIDTH 7 0
BBX 5 1 1 12
BITMAP
BF80
ENDCHAR
STARTCHAR breve
ENCODING 728
SWIDTH 332 0
DWIDTH 7 0
BBX 5 3 1 11
BITMAP
8140
9200
2900
ENDCHAR
STARTCHAR dotaccent
ENCODING 729
SWIDTH 183 0
DWIDTH 4 0
BBX 2 2 1 12
BITMAP
90
90
ENDCHAR
STARTCHAR ring
ENCODING 730
SWIDTH 297 0
DWIDTH 6 0
BBX 4 4 1 11
BITMAP
B8
85
85
B8
ENDCHAR
STARTCHAR ogonek
ENCODING 731
SWIDTH 243 0
DWIDTH 5 0
BBX 3 3 1 -2
BITMAP
10
50
64
ENDCHAR
STARTCHAR tilde
ENCODING 732
SWIDTH 369 0
DWIDTH 7 0
BBX 5 3 1 11
BITMAP
8740
8880
7480
ENDCHAR
STARTCHAR hungarumlaut
ENCODING 733
SWIDTH 377 0
DWIDTH 8 0
BBX 5 3 1 11
BITMAP
28C0
2240
5200
ENDCHAR
STARTCHAR Mu
ENCODING 924
SWIDTH 527 0
DWIDTH 11 0
BBX 8 14 1 -3
BITMAP
5001
6003
6003
6003
6003
6003
6003
6003
6007
740B
6BE6
6000
6000
1000
ENDCHAR
STARTCHAR Pi
ENCODING 928
SWIDTH 605 0
DWIDTH 12 0
BBX 11 14 1 -1
BITMAP
FFFFF4
0C0340
0C0340
0C0340
0C0340
0C0340
0C0340
0C0340
0C0340
0C0340
0C0340
0C0340
0C0340
040100
ENDCHAR
STARTCHAR Sigma
ENCODING 931
SWIDTH 481 0
DWIDTH 10 0
BBX 8 13 1 0
BITMAP
BFFD
6000
2400
1C00
0A00
0340
0180
0340
0A00
1C00
2400
6000
BFFD
ENDCHAR
STARTCHAR uni0901
ENCODING 2305
SWIDTH 0 0
DWIDTH 0 0
BBX 7 4 -6 14
BITMAP
0200
500C
6018
1FE0
ENDCHAR
STARTCHAR uni0902
ENCODING 2306
SWIDTH 0 0
DWIDTH 0 0
BBX 1 1 -3 15
BITMAP
80
ENDCHAR
STARTCHAR uni0903
ENCODING 2307
SWIDTH 247 0
DWIDTH 5 0
BBX 1 7 2 2
BITMAP
80
00
00
00
00
00
80
ENDCHAR
STARTCHAR uni0905
ENCODING 2309
SWIDTH 598 0
DWIDTH 12 0
BBX 12 13 0 0
BITMAP
1F902F
007030
002430
002430
007030
0FD030
006030
002FF0
002430
002430
007030
7F9030
000020
ENDCHAR
STARTCHAR uni0906
ENCODING 2310
SWIDTH 828 0
DWIDTH 17 0
BBX 17 13 0 0
BITMAP
1F902FFF80
0070301800
0024301800
0024301800
0070301800
0FD0301800
0060301800
002FF01800
0024301800
0024301800
0070301800
7F90301800
0000201800
ENDCHAR
STARTCHAR uni0907
ENCODING 2311
SWIDTH 478 0
DWIDTH 10 0
BBX 11 14 -1 -1
BITMAP
7FFFF8
000180
000180
02FF80
060000
090000
060000
02FF40
0000C0
000090
090090
0A00C0
0ABF40
090000
ENDCHAR
STARTCHAR uni0908
ENCODING 2312
SWIDTH 478 0
DWIDTH 10 0
BBX 11 19 -1 -1
BITMAP
0002F0
000900
000C00
000C00
000800
7FFFF8
000180
000180
02FF80
060000
090000
060000
02FF40
0000C0
000090
090090
0A00C0
0ABF40
090000
ENDCHAR
STARTCHAR uni0909
ENCODING 2313
SWIDTH 471 0
DWIDTH 9 0
BBX 11 13 -1 0
BITMAP
7FFFF8
000280
0000C0
0000C0
0000C0
000280
007F00
000180
0400C0
0C00C0
0C00C0
0A0180
02FE00
ENDCHAR
STARTCHAR uni090A
ENCODING 2314
SWIDTH 661 0
DWIDTH 13 0
BBX 15 13 -1 0
BITMAP
7FFFFFF4
00028000
0000C000
0000C000
0000C000
00024000
007FFF40
0001C0D0
0800C050
0C00C060
0C00C050
0A0180D0
02FE0B40
ENDCHAR
STARTCHAR uni090B
ENCODING 2315
SWIDTH 753 0
DWIDTH 15 0
BBX 17 13 -1 0
BITMAP
7FFFFFFF40
0000C00000
0000C00000
0000C00000
02FDC07800
0602C29800
0900CA1800
0900F41800
0401D1B400
0007C34000
0028C30000
01D0C34000
064081B800
ENDCHAR
STARTCHAR uni090C
ENCODING 2316
SWIDTH 676 0
DWIDTH 14 0
BBX 15 17 -1 -4
BITMAP
7FFFFFF8
00000180
00000180
00000180
01F8BA80
06074280
09030180
09030180
09020180
09000180
06000180
01B40180
00000B80
00002400
00003000
00002418
00000BE0
ENDCHAR
STARTCHAR uni090D
ENCODING 2317
SWIDTH 521 0
DWIDTH 10 0
BBX 12 17 -1 1
BITMAP
024060
018090
00BF80
000000
000000
7FFFFE
020030
020030
020030
020030
020060
020B90
020000
020000
030000
024000
00BFD0
ENDCHAR
STARTCHAR uni090E
ENCODING 2318
SWIDTH 522 0
DWIDTH 10 0
BBX 12 17 -1 1
BITMAP
003000
002400
000A00
0001D0
000030
7FFFFE
020030
020030
020030
020030
020060
020B90
020000
020000
030000
024000
00BFD0
ENDCHAR
STARTCHAR uni090F
ENCODING 2319
SWIDTH 526 0
DWIDTH 11 0
BBX 12 12 -1 1
BITMAP
7FFFFE
020030
020030
020030
020030
020060
020B90
020000
020000
030000
024000
00BFD0
ENDCHAR
STARTCHAR uni0910
ENCODING 2320
SWIDTH 526 0
DWIDTH 11 0
BBX 12 17 -1 1
BITMAP
000C00
000600
000240
000080
000060
7FFFFE
020030
020030
020030
020030
020060
020B90
020000
020000
030000
024000
00BFD0
ENDCHAR
STARTCHAR uni0911
ENCODING 2321
SWIDTH 829 0
DWIDTH 17 0
BBX 17 17 0 0
BITMAP
0000300800
0000240C00
00001BE400
0000000000
1F902FFF80
0070301800
0024301800
0024301800
0070301800
0FD0301800
0060301800
002FF01800
0024301800
0024301800
0070301800
7F90301800
0000200800
ENDCHAR
STARTCHAR uni0912
ENCODING 2322
SWIDTH 828 0
DWIDTH 17 0
BBX 17 18 0 0
BITMAP
0000180000
00001C0000
0000074000
000000B400
0000001800
1F902FFF80
0070301800
0024301800
0024301800
0070301800
0FD0301800
0060301800
002FF01800
0024301800
0024301800
0070301800
7F90301800
0000201800
ENDCHAR
STARTCHAR uni0913
ENCODING 2323
SWIDTH 829 0
DWIDTH 17 0
BBX 17 18 0 0
BITMAP
0000060000
0000024000
000000C000
0000006000
0000002400
1F902FFF80
0070301800
0024301800
0024301800
0070301800
0FD0301800
0060301800
002FF01800
0024301800
0024301800
0070301800
7F90301800
0000200800
ENDCHAR
STARTCHAR uni0914
ENCODING 2324
SWIDTH 829 0
DWIDTH 17 0
BBX 17 18 0 0
BITMAP
00000A0800
0000035800
0000019800
000000A800
0000002800
1F902FFF80
0070301800
0024301800
0024301800
0070301800
0FD0301800
0060301800
002FF01800
0024301800
0024301800
0070301800
7F90301800
0000200800
ENDCHAR
STARTCHAR uni0915
ENCODING 2325
SWIDTH 725 0
DWIDTH 15 0
BBX 16 13 -1 0
BITMAP
7FFFFFFE
00018000
00018000
02F5AF90
0601D070
09018024
09018024
09018024
09018024
06028070
02F98B90
00018000
00008000
ENDCHAR
STARTCHAR uni0916
ENCODING 2326
SWIDTH 696 0
DWIDTH 14 0
BBX 15 13 -1 0
BITMAP
7FFFFFFC
003000C0
003000C0
003078C0
003180C0
007240C0
1F9240C0
0D0240C0
060181C0
02807DC0
00D000C0
006000C0
00240080
ENDCHAR
STARTCHAR uni0917
ENCODING 2327
SWIDTH 494 0
DWIDTH 10 0
BBX 11 13 -1 0
BITMAP
7FFFFC
0180C0
0180C0
0180C0
0180C0
0180C0
0240C0
2E00C0
0000C0
0000C0
0000C0
0000C0
000080
ENDCHAR
STARTCHAR uni0918
ENCODING 2328
SWIDTH 559 0
DWIDTH 11 0
BBX 13 13 -1 0
BITMAP
7FFFFF40
06002400
09002400
09002400
06002400
02F42400
06002400
09002400
09002400
06007400
01FFA400
00002400
00002400
ENDCHAR
STARTCHAR uni0919
ENCODING 2329
SWIDTH 505 0
DWIDTH 10 0
BBX 12 13 -1 0
BITMAP
7FFFFD
000180
000180
02FF80
060000
050014
060000
02FF40
0000C0
000090
090090
0600C0
02FE40
ENDCHAR
STARTCHAR uni091A
ENCODING 2330
SWIDTH 563 0
DWIDTH 11 0
BBX 13 13 -1 0
BITMAP
7FFFFF40
00002400
00002400
00002400
1FFD2400
01802400
02002400
03002400
02002400
02807400
00BFA400
00002400
00001400
ENDCHAR
STARTCHAR uni091B
ENCODING 2331
SWIDTH 581 0
DWIDTH 12 0
BBX 13 12 -1 1
BITMAP
7FFFFF80
06001800
06001800
06001800
0601F400
07001C00
02F00800
06000800
06000800
06000C00
06001800
01FFE000
ENDCHAR
STARTCHAR uni091C
ENCODING 2332
SWIDTH 547 0
DWIDTH 11 0
BBX 12 13 -1 0
BITMAP
7FFFFF
000030
000030
000030
07FFF0
002430
001830
001830
001830
001430
003430
1FD030
000020
ENDCHAR
STARTCHAR uni091D
ENCODING 2333
SWIDTH 664 0
DWIDTH 13 0
BBX 15 14 -1 -1
BITMAP
7FFFFFF4
00030240
00030240
02FF0240
06000240
09000240
06000240
02FFFF40
00024240
09018240
0A024240
0AFE0240
09000240
09000000
ENDCHAR
STARTCHAR uni091E
ENCODING 2334
SWIDTH 592 0
DWIDTH 12 0
BBX 13 13 -1 0
BITMAP
7FFFFFC0
00000C00
00000C00
0BE00C00
00240C00
00080C00
00080C00
000FFC00
00080C00
00280C00
0FE00C00
00000C00
00000800
ENDCHAR
STARTCHAR uni091F
ENCODING 2335
SWIDTH 485 0
DWIDTH 10 0
BBX 11 12 -1 1
BITMAP
7FFFF8
000180
000180
000180
01FF40
060000
090000
090000
090060
090060
060090
01BF40
ENDCHAR
STARTCHAR uni0920
ENCODING 2336
SWIDTH 512 0
DWIDTH 10 0
BBX 12 12 -1 1
BITMAP
7FFFFD
0000C0
000080
000180
01FF40
060090
090060
090060
090060
090060
060090
01FF40
ENDCHAR
STARTCHAR uni0921
ENCODING 2337
SWIDTH 475 0
DWIDTH 10 0
BBX 11 13 -1 0
BITMAP
7FFFF8
000180
000180
02FF80
060000
050000
060000
02FF40
0000C0
000090
090090
0601C0
02FE40
ENDCHAR
STARTCHAR uni0922
ENCODING 2338
SWIDTH 485 0
DWIDTH 10 0
BBX 11 12 -1 1
BITMAP
7FFFFC
000180
000180
000180
01FF80
060000
090000
090B90
090860
090460
0600A0
01BF80
ENDCHAR
STARTCHAR uni0923
ENCODING 2339
SWIDTH 681 0
DWIDTH 14 0
BBX 15 13 -1 0
BITMAP
7FFFFFF8
06024080
06024080
06024080
06024080
06024080
06024080
03030080
01B90080
00000080
00000080
00000080
00000080
ENDCHAR
STARTCHAR uni0924
ENCODING 2340
SWIDTH 496 0
DWIDTH 10 0
BBX 11 13 -1 0
BITMAP
7FFFFC
0000C0
0000C0
0000C0
02FFC0
0600C0
0900C0
0900C0
0900C0
0900C0
0900C0
0600C0
01E080
ENDCHAR
STARTCHAR uni0925
ENCODING 2341
SWIDTH 593 0
DWIDTH 12 0
BBX 11 13 1 0
BITMAP
1F80FC
3090C0
6060C0
1060C0
0090C0
BF80C0
9000C0
9000C0
9000C0
7402C0
1BFDC0
0000C0
000080
ENDCHAR
STARTCHAR uni0926
ENCODING 2342
SWIDTH 489 0
DWIDTH 10 0
BBX 11 13 -1 0
BITMAP
7FFFFC
0000C0
0000C0
01FFC0
060000
090000
090000
090000
090090
0600D0
01BE90
000090
000090
ENDCHAR
STARTCHAR uni0927
ENCODING 2343
SWIDTH 560 0
DWIDTH 11 0
BBX 13 13 -1 0
BITMAP
7FE1FF40
06002400
09002400
09002400
06002400
02F42400
06002400
09002400
09002400
05002400
07007400
01BFA400
00001400
ENDCHAR
STARTCHAR uni0928
ENCODING 2344
SWIDTH 473 0
DWIDTH 9 0
BBX 11 13 -1 0
BITMAP
7FFFF8
000180
000180
000180
000180
07FF80
0C0180
0C0180
080180
000180
000180
000180
000180
ENDCHAR
STARTCHAR uni0928093C
ENCODING 2345
SWIDTH 473 0
DWIDTH 9 0
BBX 11 13 -1 0
BITMAP
7FFFF8
000180
000180
000180
000180
07FF80
0C0180
0C0180
080180
000180
000180
000180
008040
ENDCHAR
STARTCHAR uni092A
ENCODING 2346
SWIDTH 503 0
DWIDTH 10 0
BBX 12 13 -1 0
BITMAP
7FFFFD
060090
060090
060090
060090
060090
060090
0341D0
01BE90
000090
000090
000090
000090
ENDCHAR
STARTCHAR uni092B
ENCODING 2347
SWIDTH 739 0
DWIDTH 15 0
BBX 16 13 -1 0
BITMAP
7FFFFFFF
0600C000
0600C000
0600DF90
0600E034
0600C014
0600C018
0342C018
01BDC014
0000C034
0000C790
0000C000
00008000
ENDCHAR
STARTCHAR uni092C
ENCODING 2348
SWIDTH 491 0
DWIDTH 10 0
BBX 11 13 -1 0
BITMAP
7FFFFC
0000C0
0000C0
01F4C0
0700C0
0A80C0
0960C0
0918C0
0902C0
0602C0
01FDC0
0000C0
000080
ENDCHAR
STARTCHAR uni092D
ENCODING 2349
SWIDTH 491 0
DWIDTH 10 0
BBX 11 13 -1 0
BITMAP
780FFC
0900C0
0600C0
0600C0
0600C0
0600C0
07FFC0
0600C0
0600C0
0100C0
0000C0
0000C0
000080
ENDCHAR
STARTCHAR uni092E
ENCODING 2350
SWIDTH 490 0
DWIDTH 10 0
BBX 11 13 -1 0
BITMAP
7FFFFC
0600C0
0600C0
0600C0
0600C0
0600C0
07FFC0
0600C0
0600C0
0000C0
0000C0
0000C0
000080
ENDCHAR
STARTCHAR uni092F
ENCODING 2351
SWIDTH 564 0
DWIDTH 11 0
BBX 13 13 -1 0
BITMAP
7FFFFF40
00202400
00242400
00242400
00302400
0B902400
09002400
09002400
09002400
07407400
01BFA400
00002400
00001400
ENDCHAR
STARTCHAR uni0930
ENCODING 2352
SWIDTH 337 0
DWIDTH 7 0
BBX 8 13 -1 0
BITMAP
7FFF
0030
0030
0030
0030
0070
1F90
0D00
0600
0240
00C0
0060
0024
ENDCHAR
STARTCHAR uni0930093C
ENCODING 2353
SWIDTH 347 0
DWIDTH 7 0
BBX 8 14 -1 -1
BITMAP
7FFF
0024
0024
0024
0024
0030
0F90
0900
0700
0280
00C0
0060
0024
2404
ENDCHAR
STARTCHAR uni0932
ENCODING 2354
SWIDTH 676 0
DWIDTH 14 0
BBX 15 13 -1 0
BITMAP
7FFFFFF8
00000180
00000180
00000180
01F8BA80
06074280
09030180
09030180
09020180
09000180
06000180
01B40180
00000180
ENDCHAR
STARTCHAR uni0933
ENCODING 2355
SWIDTH 672 0
DWIDTH 13 0
BBX 15 12 -1 1
BITMAP
7FFFFFF8
00001800
00001800
00001800
01F8BE00
06078180
090340C0
090200C0
090200C0
090340C0
06078180
01F8BE00
ENDCHAR
STARTCHAR uni0933093C
ENCODING 2356
SWIDTH 672 0
DWIDTH 13 0
BBX 15 14 -1 -1
BITMAP
7FFFFFF8
00001800
00001800
00001800
01F8BE00
06078180
090340C0
090200C0
090200C0
090340C0
06078180
01F8BE00
00000000
00600000
ENDCHAR
STARTCHAR uni0935
ENCODING 2357
SWIDTH 484 0
DWIDTH 10 0
BBX 11 13 -1 0
BITMAP
7FFFF8
0000C0
0000C0
01F4C0
0600C0
0900C0
0900C0
0900C0
0900C0
0602C0
01FDC0
0000C0
000080
ENDCHAR
STARTCHAR uni0936
ENCODING 2358
SWIDTH 614 0
DWIDTH 12 0
BBX 12 13 1 0
BITMAP
2F807D
60A090
906090
506090
006090
009090
FF8090
900090
300090
180090
090090
070090
024050
ENDCHAR
STARTCHAR uni0937
ENCODING 2359
SWIDTH 505 0
DWIDTH 10 0
BBX 12 13 -1 0
BITMAP
7FFFFD
070090
068090
062090
061890
060690
0601D0
0341D0
01BE90
000090
000090
000090
000090
ENDCHAR
STARTCHAR uni0938
ENCODING 2360
SWIDTH 575 0
DWIDTH 12 0
BBX 13 13 -1 0
BITMAP
7FFFFF80
00601800
00601800
00601800
00601800
00901800
1FFFF800
0D001800
06001800
02401800
01801800
00901800
00201800
ENDCHAR
STARTCHAR uni0939
ENCODING 2361
SWIDTH 481 0
DWIDTH 10 0
BBX 11 14 -1 -1
BITMAP
7FFFF8
0000C0
0000C0
01FF80
060000
060000
060000
02FE40
0301C0
060080
090040
060000
034000
01BF80
ENDCHAR
STARTCHAR uni093C
ENCODING 2364
SWIDTH 0 0
DWIDTH 0 0
BBX 1 1 -3 -2
BITMAP
80
ENDCHAR
STARTCHAR uni093D
ENCODING 2365
SWIDTH 529 0
DWIDTH 11 0
BBX 7 13 2 0
BITMAP
2FF0
6000
5000
6000
3400
1E40
01E0
0028
0018
000C
8018
A028
1BE0
ENDCHAR
STARTCHAR uni093E
ENCODING 2366
SWIDTH 231 0
DWIDTH 5 0
BBX 6 13 -1 0
BITMAP
7FE0
0200
0200
0200
0200
0200
0200
0200
0200
0200
0200
0200
0200
ENDCHAR
STARTCHAR uni093F
ENCODING 2367
SWIDTH 231 0
DWIDTH 5 0
BBX 14 18 -1 0
BITMAP
01BFFF80
03400090
02000050
02000050
06000000
7FE00000
02000000
02000000
02000000
02000000
02000000
02000000
02000000
02000000
02000000
02000000
02000000
02000000
ENDCHAR
STARTCHAR uni0940
ENCODING 2368
SWIDTH 231 0
DWIDTH 5 0
BBX 8 18 -3 0
BITMAP
2F80
90A0
8060
8020
0060
07FE
0020
0020
0020
0020
0020
0020
0020
0020
0020
0020
0020
0020
ENDCHAR
STARTCHAR uni0941
ENCODING 2369
SWIDTH 0 0
DWIDTH 0 0
BBX 8 5 -7 -5
BITMAP
00A8
8005
6006
2409
0BF8
ENDCHAR
STARTCHAR uni0942
ENCODING 2370
SWIDTH 0 0
DWIDTH 0 0
BBX 8 5 -6 -5
BITMAP
1FE0
3028
6009
3006
1F02
ENDCHAR
STARTCHAR uni0943
ENCODING 2371
SWIDTH 0 0
DWIDTH 0 0
BBX 7 5 -6 -5
BITMAP
2F00
6000
6000
6024
2FD0
ENDCHAR
STARTCHAR uni0945
ENCODING 2373
SWIDTH 0 0
DWIDTH 0 0
BBX 7 3 -6 14
BITMAP
6008
2018
1FE0
ENDCHAR
STARTCHAR uni0946
ENCODING 2374
SWIDTH 0 0
DWIDTH 0 0
BBX 6 6 -7 12
BITMAP
C000
9000
2800
0740
00C0
00D0
ENDCHAR
STARTCHAR uni0947
ENCODING 2375
SWIDTH 0 0
DWIDTH 0 0
BBX 5 6 -6 12
BITMAP
D000
6000
2400
0C00
0600
0240
ENDCHAR
STARTCHAR uni0948
ENCODING 2376
SWIDTH 0 0
DWIDTH 0 0
BBX 5 6 -6 12
BITMAP
C200
A200
3600
1E00
0B40
0240
ENDCHAR
STARTCHAR uni0949
ENCODING 2377
SWIDTH 231 0
DWIDTH 5 0
BBX 7 17 -1 0
BITMAP
8024
9024
2FD0
0000
7FE0
0200
0200
0200
0200
0200
0200
0200
0200
0200
0200
0200
0200
ENDCHAR
STARTCHAR uni094A
ENCODING 2378
SWIDTH 231 0
DWIDTH 5 0
BBX 8 18 -3 0
BITMAP
6000
7000
1D00
02D0
0060
07FE
0020
0020
0020
0020
0020
0020
0020
0020
0020
0020
0020
0020
ENDCHAR
STARTCHAR uni094B
ENCODING 2379
SWIDTH 231 0
DWIDTH 5 0
BBX 7 18 -2 0
BITMAP
6000
2400
0C00
0600
0140
1FF8
0080
0080
0080
0080
0080
0080
0080
0080
0080
0080
0080
0080
ENDCHAR
STARTCHAR uni094C
ENCODING 2380
SWIDTH 231 0
DWIDTH 5 0
BBX 7 18 -2 0
BITMAP
6080
2480
0880
0680
0280
1FF8
0080
0080
0080
0080
0080
0080
0080
0080
0080
0080
0080
0080
ENDCHAR
STARTCHAR uni094D
ENCODING 2381
SWIDTH 0 0
DWIDTH 0 0
BBX 3 4 -3 -4
BITMAP
40
60
24
1C
ENDCHAR
STARTCHAR uni0950
ENCODING 2384
SWIDTH 847 0
DWIDTH 17 0
BBX 15 16 1 1
BITMAP
00002400
00000000
00000000
00000070
1FD02F90
00240000
00180000
00182F90
00240070
0BD00024
00200024
001FE024
80183024
80183024
A0343430
2F901BD0
ENDCHAR
STARTCHAR uni0951
ENCODING 2385
SWIDTH 0 0
DWIDTH 0 0
BBX 1 4 -3 14
BITMAP
80
80
80
80
ENDCHAR
STARTCHAR uni0952
ENCODING 2386
SWIDTH 0 0
DWIDTH 0 0
BBX 7 1 -9 -2
BITMAP
7FFC
ENDCHAR
STARTCHAR uni0953
ENCODING 2387
SWIDTH 0 0
DWIDTH 0 0
BBX 3 4 -5 14
BITMAP
C0
60
24
08
ENDCHAR
STARTCHAR uni0954
ENCODING 2388
SWIDTH 0 0
DWIDTH 0 0
BBX 4 4 -3 14
BITMAP
09
18
30
90
ENDCHAR
STARTCHAR uni0915093C
ENCODING 2392
SWIDTH 725 0
DWIDTH 15 0
BBX 16 14 -1 -1
BITMAP
7FFFFFFE
00018000
00018000
02F5AF90
0601D070
09018024
09018024
09018024
09018024
06028070
02F98B90
00018000
00018000
00800000
ENDCHAR
STARTCHAR uni0916093C
ENCODING 2393
SWIDTH 696 0
DWIDTH 14 0
BBX 15 14 -1 -1
BITMAP
7FFFFFFC
003000C0
003000C0
003078C0
003180C0
007240C0
1F9240C0
0D0240C0
060181C0
02407DC0
00C000C0
006000C0
003400C0
08000040
ENDCHAR
STARTCHAR uni0917093C
ENCODING 2394
SWIDTH 494 0
DWIDTH 10 0
BBX 11 14 -1 -1
BITMAP
7FFFFC
0180C0
0180C0
0180C0
0180C0
0180C0
0240C0
2E00C0
0000C0
0000C0
0000C0
0000C0
0000C0
020040
ENDCHAR
STARTCHAR uni091C093C
ENCODING 2395
SWIDTH 547 0
DWIDTH 11 0
BBX 12 14 -1 -1
BITMAP
7FFFFF
000030
000030
000030
07FFF0
002430
001830
001830
001830
001430
003430
1FD030
000030
060000
ENDCHAR
STARTCHAR uni0921093C
ENCODING 2396
SWIDTH 475 0
DWIDTH 10 0
BBX 11 16 -1 -3
BITMAP
7FFFF8
000180
000180
02FF80
060000
050000
060000
02FF40
0000C0
000090
090090
0601C0
02FE40
000000
000000
002400
ENDCHAR
STARTCHAR uni0922093C
ENCODING 2397
SWIDTH 485 0
DWIDTH 10 0
BBX 11 15 -1 -2
BITMAP
7FFFFC
000180
000180
000180
01FF80
060000
090000
090B90
090860
090460
0600A0
01BF80
000000
000000
001400
ENDCHAR
STARTCHAR uni092B093C
ENCODING 2398
SWIDTH 739 0
DWIDTH 15 0
BBX 16 14 -1 -1
BITMAP
7FFFFFFF
0600C000
0600C000
0600DF90
0600E034
0600C014
0600C018
0342C018
01BDC014
0000C034
0000C790
0000C000
0000C000
01804000
ENDCHAR
STARTCHAR uni092F093C
ENCODING 2399
SWIDTH 564 0
DWIDTH 11 0
BBX 13 14 -1 -1
BITMAP
7FFFFF40
00202400
00242400
00242400
00302400
0B902400
09002400
09002400
09002400
07407400
01BFA400
00002400
00002400
02000000
ENDCHAR
STARTCHAR uni0960
ENCODING 2400
SWIDTH 753 0
DWIDTH 15 0
BBX 17 16 -1 -3
BITMAP
7FFFFFFF40
0000C00000
0000C00000
0000C00000
02FDC0B400
0601C29800
0900DD1800
0900F5B400
0001C34000
000AC30000
0028C24000
00A0C1F800
0340C24000
0500430000
0000034000
000001BC00
ENDCHAR
STARTCHAR uni0961
ENCODING 2401
SWIDTH 676 0
DWIDTH 14 0
BBX 15 18 -1 -5
BITMAP
7FFFFFF8
00000180
00000180
00000180
01F8BA80
06078280
05030180
09030180
09030180
09010180
05001B80
07002400
01B42400
00001F80
00002400
00003000
00002400
00001BC0
ENDCHAR
STARTCHAR uni0964
ENCODING 2404
SWIDTH 286 0
DWIDTH 6 0
BBX 1 13 3 0
BITMAP
80
80
80
80
80
80
80
80
80
80
80
80
80
ENDCHAR
STARTCHAR uni0965
ENCODING 2405
SWIDTH 518 0
DWIDTH 10 0
BBX 6 13 3 0
BITMAP
8050
8090
8090
8090
8090
8090
8090
8090
8090
8090
8090
8090
8050
ENDCHAR
STARTCHAR uni0966
ENCODING 2406
SWIDTH 519 0
DWIDTH 10 0
BBX 8 13 1 0
BITMAP
1FF8
6006
9003
9003
9003
9003
9003
9003
9003
9003
9003
600A
1BF8
ENDCHAR
STARTCHAR uni0967
ENCODING 2407
SWIDTH 288 0
DWIDTH 6 0
BBX 5 14 0 -1
BITMAP
0B00
7B40
4240
0240
0240
0240
0240
0240
0240
0240
0240
0240
0240
0100
ENDCHAR
STARTCHAR uni0968
ENCODING 2408
SWIDTH 453 0
DWIDTH 9 0
BBX 8 13 1 0
BITMAP
2FE4
901C
C008
C009
000C
0028
00A0
0740
2800
6000
D000
C000
FFFD
ENDCHAR
STARTCHAR uni0969
ENCODING 2409
SWIDTH 489 0
DWIDTH 10 0
BBX 8 13 1 0
BITMAP
2FE4
A00C
C009
8009
0009
001C
02F4
001C
0009
C009
C009
A01C
2FE4
ENDCHAR
STARTCHAR uni096A
ENCODING 2410
SWIDTH 453 0
DWIDTH 9 0
BBX 9 14 0 -1
BITMAP
001D00
003900
006900
00C900
024900
070900
090900
180900
240900
600900
BFFFC0
000900
000900
000400
ENDCHAR
STARTCHAR uni096B
ENCODING 2411
SWIDTH 480 0
DWIDTH 10 0
BBX 8 13 1 0
BITMAP
BFFD
9000
9000
9000
9000
AFF4
A00D
0006
0006
5006
9006
600D
1FE4
ENDCHAR
STARTCHAR uni096C
ENCODING 2412
SWIDTH 495 0
DWIDTH 10 0
BBX 8 13 1 0
BITMAP
1FFC
6000
9000
9000
9000
ABF8
A00A
9006
9003
9003
9006
6009
1BF8
ENDCHAR
STARTCHAR uni096D
ENCODING 2413
SWIDTH 380 0
DWIDTH 8 0
BBX 8 14 0 -1
BITMAP
BFFD
000C
0018
0024
0030
00A0
00D0
01C0
0240
0300
0600
0900
0C00
0400
ENDCHAR
STARTCHAR uni096E
ENCODING 2414
SWIDTH 523 0
DWIDTH 10 0
BBX 8 13 1 0
BITMAP
1FF8
6006
9003
9003
9003
6006
2FFC
6006
9003
9003
9003
6006
1BF8
ENDCHAR
STARTCHAR uni096F
ENCODING 2415
SWIDTH 493 0
DWIDTH 10 0
BBX 8 13 1 0
BITMAP
2FF4
A00C
C009
C009
C009
C009
A009
2FFD
0009
0009
0009
001C
7FE4
ENDCHAR
STARTCHAR uni0970
ENCODING 2416
SWIDTH 391 0
DWIDTH 8 0
BBX 7 7 0 3
BITMAP
0BE0
3428
300C
600C
300C
2428
0BE0
ENDCHAR
STARTCHAR uni0972
ENCODING 2418
SWIDTH 598 0
DWIDTH 12 0
BBX 13 17 0 0
BITMAP
00050180
00060280
0002FE00
00000000
1F902F00
00703000
00243000
00243000
00703000
0FD03000
00603000
002FF000
00243000
00243000
00703000
7F903000
00002000
ENDCHAR
STARTCHAR Wgrave
ENCODING 7808
SWIDTH 795 0
DWIDTH 16 0
BBX 15 17 0 0
BITMAP
00140000
00090000
00020000
00000000
6002800C
3003C00C
34069018
24095028
180C6024
1C0C3030
0C182470
09241460
09301890
06200C90
036009C0
03900680
02C00380
ENDCHAR
STARTCHAR wgrave
ENCODING 7809
SWIDTH 682 0
DWIDTH 14 0
BBX 13 14 0 0
BITMAP
00700000
00280000
00080000
00000000
600900C0
700E01C0
301B0180
24264240
18318300
0C608600
09508900
05909C00
02C06800
03803400
ENDCHAR
STARTCHAR Wacute
ENCODING 7810
SWIDTH 795 0
DWIDTH 16 0
BBX 15 17 0 0
BITMAP
00001000
0000A000
00008000
00000000
6002800C
3003C00C
34069018
24095028
180C6024
1C0C3030
0C182470
09241460
09301890
06200C90
036009C0
03900680
02C00380
ENDCHAR
STARTCHAR wacute
ENCODING 7811
SWIDTH 682 0
DWIDTH 14 0
BBX 13 14 0 0
BITMAP
0001C000
00034000
00050000
00000000
600900C0
700E01C0
301B0180
24264240
18318300
0C608600
09508900
05909C00
02C06800
03803400
ENDCHAR
STARTCHAR Wdieresis
ENCODING 7812
SWIDTH 795 0
DWIDTH 16 0
BBX 15 17 0 0
BITMAP
00082000
00183000
00183000
00000000
6002800C
3003C00C
34069018
24095028
180C6024
1C0C3030
0C182470
09241460
09301890
06200C90
036009C0
03900680
02C00380
ENDCHAR
STARTCHAR wdieresis
ENCODING 7813
SWIDTH 682 0
DWIDTH 14 0
BBX 13 14 0 0
BITMAP
0060C000
0060C000
00608000
00000000
600900C0
700E01C0
301B0180
24264240
18318300
0C608600
09508900
05909C00
02C06800
03803400
ENDCHAR
STARTCHAR uni1E9E
ENCODING 7838
SWIDTH 542 0
DWIDTH 11 0
BBX 9 13 1 0
BITMAP
1BFF40
340300
600600
600C00
601800
603400
603E00
600240
600180
600180
600180
600240
60FE00
ENDCHAR
STARTCHAR Ygrave
ENCODING 7922
SWIDTH 493 0
DWIDTH 10 0
BBX 10 17 0 0
BITMAP
010000
028000
009000
000000
6000D0
340180
180340
0D0600
060D00
035800
01A400
00E000
009000
009000
009000
009000
009000
ENDCHAR
STARTCHAR ygrave
ENCODING 7923
SWIDTH 459 0
DWIDTH 9 0
BBX 9 17 0 -3
BITMAP
034000
018000
004000
000000
600180
300340
240700
180900
0C0C00
091800
062400
037000
02A000
00D000
00C000
028000
3E0000
ENDCHAR
STARTCHAR uni200B
ENCODING 8203
SWIDTH 0 0
DWIDTH 0 0
BBX 1 1 0 0
BITMAP
00
ENDCHAR
STARTCHAR uni200C
ENCODING 8204
SWIDTH 0 0
DWIDTH 0 0
BBX 2 21 -1 -4
BITMAP
50
50
50
50
50
50
50
50
50
50
50
50
50
50
50
50
50
50
50
50
50
ENDCHAR
STARTCHAR uni200D
ENCODING 8205
SWIDTH 0 0
DWIDTH 0 0
BBX 6 21 -3 -4
BITMAP
1040
75D0
1F40
1F40
7AD0
0500
0500
0500
0500
0500
0500
0500
0500
0500
0500
0500
0500
0500
0500
0500
0500
ENDCHAR
STARTCHAR endash
ENCODING 8211
SWIDTH 408 0
DWIDTH 8 0
BBX 7 1 1 6
BITMAP
FFF4
ENDCHAR
STARTCHAR emdash
ENCODING 8212
SWIDTH 537 0
DWIDTH 11 0
BBX 9 1 1 6
BITMAP
FFFF80
ENDCHAR
STARTCHAR quoteleft
ENCODING 8216
SWIDTH 179 0
DWIDTH 4 0
BBX 2 5 1 8
BITMAP
10
50
90
90
90
ENDCHAR
STARTCHAR quoteright
ENCODING 8217
SWIDTH 179 0
DWIDTH 4 0
BBX 2 5 1 8
BITMAP
90
90
80
80
40
ENDCHAR
STARTCHAR quotesinglbase
ENCODING 8218
SWIDTH 187 0
DWIDTH 4 0
BBX 2 5 1 -2
BITMAP
90
90
90
80
40
ENDCHAR
STARTCHAR quotedblleft
ENCODING 8220
SWIDTH 329 0
DWIDTH 7 0
BBX 5 5 1 8
BITMAP
1040
5140
9240
9240
9240
ENDCHAR
STARTCHAR quotedblright
ENCODING 8221
SWIDTH 329 0
DWIDTH 7 0
BBX 5 5 1 8
BITMAP
9240
9240
8200
8200
4100
ENDCHAR
STARTCHAR quotedblbase
ENCODING 8222
SWIDTH 337 0
DWIDTH 7 0
BBX 5 5 1 -2
BITMAP
9240
9240
9240
8200
4100
ENDCHAR
STARTCHAR dagger
ENCODING 8224
SWIDTH 427 0
DWIDTH 9 0
BBX 7 13 1 0
BITMAP
0600
0600
0200
0200
ABA4
0600
0600
0600
0600
0600
0200
0200
0200
ENDCHAR
STARTCHAR daggerdbl
ENCODING 8225
SWIDTH 427 0
DWIDTH 9 0
BBX 7 13 1 0
BITMAP
0600
0600
0200
0200
ABA4
0600
0600
0600
0600
FFF8
0200
0600
0600
ENDCHAR
STARTCHAR bullet
ENCODING 8226
SWIDTH 273 0
DWIDTH 5 0
BBX 3 3 1 5
BITMAP
38
78
38
ENDCHAR
STARTCHAR ellipsis
ENCODING 8230
SWIDTH 591 0
DWIDTH 12 0
BBX 10 3 1 0
BITMAP
909090
909090
909090
ENDCHAR
STARTCHAR perthousand
ENCODING 8240
SWIDTH 1027 0
DWIDTH 21 0
BBX 19 13 1 0
BITMAP
7F40800000
80C0800000
C082400000
C082000000
90C5000000
6E48000000
0018000000
0024A906A0
0022424818
0092015808
0082015808
0142424C18
0200BE07E4
ENDCHAR
STARTCHAR guilsinglleft
ENCODING 8249
SWIDTH 290 0
DWIDTH 6 0
BBX 4 7 1 2
BITMAP
01
09
24
90
60
28
05
ENDCHAR
STARTCHAR guilsinglright
ENCODING 8250
SWIDTH 290 0
DWIDTH 6 0
BBX 4 7 1 2
BITMAP
40
A0
28
09
09
24
90
ENDCHAR
STARTCHAR fraction
ENCODING 8260
SWIDTH 117 0
DWIDTH 2 0
BBX 10 13 -4 0
BITMAP
000020
000090
000180
000600
000800
002400
006000
008000
024000
090000
180000
200000
900000
ENDCHAR
STARTCHAR Euro
ENCODING 8364
SWIDTH 523 0
DWIDTH 10 0
BBX 9 13 0 0
BITMAP
02FE00
060180
0900C0
090080
090000
7FF400
090000
7FF400
090000
090080
0900C0
060180
02FE00
ENDCHAR
STARTCHAR uni20B9
ENCODING 8377
SWIDTH 414 0
DWIDTH 8 0
BBX 8 13 0 0
BITMAP
3FFE
0080
0090
3FFE
0090
00D0
7E40
2400
0C00
0600
0240
00C0
0060
ENDCHAR
STARTCHAR trademark
ENCODING 8482
SWIDTH 591 0
DWIDTH 12 0
BBX 10 5 1 8
BITMAP
BF3060
0434A0
042960
042620
042020
ENDCHAR
STARTCHAR uni2126
ENCODING 8486
SWIDTH 629 0
DWIDTH 13 0
BBX 11 13 1 0
BITMAP
0BFF40
240090
300060
300060
300060
300060
300060
300060
300060
300060
300060
180080
FF4BF8
ENDCHAR
STARTCHAR partialdiff
ENCODING 8706
SWIDTH 481 0
DWIDTH 10 0
BBX 8 14 1 0
BITMAP
1E40
01A0
0018
000C
0009
1FE9
601D
9009
9009
9009
9009
9009
601C
1FE4
ENDCHAR
STARTCHAR uni2206
ENCODING 8710
SWIDTH 594 0
DWIDTH 12 0
BBX 11 13 0 0
BITMAP
002800
007C00
009900
00C700
018340
024180
0300C0
060090
090060
1C0030
280024
300018
7FFFFC
ENDCHAR
STARTCHAR minus
ENCODING 8722
SWIDTH 523 0
DWIDTH 10 0
BBX 8 1 1 6
BITMAP
7FFF
ENDCHAR
STARTCHAR approxequal
ENCODING 8776
SWIDTH 523 0
DWIDTH 10 0
BBX 8 5 1 4
BITMAP
6E42
51AE
0000
0000
6FFE
ENDCHAR
STARTCHAR notequal
ENCODING 8800
SWIDTH 523 0
DWIDTH 10 0
BBX 8 9 1 2
BITMAP
0020
0060
7FFF
0080
0180
0140
7FFF
0200
0500
ENDCHAR
STARTCHAR lessequal
ENCODING 8804
SWIDTH 523 0
DWIDTH 10 0
BBX 8 8 1 3
BITMAP
0016
06E4
7900
6940
01B9
0006
0000
7FFF
ENDCHAR
STARTCHAR greaterequal
ENCODING 8805
SWIDTH 523 0
DWIDTH 10 0
BBX 8 8 1 3
BITMAP
6400
1B90
006A
006E
1B90
5000
0000
7FFF
ENDCHAR
STARTCHAR uni25CC
ENCODING 9676
SWIDTH 701 0
DWIDTH 14 0
BBX 12 12 1 1
BITMAP
003680
0725A8
060028
340000
24000A
60000A
700000
00000D
1C0009
198070
01CA60
000900
ENDCHAR
STARTCHAR commaaccent
ENCODING 63171
SWIDTH 0 0
DWIDTH 0 0
BBX 1 4 4 -5
BITMAP
C0
C0
80
40
ENDCHAR
STARTCHAR .notdef
ENCODING -1
SWIDTH 600 0
DWIDTH 12 0
BBX 8 12 2 0
BITMAP
BFFE
9006
9006
9006
9006
9006
9006
9006
9006
9006
9006
BFFE
ENDCHAR
STARTCHAR .null
ENCODING -1
SWIDTH 0 0
DWIDTH 0 0
BBX 1 1 0 0
BITMAP
00
ENDCHAR
STARTCHAR nonmarkingreturn
ENCODING -1
SWIDTH 333 0
DWIDTH 7 0
BBX 1 1 0 0
BITMAP
00
ENDCHAR
STARTCHAR uni0915094D
ENCODING -1
SWIDTH 519 0
DWIDTH 10 0
BBX 14 13 -1 0
BITMAP
7FFFFFE0
00018000
00018000
02F5AF90
0601D060
09018000
09018000
09018000
09018000
06028000
02F98000
00018000
00008000
ENDCHAR
STARTCHAR uni0916094D
ENCODING -1
SWIDTH 468 0
DWIDTH 9 0
BBX 13 13 -1 0
BITMAP
7FFFFF40
00300000
00300000
00307800
00318000
00724000
1F924000
0D024000
06018180
02807E00
00D00000
00600000
00240000
ENDCHAR
STARTCHAR uni0917094D
ENCODING -1
SWIDTH 264 0
DWIDTH 5 0
BBX 7 8 -1 5
BITMAP
7FF4
0180
0180
0180
0180
0180
0240
2E00
ENDCHAR
STARTCHAR uni0918094D
ENCODING -1
SWIDTH 321 0
DWIDTH 6 0
BBX 10 11 -1 2
BITMAP
7FFFE0
060000
090000
090000
060000
02F400
060000
090000
090000
060060
01FF80
ENDCHAR
STARTCHAR uni0919094D
ENCODING -1
SWIDTH 505 0
DWIDTH 10 0
BBX 12 18 -1 -5
BITMAP
7FFFFD
000180
000180
02FF80
060000
050014
060000
02FF40
0000C0
000090
090090
0600C0
02FE40
000000
001400
000D00
000600
000100
ENDCHAR
STARTCHAR uni091A094D
ENCODING -1
SWIDTH 330 0
DWIDTH 7 0
BBX 10 11 -1 2
BITMAP
7FFFF0
000000
000000
000000
1FFD00
018000
020000
030000
020000
028060
00BF80
ENDCHAR
STARTCHAR uni091B094D
ENCODING -1
SWIDTH 581 0
DWIDTH 12 0
BBX 13 12 -1 1
BITMAP
7FFFFF80
06000000
06000000
0601E400
06001C00
07000800
02F00800
06000800
06000800
06000C00
06001800
01FFE000
ENDCHAR
STARTCHAR uni091C094D
ENCODING -1
SWIDTH 309 0
DWIDTH 6 0
BBX 10 12 -1 1
BITMAP
7FFFD0
000000
000000
000000
07FFD0
002400
001800
001800
001800
001400
003400
1FD000
ENDCHAR
STARTCHAR uni091D094D
ENCODING -1
SWIDTH 432 0
DWIDTH 9 0
BBX 12 14 -1 -1
BITMAP
7FFFFE
000300
000300
02FF00
060000
090000
060000
02FFFE
000240
090180
0A0240
0AFE00
090000
090000
ENDCHAR
STARTCHAR uni091E094D
ENCODING -1
SWIDTH 359 0
DWIDTH 7 0
BBX 10 11 -1 2
BITMAP
7FFFF0
000000
000000
0BE000
002400
000800
000800
000FF0
000800
002800
0FE000
ENDCHAR
STARTCHAR uni091F094D
ENCODING -1
SWIDTH 485 0
DWIDTH 10 0
BBX 11 17 -1 -4
BITMAP
7FFFF8
000180
000180
000180
01FF40
060000
090000
090000
090060
090060
060090
01BF40
000000
001400
000C00
000600
000240
ENDCHAR
STARTCHAR uni0920094D
ENCODING -1
SWIDTH 512 0
DWIDTH 10 0
BBX 12 17 -1 -4
BITMAP
7FFFFD
0000C0
000080
000180
01FF40
060090
090060
090060
090060
090060
060090
01FF40
000000
001400
000C00
000A00
000200
ENDCHAR
STARTCHAR uni0921094D
ENCODING -1
SWIDTH 475 0
DWIDTH 10 0
BBX 11 18 -1 -5
BITMAP
7FFFF8
000180
000180
02FF80
060000
050000
060000
02FF40
0000C0
000090
090090
0601C0
02FE40
000000
001800
000900
000700
000100
ENDCHAR
STARTCHAR uni0922094D
ENCODING -1
SWIDTH 485 0
DWIDTH 10 0
BBX 11 17 -1 -4
BITMAP
7FFFFC
000180
000180
000180
01FF80
060000
090000
090B90
090860
090460
0600A0
01BF80
000000
001400
000C00
000600
000240
ENDCHAR
STARTCHAR uni0923094D
ENCODING -1
SWIDTH 454 0
DWIDTH 9 0
BBX 11 9 -1 4
BITMAP
7FFFF4
060240
060240
060240
060240
060240
060240
030300
01B900
ENDCHAR
STARTCHAR uni0924094D
ENCODING -1
SWIDTH 263 0
DWIDTH 5 0
BBX 9 13 -1 0
BITMAP
7FFF40
000000
000000
000000
02FF40
060000
090000
090000
090000
090000
090000
060000
01E000
ENDCHAR
STARTCHAR uni0925094D
ENCODING -1
SWIDTH 359 0
DWIDTH 7 0
BBX 9 11 1 2
BITMAP
1F8000
309000
606000
106000
009000
BF8000
900000
900000
900000
740240
1BF900
ENDCHAR
STARTCHAR uni0926094D
ENCODING -1
SWIDTH 489 0
DWIDTH 10 0
BBX 11 17 -1 -4
BITMAP
7FFFFC
0000C0
0000C0
01FFC0
060000
090000
090000
090000
090090
0600D0
01BE90
000090
000090
001800
000900
000600
000100
ENDCHAR
STARTCHAR uni0927094D
ENCODING -1
SWIDTH 321 0
DWIDTH 6 0
BBX 10 11 -1 2
BITMAP
7FE2F0
060000
090000
090000
060000
02F400
060000
090000
090000
060060
01FF80
ENDCHAR
STARTCHAR uni0928094D
ENCODING -1
SWIDTH 233 0
DWIDTH 5 0
BBX 8 9 -1 4
BITMAP
7FFE
0000
0000
0000
0000
0BFE
1C00
1800
0800
ENDCHAR
STARTCHAR uni092A094D
ENCODING -1
SWIDTH 269 0
DWIDTH 5 0
BBX 9 9 -1 4
BITMAP
7FFF80
060000
060000
060000
060000
060000
060000
034180
01BE00
ENDCHAR
STARTCHAR uni092B094D
ENCODING -1
SWIDTH 530 0
DWIDTH 11 0
BBX 15 13 -1 0
BITMAP
7FFFFFF4
0600C000
0600C000
0600DFD0
0600E020
0600C000
0600C000
0342C000
01BDC000
0000C000
0000C000
0000C000
00008000
ENDCHAR
STARTCHAR uni092C094D
ENCODING -1
SWIDTH 265 0
DWIDTH 5 0
BBX 9 11 -1 2
BITMAP
7FFF80
000000
000000
01F400
070000
098000
096000
091840
090680
060280
01FE00
ENDCHAR
STARTCHAR uni092D094D
ENCODING -1
SWIDTH 261 0
DWIDTH 5 0
BBX 9 10 -1 3
BITMAP
780F40
090000
060000
060000
060000
060000
07FF40
060000
060000
010000
ENDCHAR
STARTCHAR uni092E094D
ENCODING -1
SWIDTH 261 0
DWIDTH 5 0
BBX 9 10 -1 3
BITMAP
7FFF40
060000
060000
060000
060000
060000
07FF40
060000
060000
010000
ENDCHAR
STARTCHAR uni092F094D
ENCODING -1
SWIDTH 323 0
DWIDTH 6 0
BBX 10 11 -1 2
BITMAP
7FFFD0
002000
002400
002400
003000
0B9000
090000
090000
090000
074060
01BF80
ENDCHAR
STARTCHAR uni0930094D
ENCODING -1
SWIDTH 337 0
DWIDTH 7 0
BBX 8 18 -1 -5
BITMAP
7FFF
0030
0030
0030
0030
0070
1F90
0D00
0600
0240
00C0
0060
0024
0000
0080
00A0
0034
0004
ENDCHAR
STARTCHAR uni0932094D
ENCODING -1
SWIDTH 431 0
DWIDTH 9 0
BBX 13 12 -1 1
BITMAP
7FFFFF40
00000000
00000000
00000000
01F8BD00
06074200
09030000
09030000
09020000
09000000
06000000
01B40000
ENDCHAR
STARTCHAR uni0933094D
ENCODING -1
SWIDTH 677 0
DWIDTH 14 0
BBX 15 12 -1 1
BITMAP
7FFFFFF8
00000000
00000000
00000000
01F8BE00
06078180
090340C0
090200C0
090200C0
090340C0
06078180
01F8BE00
ENDCHAR
STARTCHAR uni0935094D
ENCODING -1
SWIDTH 255 0
DWIDTH 5 0
BBX 9 11 -1 2
BITMAP
7FFF80
000000
000000
01F400
060000
090000
090000
090040
090080
060180
01FE00
ENDCHAR
STARTCHAR uni0936094D
ENCODING -1
SWIDTH 378 0
DWIDTH 8 0
BBX 6 13 1 0
BITMAP
2F80
60A0
9060
5060
0060
0090
FF80
9000
3000
1800
0900
0700
0240
ENDCHAR
STARTCHAR uni0937094D
ENCODING -1
SWIDTH 282 0
DWIDTH 6 0
BBX 9 9 -1 4
BITMAP
7FFFC0
074000
068000
062000
061800
060600
060180
0341C0
01BE00
ENDCHAR
STARTCHAR uni0938094D
ENCODING -1
SWIDTH 338 0
DWIDTH 7 0
BBX 10 13 -1 0
BITMAP
7FFFF0
006000
006000
006000
006000
009000
1FFFF0
0D0000
060000
024000
018000
009000
002000
ENDCHAR
STARTCHAR uni0939094D
ENCODING -1
SWIDTH 457 0
DWIDTH 9 0
BBX 12 14 -1 -1
BITMAP
7FFFF8
0000C0
0000C0
01FF80
060000
060000
060000
02FFFF
030000
060000
090000
060000
034000
01BF80
ENDCHAR
STARTCHAR uni0915093C094D
ENCODING -1
SWIDTH 519 0
DWIDTH 10 0
BBX 14 14 -1 -1
BITMAP
7FFFFFE0
00018000
00018000
02F5AF90
0601D060
09018000
09018000
09018000
09018000
06028000
02F98000
00018000
00018000
02400000
ENDCHAR
STARTCHAR uni0916093C094D
ENCODING -1
SWIDTH 463 0
DWIDTH 9 0
BBX 13 14 -1 -1
BITMAP
7FFFFF40
00300000
00300000
00307800
00318000
00724000
1F924000
0D024000
06018180
02407E00
00C00000
00600000
00240000
09000000
ENDCHAR
STARTCHAR uni0917093C094D
ENCODING -1
SWIDTH 264 0
DWIDTH 5 0
BBX 7 13 -1 0
BITMAP
7FF4
0180
0180
0180
0180
0180
0240
2E00
0000
0000
0000
0000
0200
ENDCHAR
STARTCHAR uni091C093C094D
ENCODING -1
SWIDTH 314 0
DWIDTH 6 0
BBX 10 15 -1 -2
BITMAP
7FFFD0
000000
000000
000000
07FFD0
002400
001800
001800
001800
001400
003400
1FD000
000000
000000
020000
ENDCHAR
STARTCHAR uni0928093C094D
ENCODING -1
SWIDTH 241 0
DWIDTH 5 0
BBX 7 13 0 0
BITMAP
FFF8
0000
0000
0000
0000
1FF8
3000
3000
2000
0000
0000
0000
0500
ENDCHAR
STARTCHAR uni092B093C094D
ENCODING -1
SWIDTH 530 0
DWIDTH 11 0
BBX 15 14 -1 -1
BITMAP
7FFFFFF4
0600C000
0600C000
0600DFD0
0600E020
0600C000
0600C000
0342C000
01BDC000
0000C000
0000C000
0000C000
0000C000
00804000
ENDCHAR
STARTCHAR uni092F093C094D
ENCODING -1
SWIDTH 325 0
DWIDTH 7 0
BBX 10 14 -1 -1
BITMAP
7FFFD0
002000
002400
002400
003000
0B9000
090000
090000
090000
074060
01BF80
000000
000000
008000
ENDCHAR
STARTCHAR uni09080902
ENCODING -1
SWIDTH 478 0
DWIDTH 10 0
BBX 11 19 -1 -1
BITMAP
0002F0
000900
000C50
000C00
000C00
7FFFF8
000180
000180
02FF80
060000
090000
060000
02FF40
0000C0
000090
090090
0A00C0
0ABF40
090000
ENDCHAR
STARTCHAR uni09300941
ENCODING -1
SWIDTH 533 0
DWIDTH 11 0
BBX 12 13 -1 0
BITMAP
7FFFFE
003000
003000
003FD0
003024
007024
1F9024
0D0024
0600A0
024280
00C100
006000
002400
ENDCHAR
STARTCHAR uni09300942
ENCODING -1
SWIDTH 645 0
DWIDTH 13 0
BBX 14 13 -1 0
BITMAP
7FFFFFF0
00300000
00300000
0030BE00
00318240
00718180
1F914180
0D000140
06000700
02402800
00C05000
00600000
00240000
ENDCHAR
STARTCHAR uni09390941
ENCODING -1
SWIDTH 495 0
DWIDTH 10 0
BBX 11 18 -1 -5
BITMAP
7FFFFC
0000C0
0000C0
01FF80
060000
060000
060000
02FE40
0301C0
060080
090040
060000
034000
01BF80
0000A0
090060
034090
00BF80
ENDCHAR
STARTCHAR uni09390942
ENCODING -1
SWIDTH 492 0
DWIDTH 10 0
BBX 11 18 -1 -5
BITMAP
7FFFF8
0000C0
0000C0
01FF80
060000
060000
060000
02FE40
0301C0
060080
090080
060000
034000
02FE00
030180
020090
030020
01F010
ENDCHAR
STARTCHAR uni09260943
ENCODING -1
SWIDTH 390 0
DWIDTH 8 0
BBX 9 12 -1 1
BITMAP
7FFFC0
000900
000900
02FC00
060000
050000
060000
02F400
060000
050000
060000
02FE00
ENDCHAR
STARTCHAR uni09390943
ENCODING -1
SWIDTH 519 0
DWIDTH 10 0
BBX 12 16 -1 -3
BITMAP
7FFFFE
000080
000080
02FF80
060000
090000
060000
02FFE0
061824
091414
091400
091800
090BF0
090000
060000
01BF80
ENDCHAR
STARTCHAR uni094D0930
ENCODING -1
SWIDTH 0 0
DWIDTH 0 0
BBX 6 4 -8 -4
BITMAP
0A00
2A40
70D0
9060
ENDCHAR
STARTCHAR uni0930094D.1
ENCODING -1
SWIDTH 192 0
DWIDTH 4 0
BBX 8 6 -2 7
BITMAP
1FF0
0000
0000
0000
6006
1BF8
ENDCHAR
STARTCHAR uni0930094D.2
ENCODING -1
SWIDTH 0 0
DWIDTH 0 0
BBX 4 6 -3 12
BITMAP
2D
90
90
80
80
90
ENDCHAR
STARTCHAR uni0930094D0902
ENCODING -1
SWIDTH 0 0
DWIDTH 0 0
BBX 4 6 -3 12
BITMAP
2D
90
90
88
80
90
ENDCHAR
STARTCHAR uni093E0930094D
ENCODING -1
SWIDTH 231 0
DWIDTH 5 0
BBX 6 18 -1 0
BITMAP
01F0
0300
0200
0200
0600
7FE0
0200
0200
0200
0200
0200
0200
0200
0200
0200
0200
0200
0200
ENDCHAR
STARTCHAR uni093E0930094D0902
ENCODING -1
SWIDTH 231 0
DWIDTH 5 0
BBX 6 18 -1 0
BITMAP
01F0
0300
0220
0200
0600
7FE0
0200
0200
0200
0200
0200
0200
0200
0200
0200
0200
0200
0200
ENDCHAR
STARTCHAR uni0930094D.aMatraI
ENCODING -1
SWIDTH 0 0
DWIDTH 0 0
BBX 4 4 -1 13
BITMAP
6D
90
C0
C0
ENDCHAR
STARTCHAR uni0902.aMatraI
ENCODING -1
SWIDTH 0 0
DWIDTH 0 0
BBX 1 1 1 15
BITMAP
80
ENDCHAR
STARTCHAR uni0930094D0902.aMatraI
ENCODING -1
SWIDTH 0 0
DWIDTH 0 0
BBX 4 4 -1 13
BITMAP
6D
90
C8
C0
ENDCHAR
STARTCHAR uni09400930094D
ENCODING -1
SWIDTH 231 0
DWIDTH 5 0
BBX 8 18 -3 0
BITMAP
2F9F
90B0
8060
8020
0060
07FE
0020
0020
0020
0020
0020
0020
0020
0020
0020
0020
0020
0020
ENDCHAR
STARTCHAR uni09400902
ENCODING -1
SWIDTH 231 0
DWIDTH 5 0
BBX 8 18 -3 0
BITMAP
2F80
90A0
8062
8020
0060
07FE
0020
0020
0020
0020
0020
0020
0020
0020
0020
0020
0020
0020
ENDCHAR
STARTCHAR uni09400930094D0902
ENCODING -1
SWIDTH 231 0
DWIDTH 5 0
BBX 8 18 -3 0
BITMAP
2F9F
90B0
C062
0020
0060
07FE
0020
0020
0020
0020
0020
0020
0020
0020
0020
0020
0020
0020
ENDCHAR
STARTCHAR uni0940.aLong
ENCODING -1
SWIDTH 231 0
DWIDTH 5 0
BBX 13 18 -8 0
BITMAP
2FFFE000
A0002800
90001800
40000800
00001800
0001FF80
00000800
00000800
00000800
00000800
00000800
00000800
00000800
00000800
00000800
00000800
00000800
00000800
ENDCHAR
STARTCHAR uni09400930094D.aLong
ENCODING -1
SWIDTH 231 0
DWIDTH 5 0
BBX 13 18 -8 0
BITMAP
2FFFE7C0
A0002C00
90001800
40000800
00001800
0001FF80
00000800
00000800
00000800
00000800
00000800
00000800
00000800
00000800
00000800
00000800
00000800
00000800
ENDCHAR
STARTCHAR uni09400902.aLong
ENCODING -1
SWIDTH 231 0
DWIDTH 5 0
BBX 14 18 -8 0
BITMAP
2FFFE000
A0002800
90001890
40000800
00001800
0001FF80
00000800
00000800
00000800
00000800
00000800
00000800
00000800
00000800
00000800
00000800
00000800
00000800
ENDCHAR
STARTCHAR uni09400930094D0902.aLong
ENCODING -1
SWIDTH 231 0
DWIDTH 5 0
BBX 13 18 -8 0
BITMAP
2FFFE7C0
A0002C00
90001880
00000800
00001800
0001FF80
00000800
00000800
00000800
00000800
00000800
00000800
00000800
00000800
00000800
00000800
00000800
00000800
ENDCHAR
STARTCHAR uni09470930094D
ENCODING -1
SWIDTH 0 0
DWIDTH 0 0
BBX 7 5 -6 13
BITMAP
D0B4
7240
1A00
0B00
0240
ENDCHAR
STARTCHAR uni09470902
ENCODING -1
SWIDTH 0 0
DWIDTH 0 0
BBX 6 6 -6 12
BITMAP
D000
6000
2460
1C00
0600
0240
ENDCHAR
STARTCHAR uni09470901
ENCODING -1
SWIDTH 0 0
DWIDTH 0 0
BBX 10 6 -6 12
BITMAP
D00900
618030
258060
0C7F80
060000
024000
ENDCHAR
STARTCHAR uni09470930094D0902
ENCODING -1
SWIDTH 0 0
DWIDTH 0 0
BBX 7 5 -6 13
BITMAP
D0B4
7240
1A20
0B00
0240
ENDCHAR
STARTCHAR uni09480930094D
ENCODING -1
SWIDTH 0 0
DWIDTH 0 0
BBX 8 6 -7 12
BITMAP
615D
25A0
1990
0AD0
02C0
00D0
ENDCHAR
STARTCHAR uni09480902
ENCODING -1
SWIDTH 0 0
DWIDTH 0 0
BBX 8 6 -7 12
BITMAP
7080
2880
0C89
0680
0280
0090
ENDCHAR
STARTCHAR uni09480901
ENCODING -1
SWIDTH 0 0
DWIDTH 0 0
BBX 13 6 -7 12
BITMAP
70802000
28880140
0C890240
0682FE00
02800000
00900000
ENDCHAR
STARTCHAR uni09480930094D0902
ENCODING -1
SWIDTH 0 0
DWIDTH 0 0
BBX 8 6 -7 12
BITMAP
615D
25A0
1990
0AD8
02C0
00D0
ENDCHAR
STARTCHAR uni094B0930094D
ENCODING -1
SWIDTH 231 0
DWIDTH 5 0
BBX 7 18 -2 0
BITMAP
607C
24C0
0D80
0680
0180
1FF8
0080
0080
0080
0080
0080
0080
0080
0080
0080
0080
0080
0080
ENDCHAR
STARTCHAR uni094B0902
ENCODING -1
SWIDTH 231 0
DWIDTH 5 0
BBX 7 18 -2 0
BITMAP
6000
2400
0C20
0600
0140
1FF8
0080
0080
0080
0080
0080
0080
0080
0080
0080
0080
0080
0080
ENDCHAR
STARTCHAR uni094B0930094D0902
ENCODING -1
SWIDTH 231 0
DWIDTH 5 0
BBX 7 18 -2 0
BITMAP
607C
28C0
0D88
0780
0180
1FF8
0080
0080
0080
0080
0080
0080
0080
0080
0080
0080
0080
0080
ENDCHAR
STARTCHAR uni094C0930094D
ENCODING -1
SWIDTH 231 0
DWIDTH 5 0
BBX 7 18 -2 0
BITMAP
936C
3290
1A80
0A80
0280
1FF8
0080
0080
0080
0080
0080
0080
0080
0080
0080
0080
0080
0080
ENDCHAR
STARTCHAR uni094C0902
ENCODING -1
SWIDTH 231 0
DWIDTH 5 0
BBX 7 18 -2 0
BITMAP
6080
2480
0888
0680
0280
1FF8
0080
0080
0080
0080
0080
0080
0080
0080
0080
0080
0080
0080
ENDCHAR
STARTCHAR uni094C0930094D0902
ENCODING -1
SWIDTH 231 0
DWIDTH 5 0
BBX 7 18 -2 0
BITMAP
936C
3290
1A88
0A80
0280
1FF8
0080
0080
0080
0080
0080
0080
0080
0080
0080
0080
0080
0080
ENDCHAR
STARTCHAR uni0915094D0937
ENCODING -1
SWIDTH 656 0
DWIDTH 13 0
BBX 13 13 1 0
BITMAP
0BE02F40
18242400
24082400
24082400
18242400
2FFFF400
60002400
90002400
90182400
90182400
60282400
2FE82400
00182000
ENDCHAR
STARTCHAR uni0915094D0937094D
ENCODING -1
SWIDTH 429 0
DWIDTH 9 0
BBX 10 13 1 0
BITMAP
0BE000
182400
240800
240800
182400
2FFFE0
600000
900000
901800
901800
602800
2FE800
001800
ENDCHAR
STARTCHAR uni0915094D0937094D092E
ENCODING -1
SWIDTH 933 0
DWIDTH 19 0
BBX 18 13 1 0
BITMAP
0BE0BFFFE0
1824240300
2408240300
2408240300
1824240300
2FFFF40300
60002FFF00
9000240300
9018240300
9018140300
6028000300
2FE8000300
0018000200
ENDCHAR
STARTCHAR uni0915094D0937094D092E094D
ENCODING -1
SWIDTH 717 0
DWIDTH 14 0
BBX 16 13 1 0
BITMAP
0BE0BFFD
18242400
24082400
24082400
18242400
2FFFF400
60002FFD
90002400
90182400
90181400
60280000
2FE80000
00180000
ENDCHAR
STARTCHAR uni0915094D0937094D092E094D092F
ENCODING -1
SWIDTH 1283 0
DWIDTH 26 0
BBX 25 13 1 0
BITMAP
0BE0BFFFFFFF80
18242400240800
24082400180800
24082400180800
18242400240800
2FFFF407E00800
60002FFE000800
90002406000800
90182402001800
90181002402800
60280000BF9800
2F980000000800
00180000000800
ENDCHAR
STARTCHAR uni0915094D0937094D092F
ENCODING -1
SWIDTH 989 0
DWIDTH 20 0
BBX 19 13 1 0
BITMAP
0BE0BFFFFC
18240240C0
24080180C0
24080180C0
18240280C0
2FFFFE00C0
60002000C0
90002000C0
90183000C0
90182802C0
60280BF9C0
2F980000C0
0018000080
ENDCHAR
STARTCHAR uni0915094D0937094D0935
ENCODING -1
SWIDTH 936 0
DWIDTH 19 0
BBX 18 13 1 0
BITMAP
0BE0BFFFF0
1824000300
2408000300
240807D300
1824180300
2FFFF40300
6000240300
9000240300
9018240300
9018180B00
602807F700
2F98000300
0018000200
ENDCHAR
STARTCHAR uni091C094D091E
ENCODING -1
SWIDTH 629 0
DWIDTH 13 0
BBX 14 14 -1 -1
BITMAP
7FFFFFE0
00000600
00000600
02FFFE00
06000600
09000600
06000600
02FE4600
0001C600
0900C600
0A01C600
0ABE4600
09000100
09000000
ENDCHAR
STARTCHAR uni091C094D091E094D
ENCODING -1
SWIDTH 398 0
DWIDTH 8 0
BBX 11 14 -1 -1
BITMAP
7FFFFC
000000
000000
02FFFC
060000
090000
060000
02FE40
0001C0
0900C0
0A01C0
0ABE40
090000
090000
ENDCHAR
STARTCHAR uni091C094D091E094D092F
ENCODING -1
SWIDTH 975 0
DWIDTH 20 0
BBX 21 14 -1 -1
BITMAP
7FFFFFFFFF80
000000241800
000000141800
02FFF8141800
060009241800
09000BE01800
060009001800
02FE45001800
0000C6001800
0900C3407800
0A01C0BF9800
0ABE40001800
090000000400
090000000000
ENDCHAR
STARTCHAR uni0915094D0928
ENCODING -1
SWIDTH 1003 0
DWIDTH 20 0
BBX 22 13 -1 0
BITMAP
7FFFFFFFFFD0
000180000900
000180000900
02F5AF900900
0601D0700900
0901803FFD00
090180600900
090180600900
090180600900
060280000900
02F980000900
000180000900
000080000800
ENDCHAR
STARTCHAR uni0916094D0928
ENCODING -1
SWIDTH 958 0
DWIDTH 19 0
BBX 21 13 -1 0
BITMAP
7FFFFFFFFF40
003000002400
003000002400
00307E002400
003181802400
007240FFF400
1F9241802400
0D0181802400
06007F802400
028000802400
00D000002400
006000002400
002400002400
ENDCHAR
STARTCHAR uni0917094D0928
ENCODING -1
SWIDTH 736 0
DWIDTH 15 0
BBX 16 13 -1 0
BITMAP
7FFFFFFF
01800030
01800030
01800030
01800030
0181FFF0
02424030
2E024030
00014030
00000030
00000030
00000030
00000020
ENDCHAR
STARTCHAR uni0918094D0928
ENCODING -1
SWIDTH 814 0
DWIDTH 16 0
BBX 18 13 -1 0
BITMAP
7FFFFFFFD0
0600000900
0900000900
0500000900
0200000900
02F42FFD00
0600300900
0900600900
0600B00900
01BFA00900
0000000900
0000000900
0000000500
ENDCHAR
STARTCHAR uni091A094D0928
ENCODING -1
SWIDTH 829 0
DWIDTH 17 0
BBX 18 13 -1 0
BITMAP
7FFFFFFFE0
0000000600
0000000600
0000000600
1FFD000600
01801FFE00
0200340600
0200300600
0280700600
00BFA40600
0000000600
0000000600
0000000200
ENDCHAR
STARTCHAR uni091B094D0928
ENCODING -1
SWIDTH 977 0
DWIDTH 20 0
BBX 21 13 -1 0
BITMAP
7FFFFFFFFF80
060000001800
060000001800
0601E4001800
06001C001800
0200087FF800
02F008C01800
060008C01800
060008801800
06000C001800
060018001800
01FFE0001800
000000001800
ENDCHAR
STARTCHAR uni091C094D0928
ENCODING -1
SWIDTH 831 0
DWIDTH 17 0
BBX 18 13 -1 0
BITMAP
7FFFFFFFE0
0000000600
0000000600
0000000600
0000000600
07FFFFFE00
0024340600
0018300600
0018140600
0018000600
0024000600
1FD0000600
0000000200
ENDCHAR
STARTCHAR uni091D094D0928
ENCODING -1
SWIDTH 935 0
DWIDTH 19 0
BBX 20 14 -1 -1
BITMAP
7FFFFFFFFE
0003000030
0003000030
02FF000030
0600000030
090000BFF0
0600024030
02FFFF0030
0002424030
0901800030
0A02400030
0AFE000030
0900000030
0900000000
ENDCHAR
STARTCHAR uni091F094D0928
ENCODING -1
SWIDTH 494 0
DWIDTH 10 0
BBX 11 18 -1 -5
BITMAP
7FFFFC
000180
000180
000180
01FF80
060000
090000
090030
090020
0600A0
01BFC0
000180
000180
02FF80
0A0180
090180
050180
000080
ENDCHAR
STARTCHAR uni0920094D0928
ENCODING -1
SWIDTH 516 0
DWIDTH 10 0
BBX 12 18 -1 -5
BITMAP
7FFFFE
0000C0
0000C0
000180
01FF80
060090
090060
090020
090060
0600A0
01FFC0
000180
000180
02FF80
0A0180
090180
050180
000080
ENDCHAR
STARTCHAR uni0921094D0928
ENCODING -1
SWIDTH 481 0
DWIDTH 10 0
BBX 11 18 -1 -5
BITMAP
7FFFF8
000080
000180
02FF80
060000
050000
060000
02FF40
000090
090090
0600D0
02FF80
000180
02FF80
060180
090180
060180
000180
ENDCHAR
STARTCHAR uni0924094D0928
ENCODING -1
SWIDTH 756 0
DWIDTH 15 0
BBX 17 13 -1 0
BITMAP
7FFFFFFF40
0000002400
0000002400
0000002400
02FF402400
0600FFF400
0901802400
0901802400
0900802400
0900002400
0900002400
0600002400
01E0002400
ENDCHAR
STARTCHAR uni0925094D0928
ENCODING -1
SWIDTH 855 0
DWIDTH 17 0
BBX 17 13 1 0
BITMAP
1F83FFFF40
3090002400
6060002400
1060002400
0090002400
BF80BFF400
9001802400
9001802400
6006802400
1BF9802400
0000002400
0000002400
0000002400
ENDCHAR
STARTCHAR uni0926094D0928
ENCODING -1
SWIDTH 955 0
DWIDTH 19 0
BBX 21 18 -1 -5
BITMAP
7FFFFFFFFF40
0000C0002400
0000C0002400
01FFC0002400
060000002400
090000BFF400
090001802400
090001802400
090091802400
0600D0002400
01BE90002400
000090002400
000090002400
000000000000
000060000000
000034000000
000018000000
000004000000
ENDCHAR
STARTCHAR uni0927094D0928
ENCODING -1
SWIDTH 814 0
DWIDTH 16 0
BBX 18 13 -1 0
BITMAP
7FF0BFFFD0
0600000900
0900000900
0500000900
0200000900
02F42FFD00
0600300900
0900600900
0600B00900
01BE600900
0000000900
0000000900
0000000500
ENDCHAR
STARTCHAR uni0928094D0928
ENCODING -1
SWIDTH 738 0
DWIDTH 15 0
BBX 16 13 -1 0
BITMAP
7FFFFFFF
00000030
00000030
00000030
00000030
07FFFFF0
0C024030
0C024030
08014030
00000030
00000030
00000030
00000020
ENDCHAR
STARTCHAR uni092A094D0928
ENCODING -1
SWIDTH 782 0
DWIDTH 16 0
BBX 17 13 -1 0
BITMAP
7FFFFFFF80
0600000800
0600000800
0600000800
0600000800
06007FF800
0600900800
0341C00800
01BE900800
0000000800
0000000800
0000000800
0000000800
ENDCHAR
STARTCHAR uni092B094D0928
ENCODING -1
SWIDTH 1013 0
DWIDTH 20 0
BBX 22 13 -1 0
BITMAP
7FFFFFFFFFD0
0600C0000900
0600C0000900
0600DF900900
0600E0700900
0600C02FFD00
0600C0600900
0342C0600900
01BDC0200900
0000C0000900
0000C0000900
0000C0000900
000080000500
ENDCHAR
STARTCHAR uni092C094D0928
ENCODING -1
SWIDTH 810 0
DWIDTH 16 0
BBX 18 13 -1 0
BITMAP
7FFFFFFFD0
0000000900
0000000900
01F4000900
0700000900
09802FFD00
0920600900
0908600900
0902200900
0602800900
01FE000900
0000000900
0000000500
ENDCHAR
STARTCHAR uni092D094D0928
ENCODING -1
SWIDTH 757 0
DWIDTH 15 0
BBX 17 13 -1 0
BITMAP
780FFFFF40
0900002400
0600002400
0600002400
0600002400
0600BFF400
07FF802400
0601802400
0600802400
0000002400
0000002400
0000002400
0000002400
ENDCHAR
STARTCHAR uni092E094D0928
ENCODING -1
SWIDTH 757 0
DWIDTH 15 0
BBX 17 13 -1 0
BITMAP
7FFFFFFF40
0600002400
0600002400
0600002400
0600002400
0600BFF400
07FF802400
0601802400
0600802400
0000002400
0000002400
0000002400
0000002400
ENDCHAR
STARTCHAR uni092F094D0928
ENCODING -1
SWIDTH 829 0
DWIDTH 17 0
BBX 18 13 -1 0
BITMAP
7FFFFFFFE0
0020000600
0024000600
0024000600
0030000600
0B901FFE00
0900340600
0900300600
0740B00600
01BF540600
0000000600
0000000600
0000000200
ENDCHAR
STARTCHAR uni0935094D0928
ENCODING -1
SWIDTH 798 0
DWIDTH 16 0
BBX 17 13 -1 0
BITMAP
7FFFFFFFC0
0000000C00
0000000C00
01F4000C00
0600000C00
09002FFC00
0900A00C00
0900900C00
0900500C00
0602800C00
01FE000C00
0000000C00
0000000800
ENDCHAR
STARTCHAR uni0936094D0928
ENCODING -1
SWIDTH 845 0
DWIDTH 17 0
BBX 16 13 1 0
BITMAP
2F82FFFF
60A00030
50600030
50600030
00600030
0090BFF0
FF824030
90024030
30014030
18000030
09000030
07000030
02400020
ENDCHAR
STARTCHAR uni0938094D0928
ENCODING -1
SWIDTH 831 0
DWIDTH 17 0
BBX 18 13 -1 0
BITMAP
7FFFFFFFE0
0060000600
0060000600
0060000600
0060000600
00901FFE00
1FFFF40600
0D00300600
0600140600
0240000600
0180000600
0090000600
0020000200
ENDCHAR
STARTCHAR uni0939094D0928
ENCODING -1
SWIDTH 500 0
DWIDTH 10 0
BBX 12 15 -1 -2
BITMAP
7FFFFD
000090
000090
01FFD0
060000
060000
060000
02FFF0
0301B0
060A30
091830
090C30
060400
034000
01BF80
ENDCHAR
STARTCHAR uni0915094D0930
ENCODING -1
SWIDTH 725 0
DWIDTH 15 0
BBX 16 14 -1 -1
BITMAP
7FFFFFFE
00018000
00018000
01F5AF90
0601D070
09018024
09018024
09018024
09018024
06028070
02FE8B90
00258000
00A18000
01800000
ENDCHAR
STARTCHAR uni0916094D0930
ENCODING -1
SWIDTH 698 0
DWIDTH 14 0
BBX 15 14 -1 -1
BITMAP
7FFFFFFC
00300080
00300080
00307880
00318080
00724080
1F924080
0D0240C0
0601C1C0
02407EC0
00C00880
00602480
00246080
00008000
ENDCHAR
STARTCHAR uni0917094D0930
ENCODING -1
SWIDTH 494 0
DWIDTH 10 0
BBX 11 13 -1 0
BITMAP
7FFFFC
0180C0
0180C0
0180C0
0180C0
0180C0
0241C0
2E02C0
0009C0
0028C0
0060C0
01C0C0
024080
ENDCHAR
STARTCHAR uni0918094D0930
ENCODING -1
SWIDTH 559 0
DWIDTH 11 0
BBX 13 14 -1 -1
BITMAP
7FFFFF40
06002400
09002400
09002400
06002400
02F42400
06002400
09002400
09002400
06007400
01FFA400
000A2400
00281400
00900000
ENDCHAR
STARTCHAR uni0919094D0930
ENCODING -1
SWIDTH 505 0
DWIDTH 10 0
BBX 12 16 -1 -3
BITMAP
7FFFFD
000180
000180
02FF80
060000
050014
060000
02FF40
0000C0
000090
090090
0600C0
02FF40
00AD00
018700
030180
ENDCHAR
STARTCHAR uni091A094D0930
ENCODING -1
SWIDTH 563 0
DWIDTH 11 0
BBX 13 14 -1 -1
BITMAP
7FFFFF40
00002400
00002400
00002400
1FFD2400
01802400
02002400
03002400
02002400
02807400
00BFE400
000A2400
00241400
00500000
ENDCHAR
STARTCHAR uni091B094D0930
ENCODING -1
SWIDTH 581 0
DWIDTH 12 0
BBX 13 15 -1 -2
BITMAP
7FFFFF80
06001800
06001800
06001800
0601F400
07001C00
02F00800
06000800
06000800
06000C00
06001800
01FFE000
00264000
0060C000
00806000
ENDCHAR
STARTCHAR uni091C094D0930
ENCODING -1
SWIDTH 547 0
DWIDTH 11 0
BBX 12 14 -1 -1
BITMAP
7FFFFF
000030
000030
000030
07FFF0
002430
001430
001830
001830
0024B0
1FD2B0
000630
001820
001000
ENDCHAR
STARTCHAR uni091D094D0930
ENCODING -1
SWIDTH 684 0
DWIDTH 14 0
BBX 15 14 -1 -1
BITMAP
7FFFFFF8
000300C0
000300C0
02FF00C0
060000C0
090000C0
060000C0
02FFFFC0
000240C0
090181C0
0A0246C0
0AFE18C0
090030C0
0900D040
ENDCHAR
STARTCHAR uni091E094D0930
ENCODING -1
SWIDTH 598 0
DWIDTH 12 0
BBX 14 14 -1 -1
BITMAP
7FFFFFD0
00000800
00000800
0BE00800
00240800
00080800
00080800
000FFC00
00080C00
00282C00
0FE09800
00028800
000A0800
00040000
ENDCHAR
STARTCHAR uni091F094D0930
ENCODING -1
SWIDTH 485 0
DWIDTH 10 0
BBX 11 15 -1 -2
BITMAP
7FFFF8
000180
000180
000180
01FF40
060000
090000
090000
090060
090060
060090
01FF40
006600
00C240
0240C0
ENDCHAR
STARTCHAR uni0920094D0930
ENCODING -1
SWIDTH 512 0
DWIDTH 10 0
BBX 12 16 -1 -3
BITMAP
7FFFFD
0000C0
000080
000180
01FF40
060090
090060
090060
090060
090060
060090
01FF40
007A00
00D340
0281C0
010040
ENDCHAR
STARTCHAR uni0921094D0930
ENCODING -1
SWIDTH 475 0
DWIDTH 10 0
BBX 11 16 -1 -3
BITMAP
7FFFF8
000180
000180
02FF80
060000
050000
060000
02FF40
0000C0
000090
090090
0600C0
02FF40
00A900
01C340
034180
ENDCHAR
STARTCHAR uni0922094D0930
ENCODING -1
SWIDTH 485 0
DWIDTH 10 0
BBX 11 16 -1 -3
BITMAP
7FFFFC
000180
000180
000180
01FF80
060000
090000
090B90
090860
090460
0600A0
01FF80
007A00
009340
0181C0
010040
ENDCHAR
STARTCHAR uni0923094D0930
ENCODING -1
SWIDTH 681 0
DWIDTH 14 0
BBX 15 13 -1 0
BITMAP
7FFFFFF8
06024080
06024080
06024080
06024080
06024080
06024180
03030380
01B90980
00002480
00006080
00018080
00020080
ENDCHAR
STARTCHAR uni0924094D0930
ENCODING -1
SWIDTH 493 0
DWIDTH 10 0
BBX 11 13 -1 0
BITMAP
7FFFFC
0000C0
0000C0
0000C0
02FDC0
0601C0
0900C0
0900C0
0001C0
000AC0
0024C0
01D0C0
060080
ENDCHAR
STARTCHAR uni0925094D0930
ENCODING -1
SWIDTH 593 0
DWIDTH 12 0
BBX 11 14 1 -1
BITMAP
1F80FC
3090C0
6060C0
1060C0
0090C0
BF80C0
9000C0
9000C0
9000C0
7402C0
1BFDC0
0064C0
0180C0
060000
ENDCHAR
STARTCHAR uni0926094D0930
ENCODING -1
SWIDTH 489 0
DWIDTH 10 0
BBX 11 14 -1 -1
BITMAP
7FFFFC
0000C0
0000C0
01FFC0
060000
090000
090000
090000
090090
0600D0
01BF90
001D90
003490
005000
ENDCHAR
STARTCHAR uni0927094D0930
ENCODING -1
SWIDTH 560 0
DWIDTH 11 0
BBX 13 14 -1 -1
BITMAP
7FE1FF40
06002400
09002400
09002400
06002400
02F42400
06002400
09002400
09002400
06007400
01BFE400
00072400
001C2400
00600000
ENDCHAR
STARTCHAR uni0928094D0930
ENCODING -1
SWIDTH 473 0
DWIDTH 9 0
BBX 11 13 -1 0
BITMAP
7FFFF8
000180
000180
000180
000180
07FF80
0C0180
0C0780
080E80
002580
009180
028180
060180
ENDCHAR
STARTCHAR uni092A094D0930
ENCODING -1
SWIDTH 503 0
DWIDTH 10 0
BBX 12 14 -1 -1
BITMAP
7FFFFD
060090
060090
060090
060090
060090
060090
0341D0
01BF90
000890
002490
009090
028090
010000
ENDCHAR
STARTCHAR uni092B094D0930
ENCODING -1
SWIDTH 741 0
DWIDTH 15 0
BBX 16 14 -1 -1
BITMAP
7FFFFFFF
0600C000
0600C000
0600DF90
0600E034
0600C018
0600C018
0342C018
01BEC018
0018C034
0070C790
00D0C000
0240C000
01000000
ENDCHAR
STARTCHAR uni092C094D0930
ENCODING -1
SWIDTH 491 0
DWIDTH 10 0
BBX 11 14 -1 -1
BITMAP
7FFFFC
0000C0
0000C0
01F4C0
0740C0
0A80C0
0960C0
0918C0
0906C0
0602C0
01FEC0
0018C0
0060C0
018000
ENDCHAR
STARTCHAR uni092D094D0930
ENCODING -1
SWIDTH 491 0
DWIDTH 10 0
BBX 11 13 -1 0
BITMAP
780FFC
0900C0
0600C0
0600C0
0600C0
0600C0
07FFC0
0601C0
0606C0
0018C0
0020C0
0090C0
024080
ENDCHAR
STARTCHAR uni092E094D0930
ENCODING -1
SWIDTH 490 0
DWIDTH 10 0
BBX 11 13 -1 0
BITMAP
7FFFFC
0600C0
0600C0
0600C0
0600C0
0600C0
07FFC0
0602C0
0606C0
0018C0
0070C0
01C0C0
024080
ENDCHAR
STARTCHAR uni092F094D0930
ENCODING -1
SWIDTH 564 0
DWIDTH 11 0
BBX 13 14 -1 -1
BITMAP
7FFFFF40
00202400
00242400
00242400
00302400
0B902400
09002400
09002400
09002400
07407400
01BFA400
000A2400
00282400
00900000
ENDCHAR
STARTCHAR uni0935094D0930
ENCODING -1
SWIDTH 484 0
DWIDTH 10 0
BBX 11 14 -1 -1
BITMAP
7FFFF8
0000C0
0000C0
01F4C0
0600C0
0900C0
0900C0
0900C0
0900C0
0602C0
01FEC0
0028C0
00A0C0
018000
ENDCHAR
STARTCHAR uni0936094D0930
ENCODING -1
SWIDTH 558 0
DWIDTH 11 0
BBX 12 13 0 0
BITMAP
0BE0BD
182490
241890
241890
1C2490
07D090
0BA090
781ED0
100A90
007490
02D090
010090
000090
ENDCHAR
STARTCHAR uni0938094D0930
ENCODING -1
SWIDTH 604 0
DWIDTH 12 0
BBX 14 13 -1 0
BITMAP
7FFFFFD0
00600900
00600900
00600900
00600900
00900900
1FFFFD00
0D007900
0600D900
02424900
01860900
00900900
00200900
ENDCHAR
STARTCHAR uni0939094D0930
ENCODING -1
SWIDTH 505 0
DWIDTH 10 0
BBX 12 15 -1 -2
BITMAP
7FFFFD
0000C0
0000C0
02FFC0
060000
090000
060000
02FFE0
0602A0
090620
090C20
092420
090000
060000
01BF80
ENDCHAR
STARTCHAR uni0915093C094D0930
ENCODING -1
SWIDTH 725 0
DWIDTH 15 0
BBX 16 15 -1 -2
BITMAP
7FFFFFFE
00018000
00018000
01F5AF90
0601D070
09018024
09018024
09018024
09018024
06028070
02FE8B90
00258000
00918000
01400000
00240000
ENDCHAR
STARTCHAR uni0916093C094D0930
ENCODING -1
SWIDTH 698 0
DWIDTH 14 0
BBX 15 15 -1 -2
BITMAP
7FFFFFFC
00300080
00300080
00307880
00318080
00724080
1F924080
0D0240C0
0601C1C0
02407EC0
00C00880
00602480
0024A080
00008000
00001800
ENDCHAR
STARTCHAR uni0917093C094D0930
ENCODING -1
SWIDTH 494 0
DWIDTH 10 0
BBX 11 15 -1 -2
BITMAP
7FFFFC
0180C0
0180C0
0180C0
0180C0
0180C0
0240C0
2E02C0
0009C0
0018C0
0060C0
00C0C0
0240C0
000000
002400
ENDCHAR
STARTCHAR uni091C093C094D0930
ENCODING -1
SWIDTH 547 0
DWIDTH 11 0
BBX 12 14 -1 -1
BITMAP
7FFFFF
000030
000030
000030
07FFF0
002430
001830
001830
001830
0024B0
1FD2B0
000630
001C30
141000
ENDCHAR
STARTCHAR uni0921093C094D0930
ENCODING -1
SWIDTH 475 0
DWIDTH 10 0
BBX 11 16 -1 -3
BITMAP
7FFFF8
000180
000180
02FF80
060000
050000
060000
02FF40
0000C0
000090
090090
0600C0
02FF40
20A900
018340
034180
ENDCHAR
STARTCHAR uni0922093C094D0930
ENCODING -1
SWIDTH 485 0
DWIDTH 10 0
BBX 11 16 -1 -3
BITMAP
7FFFFC
000180
000180
000180
01FF80
060000
090000
090B90
090860
090460
0600A0
01FF80
207600
00D240
0281C0
010040
ENDCHAR
STARTCHAR uni0928093C094D0930
ENCODING -1
SWIDTH 473 0
DWIDTH 9 0
BBX 11 15 -1 -2
BITMAP
7FFFF8
000180
000180
000180
000180
07FF80
0C0180
0C0780
080E80
002580
00A180
018180
070180
000000
005000
ENDCHAR
STARTCHAR uni092B093C094D0930
ENCODING -1
SWIDTH 741 0
DWIDTH 15 0
BBX 16 15 -1 -2
BITMAP
7FFFFFFF
0600C000
0600C000
0600DF90
0600E034
0600C018
0600C018
0342C018
01BEC018
0018C034
0030C790
00D0C000
0240C000
01000000
00200000
ENDCHAR
STARTCHAR uni092F093C094D0930
ENCODING -1
SWIDTH 564 0
DWIDTH 11 0
BBX 13 15 -1 -2
BITMAP
7FFFFF40
00202400
00242400
00242400
00302400
0B902400
09002400
09002400
09002400
07407400
01BFA400
000A2400
00282400
00900000
00050000
ENDCHAR
STARTCHAR uni0915094D0930094D
ENCODING -1
SWIDTH 518 0
DWIDTH 10 0
BBX 14 14 -1 -1
BITMAP
7FFFFFE0
00018000
00018000
01F5AF90
0601D060
09018000
09018000
09018000
09018000
06028000
02FE8000
00258000
00A18000
01800000
ENDCHAR
STARTCHAR uni0916094D0930094D
ENCODING -1
SWIDTH 469 0
DWIDTH 9 0
BBX 13 14 -1 -1
BITMAP
7FFFFF40
00300000
00300000
00307800
00318000
00724000
1F924000
0D024000
0601C180
02407F00
00C00900
00602400
00246000
00008000
ENDCHAR
STARTCHAR uni0917094D0930094D
ENCODING -1
SWIDTH 264 0
DWIDTH 5 0
BBX 9 13 -1 0
BITMAP
7FF400
018000
018000
018000
018000
018000
024080
2E0240
000900
002800
006000
01C000
024000
ENDCHAR
STARTCHAR uni0918094D0930094D
ENCODING -1
SWIDTH 319 0
DWIDTH 6 0
BBX 10 14 -1 -1
BITMAP
7FFFD0
060000
090000
090000
060000
02F400
060000
090000
090000
060060
01FF80
000A00
002800
009000
ENDCHAR
STARTCHAR uni091A094D0930094D
ENCODING -1
SWIDTH 331 0
DWIDTH 7 0
BBX 10 14 -1 -1
BITMAP
7FFFD0
000000
000000
000000
1FFD00
018000
020000
030000
020000
028060
00BFC0
000A00
002400
004000
ENDCHAR
STARTCHAR uni091C094D0930094D
ENCODING -1
SWIDTH 312 0
DWIDTH 6 0
BBX 10 14 -1 -1
BITMAP
7FFFD0
000000
000000
000000
07FFD0
002400
001800
001800
001800
002460
1FD180
000600
001800
001000
ENDCHAR
STARTCHAR uni091D094D0930094D
ENCODING -1
SWIDTH 441 0
DWIDTH 9 0
BBX 13 14 -1 -1
BITMAP
7FFFFE00
00030000
00030000
02FF0000
06000000
09000000
06000000
02FFFF40
00024240
09018240
0A024600
0AFE1C00
09007400
0900D000
ENDCHAR
STARTCHAR uni091E094D0930094D
ENCODING -1
SWIDTH 374 0
DWIDTH 7 0
BBX 11 14 -1 -1
BITMAP
7FFFF4
000000
000000
0BE000
002400
000800
000800
000FFC
00080C
002818
0FE060
000180
000700
000400
ENDCHAR
STARTCHAR uni091F094D0930094D
ENCODING -1
SWIDTH 485 0
DWIDTH 10 0
BBX 11 19 -1 -6
BITMAP
7FFFF8
000180
000180
000180
01FF40
060000
090000
090000
090060
090060
060090
01FF40
006600
00C240
0240C0
000800
000A00
000340
000140
ENDCHAR
STARTCHAR uni0920094D0930094D
ENCODING -1
SWIDTH 512 0
DWIDTH 10 0
BBX 12 19 -1 -6
BITMAP
7FFFFD
0000C0
000080
000180
01FF40
060090
090060
090060
090060
090060
060090
01FF40
006600
00D240
0240C0
000800
000A00
000340
000040
ENDCHAR
STARTCHAR uni0921094D0930094D
ENCODING -1
SWIDTH 475 0
DWIDTH 10 0
BBX 11 20 -1 -7
BITMAP
7FFFF8
000180
000180
02FF80
060000
050000
060000
02FF40
0000C0
000090
090090
0600C0
02FF40
00A900
01C300
034180
001800
000900
000300
000100
ENDCHAR
STARTCHAR uni0922094D0930094D
ENCODING -1
SWIDTH 485 0
DWIDTH 10 0
BBX 11 19 -1 -6
BITMAP
7FFFFC
000180
000180
000180
01FF80
060000
090000
090B90
090860
090460
0600A0
01BF80
007A00
00D240
0280C0
000800
000900
000300
000140
ENDCHAR
STARTCHAR uni0923094D0930094D
ENCODING -1
SWIDTH 457 0
DWIDTH 9 0
BBX 13 13 -1 0
BITMAP
7FFFF400
06024000
06024000
06024000
06024000
06024000
06024140
03030340
01B90900
00002400
00006000
00018000
00020000
ENDCHAR
STARTCHAR uni0924094D0930094D
ENCODING -1
SWIDTH 268 0
DWIDTH 5 0
BBX 10 13 -1 0
BITMAP
7FFFD0
000000
000000
000000
02FE00
060180
090080
090080
000180
000A00
002400
01D000
060000
ENDCHAR
STARTCHAR uni0925094D0930094D
ENCODING -1
SWIDTH 358 0
DWIDTH 7 0
BBX 9 14 1 -1
BITMAP
1F8000
309000
606000
106000
009000
BF8000
900000
900000
900000
740240
1BFD00
006400
018000
060000
ENDCHAR
STARTCHAR uni0926094D0930094D
ENCODING -1
SWIDTH 489 0
DWIDTH 10 0
BBX 11 17 -1 -4
BITMAP
7FFFFC
0000C0
0000C0
01FFC0
060000
090000
090000
090000
090090
0600D0
01BF90
000D90
003490
005000
000300
000180
000090
ENDCHAR
STARTCHAR uni0927094D0930094D
ENCODING -1
SWIDTH 322 0
DWIDTH 6 0
BBX 10 14 -1 -1
BITMAP
7FD2D0
060000
090000
090000
060000
02F400
060000
090000
090000
060060
01BFC0
000700
001800
006000
ENDCHAR
STARTCHAR uni0928094D0930094D
ENCODING -1
SWIDTH 247 0
DWIDTH 5 0
BBX 9 13 -1 0
BITMAP
7FFF40
000000
000000
000000
000000
07FF80
0C0180
0C0240
080900
002800
00A000
028000
060000
ENDCHAR
STARTCHAR uni092A094D0930094D
ENCODING -1
SWIDTH 270 0
DWIDTH 5 0
BBX 9 14 -1 -1
BITMAP
7FFE00
060000
060000
060000
060000
060000
060000
034180
01BF00
000900
002400
009000
028000
010000
ENDCHAR
STARTCHAR uni092B094D0930094D
ENCODING -1
SWIDTH 523 0
DWIDTH 10 0
BBX 14 14 -1 -1
BITMAP
7FFFFFE0
09018000
09018000
0901AF90
0901D060
0901C000
09018000
06028000
01FE8000
00198000
00618000
01C18000
03418000
05000000
ENDCHAR
STARTCHAR uni092C094D0930094D
ENCODING -1
SWIDTH 267 0
DWIDTH 5 0
BBX 9 14 -1 -1
BITMAP
7FFF80
000000
000000
01F400
074000
0A8000
096000
091800
090680
060240
01FE00
001800
006000
018000
ENDCHAR
STARTCHAR uni092D094D0930094D
ENCODING -1
SWIDTH 257 0
DWIDTH 5 0
BBX 9 13 -1 0
BITMAP
780F80
090000
060000
060000
060000
060000
07FF80
060240
060600
001800
006000
00C000
024000
ENDCHAR
STARTCHAR uni092E094D0930094D
ENCODING -1
SWIDTH 261 0
DWIDTH 5 0
BBX 9 13 -1 0
BITMAP
7FFF80
060000
060000
060000
060000
060000
07FF80
060240
060600
001800
006000
00C000
024000
ENDCHAR
STARTCHAR uni092F094D0930094D
ENCODING -1
SWIDTH 323 0
DWIDTH 6 0
BBX 10 14 -1 -1
BITMAP
7FFF80
002000
002400
002400
003000
0B9000
090000
090000
090000
074060
01BF80
000A00
002800
009000
ENDCHAR
STARTCHAR uni0935094D0930094D
ENCODING -1
SWIDTH 255 0
DWIDTH 5 0
BBX 9 14 -1 -1
BITMAP
7FFD00
000000
000000
01F400
060000
090000
090000
090000
090000
060240
01FE00
002800
00A000
018000
ENDCHAR
STARTCHAR uni0938094D0930094D
ENCODING -1
SWIDTH 347 0
DWIDTH 7 0
BBX 11 13 -1 0
BITMAP
7FFFE0
006000
006000
006000
006000
009000
1FFFF4
0D0060
0600C0
024240
018900
009000
002000
ENDCHAR
STARTCHAR uni0915093C094D0930094D
ENCODING -1
SWIDTH 518 0
DWIDTH 10 0
BBX 14 15 -1 -2
BITMAP
7FFFFFE0
00018000
00018000
01F5AF90
0601D060
09018000
09018000
09018000
09018000
06028000
02FE8000
00258000
00A18000
01800000
00240000
ENDCHAR
STARTCHAR uni0916093C094D0930094D
ENCODING -1
SWIDTH 466 0
DWIDTH 9 0
BBX 13 15 -1 -2
BITMAP
7FFFFF40
00300000
00300000
00307800
00318000
00724000
1F924000
0D024000
0601C180
02407F00
00C00900
00602400
00246000
0000C000
00000800
ENDCHAR
STARTCHAR uni0917093C094D0930094D
ENCODING -1
SWIDTH 264 0
DWIDTH 5 0
BBX 9 15 -1 -2
BITMAP
7FF400
018000
018000
018000
018000
018000
024080
2E0240
000900
001800
007000
00D000
024000
000000
002400
ENDCHAR
STARTCHAR uni091C093C094D0930094D
ENCODING -1
SWIDTH 320 0
DWIDTH 6 0
BBX 10 15 -1 -2
BITMAP
7FFFD0
000000
000000
000000
07FFD0
002400
001800
001800
001800
002410
1FD090
000240
000900
002400
140000
ENDCHAR
STARTCHAR uni0928093C094D0930094D
ENCODING -1
SWIDTH 247 0
DWIDTH 5 0
BBX 9 15 -1 -2
BITMAP
7FFF40
000000
000000
000000
000000
07FF80
0C0180
0C0240
0C0A00
001800
007000
01C000
034000
050000
006000
ENDCHAR
STARTCHAR uni092B093C094D0930094D
ENCODING -1
SWIDTH 523 0
DWIDTH 10 0
BBX 14 15 -1 -2
BITMAP
7FFFFFE0
09018000
09018000
0901AF90
0901D060
0901C000
09018000
06028000
01FE8000
00198000
00618000
01C18000
03418000
05004000
00600000
ENDCHAR
STARTCHAR uni092F093C094D0930094D
ENCODING -1
SWIDTH 323 0
DWIDTH 6 0
BBX 10 15 -1 -2
BITMAP
7FFF80
002000
002400
002400
003000
0B9000
090000
090000
090000
074060
01BF80
000A00
002800
009000
000500
ENDCHAR
STARTCHAR uni0915094D0915
ENCODING -1
SWIDTH 1255 0
DWIDTH 25 0
BBX 27 13 -1 0
BITMAP
7FFFFFFFFFFFF4
00018000090000
00018000090000
02F5AF9B8ABE00
0601D0740A0280
09018030090080
090180600900C0
090180600900C0
09018030090080
060280341D0280
02F9800BE93E00
00018000090000
00008000090000
ENDCHAR
STARTCHAR uni0915094D0916
ENCODING -1
SWIDTH 1256 0
DWIDTH 25 0
BBX 27 13 -1 0
BITMAP
7FFFFFFFFFFFF4
00018000900240
00018000900240
02F5AF8091A240
0601D090930240
09018060C60240
0901803F460240
09018024060240
0901800C034740
0602800601BA40
02F98002400240
00018000C00240
00008000500240
ENDCHAR
STARTCHAR uni0915094D091A
ENCODING -1
SWIDTH 1086 0
DWIDTH 22 0
BBX 23 13 -1 0
BITMAP
7FFFFFFFFFFC
0001800000C0
0001800000C0
02F5AE4000C0
0601D0FFE0C0
0901800900C0
0901801800C0
0901801800C0
0901801800C0
0602800D02C0
02F98006F9C0
0001800000C0
000080000080
ENDCHAR
STARTCHAR uni0915094D091C
ENCODING -1
SWIDTH 1071 0
DWIDTH 21 0
BBX 23 13 -1 0
BITMAP
7FFFFFFFFFF8
000180000180
000180000180
02F580000180
0601AF5FFF80
0901D0018180
09018000C180
09018000C180
09018000C180
06028000C180
02F980018180
000180BE0180
000080000140
ENDCHAR
STARTCHAR uni0915094D091F
ENCODING -1
SWIDTH 984 0
DWIDTH 20 0
BBX 21 13 -1 0
BITMAP
7FFFFFFFFF80
000180001800
000180001800
02F5AF901800
0601D07FF400
090180600000
090180900000
090180900000
090180900600
060280900600
02F980600900
0001801FF400
000080000000
ENDCHAR
STARTCHAR uni0915094D0923
ENCODING -1
SWIDTH 1183 0
DWIDTH 24 0
BBX 25 13 -1 0
BITMAP
7FFFFFFFFFFF80
00018060140C00
00018060140C00
02F58060140C00
0601AFE0140C00
0901D060140C00
09018060240C00
09018034340C00
0901801B900C00
06028000000C00
02F98000000C00
00018000000C00
00008000000800
ENDCHAR
STARTCHAR uni0915094D0924
ENCODING -1
SWIDTH 761 0
DWIDTH 15 0
BBX 17 13 -1 0
BITMAP
7FFFFFFF40
0000600000
0000600000
0000600000
0BFFEBE000
0180702800
0240600C00
0240600C00
0240600C00
0240600C00
0180602800
00B862E000
0000500000
ENDCHAR
STARTCHAR uni0915094D0925
ENCODING -1
SWIDTH 1118 0
DWIDTH 22 0
BBX 24 13 -1 0
BITMAP
7FFFFE0B907E
000180247060
000180243060
02F580103060
060180006060
0901AFFF8060
0901D0600060
090180600060
0901806000A0
0602802401E0
02F9800BFEA0
000180000060
000080000050
ENDCHAR
STARTCHAR uni0915094D0926
ENCODING -1
SWIDTH 1009 0
DWIDTH 20 0
BBX 22 13 -1 0
BITMAP
7FFFFFFFFFD0
000180000900
000180000900
02F5AF9BFD00
0601D0740000
090180600000
090180600000
090180600000
090180200600
060280340A00
02F9800BFA00
000180000600
000180000600
ENDCHAR
STARTCHAR uni0915094D092A
ENCODING -1
SWIDTH 1007 0
DWIDTH 20 0
BBX 22 13 -1 0
BITMAP
7FFFFFFFFFD0
000180600900
000180600900
02F580600900
0601AFE00900
0901D0600900
090180600900
090180341D00
0901801BE900
060280000900
02F980000900
000180000900
000080000900
ENDCHAR
STARTCHAR uni0915094D092B
ENCODING -1
SWIDTH 1242 0
DWIDTH 25 0
BBX 26 13 -1 0
BITMAP
7FFFFFFFFFFFF0
000180600C0000
000180600C0000
02F580600DF900
0601AFE00E0340
0901D0600C0180
090180600C0180
090180341C0180
0901801BEC0180
060280000C0340
02F980000C7900
000180000C0000
00008000080000
ENDCHAR
STARTCHAR uni0915094D092E
ENCODING -1
SWIDTH 994 0
DWIDTH 20 0
BBX 21 13 -1 0
BITMAP
7FFFFFFFFFC0
000180600C00
000180600C00
02F580600C00
0601AFE00C00
0901D0600C00
0901807FFC00
090180600C00
090180600C00
060280000C00
02F980000C00
000180000C00
000080000800
ENDCHAR
STARTCHAR uni0915094D092F
ENCODING -1
SWIDTH 1076 0
DWIDTH 22 0
BBX 23 13 -1 0
BITMAP
7FFFFFFFFFF8
000180024180
000180018180
02F580024180
0601AFFE0180
0901D0600180
090180600180
090180600180
090180600180
060280240780
02F9800BF980
000180000180
000080000180
ENDCHAR
STARTCHAR uni0915094D0932
ENCODING -1
SWIDTH 1178 0
DWIDTH 24 0
BBX 25 13 -1 0
BITMAP
7FFFFFFFFFFF80
00018000001800
00018000001800
02F5AF90001800
0601D07F8BA800
09018060782800
09018090301800
09018090301800
09018090201800
06028050001800
02F98060001800
0001801B401800
00008000001800
ENDCHAR
STARTCHAR uni0915094D0935
ENCODING -1
SWIDTH 1013 0
DWIDTH 20 0
BBX 22 13 -1 0
BITMAP
7FFFFFFFFFD0
000180000900
000180000900
02F5AF9BC900
0601D0740900
090180300900
090180200900
090180200900
090180300900
060280241D00
02F9800BE900
000180000900
000080000500
ENDCHAR
STARTCHAR uni0915094D0936
ENCODING -1
SWIDTH 1194 0
DWIDTH 24 0
BBX 25 13 -1 0
BITMAP
7FFFFF46F40FC0
000180090C0C00
0001800C090C00
02F5AF80090C00
0601D060090C00
090180301C0C00
0901802FE40C00
09018018000C00
09018009000C00
06028003000C00
02F98001800C00
00018000900C00
00008000200800
ENDCHAR
STARTCHAR uni0915094D0938
ENCODING -1
SWIDTH 1143 0
DWIDTH 23 0
BBX 24 13 -1 0
BITMAP
7FFFFFFFFFFF
00018000C030
00018000C030
02F5AF80C030
0601D060C030
090180318030
0901803FFFF0
090180280030
0901800C0030
060280060030
02F980034030
000180018030
000080009020
ENDCHAR
STARTCHAR uni0916094D0916
ENCODING -1
SWIDTH 1223 0
DWIDTH 24 0
BBX 26 13 -1 0
BITMAP
7FFFFFFFFFFFE0
00300001800600
00300001800600
0030780182C600
00318001890600
007240024C0600
1F9240BE0C0600
0D0240600C0600
060181A4090A00
02807E4C02E600
00D00006000600
00600002400600
00240000800600
ENDCHAR
STARTCHAR uni0916094D0924
ENCODING -1
SWIDTH 984 0
DWIDTH 20 0
BBX 21 13 -1 0
BITMAP
7FFFFFFFFF80
003000000C00
003000000C00
003078000C00
0031802FFC00
007240A00C00
1F9240C00C00
0D0240C00C00
060180C00C00
02407FC00C00
00C000C00C00
006000A00C00
0024002D0800
ENDCHAR
STARTCHAR uni0916094D092E
ENCODING -1
SWIDTH 965 0
DWIDTH 19 0
BBX 21 13 -1 0
BITMAP
7FFFFFFFFF40
003000C02400
003000C02400
003078C02400
003180C02400
007240C02400
1F9240FFF400
0D0240C02400
060181C02400
02806E402400
00D000002400
006000002400
002400001400
ENDCHAR
STARTCHAR uni0916094D092F
ENCODING -1
SWIDTH 1047 0
DWIDTH 21 0
BBX 22 13 -1 0
BITMAP
7FFFFFFFFFF0
003000060300
003000030300
003078030300
003180060300
007240F80300
1F9240C00300
0D0240C00300
060181C00300
02807E600B00
00D0001FF700
006000000300
002400000200
ENDCHAR
STARTCHAR uni0916094D0935
ENCODING -1
SWIDTH 975 0
DWIDTH 20 0
BBX 21 13 -1 0
BITMAP
7FFFFFFFFF80
003000001800
003000001800
0030782F1800
003180A01800
007240801800
1F9240C01800
0D0240C01800
060240C01800
0281C1E02800
00D07E6FA800
006000001800
002400001800
ENDCHAR
STARTCHAR uni0916094D0936
ENCODING -1
SWIDTH 1123 0
DWIDTH 22 0
BBX 24 13 -1 0
BITMAP
7FFFFC1F807E
003000706060
003000603060
003078103060
003180002060
00724000A060
1F9242FF8060
0D0241800060
060181D00060
02807E700060
00D000180060
006000090060
002400020060
ENDCHAR
STARTCHAR uni0917094D0917
ENCODING -1
SWIDTH 744 0
DWIDTH 15 0
BBX 16 13 -1 0
BITMAP
7FFFFFFF
01806030
01806030
01806030
01806030
01806030
02409030
2E0B8030
00000030
00000030
00000030
00000030
00000020
ENDCHAR
STARTCHAR uni0917094D0918
ENCODING -1
SWIDTH 823 0
DWIDTH 16 0
BBX 18 13 -1 0
BITMAP
7FFFFFFFE0
0180C00600
0181800600
0181800600
0180C00600
01807E0600
0240C00600
2E01800600
0001800600
0000D00E00
00006FEA00
0000000600
0000000600
ENDCHAR
STARTCHAR uni0917094D091C
ENCODING -1
SWIDTH 801 0
DWIDTH 16 0
BBX 18 13 -1 0
BITMAP
7FFFFFFFD0
0180000900
0180000900
0180000900
0181FFFD00
0180090900
0240060900
2E00060900
0000060900
0000060900
0000090900
0007F40900
0000000800
ENDCHAR
STARTCHAR uni0917094D0923
ENCODING -1
SWIDTH 945 0
DWIDTH 19 0
BBX 20 13 -1 0
BITMAP
7FFFFFFFFF
0180C06030
0180C06030
0180C06030
0180C06030
0180C06030
0240C06030
2E00909030
00006F8030
0000000030
0000000030
0000000030
0000000020
ENDCHAR
STARTCHAR uni0917094D0926
ENCODING -1
SWIDTH 748 0
DWIDTH 15 0
BBX 16 13 -1 0
BITMAP
7FFFFFFF
01800020
01800020
01806FF0
0180D000
01818000
02418000
2E018000
00018014
0000D024
00006FA4
00000014
00000014
ENDCHAR
STARTCHAR uni0917094D0927
ENCODING -1
SWIDTH 823 0
DWIDTH 16 0
BBX 18 13 -1 0
BITMAP
7FFFF87FE0
0180C00600
0181800600
0181800600
0180D00600
01807E0600
0240D00600
2E01800600
0001800600
0001800600
0000D00E00
00006FE600
0000000600
ENDCHAR
STARTCHAR uni0917094D092C
ENCODING -1
SWIDTH 755 0
DWIDTH 15 0
BBX 17 13 -1 0
BITMAP
7FFFFFFF40
0180002400
0180002400
01806E2400
0180D02400
0181A42400
0241892400
2E0182A400
000180B400
0000D07400
00006FA400
0000002400
0000002400
ENDCHAR
STARTCHAR uni0917094D092D
ENCODING -1
SWIDTH 755 0
DWIDTH 15 0
BBX 17 13 -1 0
BITMAP
7FFE02FF40
0181802400
0180802400
0180C02400
0180C02400
0180C02400
0240FFF400
2E00C02400
0000802400
0000002400
0000002400
0000002400
0000002400
ENDCHAR
STARTCHAR uni0917094D092E
ENCODING -1
SWIDTH 754 0
DWIDTH 15 0
BBX 17 13 -1 0
BITMAP
7FFFFFFF40
0180802400
0180802400
0180802400
0180802400
0180802400
0240FFF400
2E00802400
0000802400
0000002400
0000002400
0000002400
0000002400
ENDCHAR
STARTCHAR uni0917094D092F
ENCODING -1
SWIDTH 828 0
DWIDTH 17 0
BBX 18 13 -1 0
BITMAP
7FFFFFFFE0
0180090600
0180060600
0180060600
0180090600
0181F80600
0241800600
2E01800600
0001800600
0000D01E00
00002FE600
0000000600
0000000600
ENDCHAR
STARTCHAR uni0917094D0932
ENCODING -1
SWIDTH 924 0
DWIDTH 18 0
BBX 20 13 -1 0
BITMAP
7FFFFFFFFE
0180000060
0180000060
0180000060
01807E2EA0
018181D0A0
024240C060
2E0240C060
0002404060
0002400060
0001800060
00007D0060
0000000060
ENDCHAR
STARTCHAR uni0917094D0935
ENCODING -1
SWIDTH 747 0
DWIDTH 15 0
BBX 16 13 -1 0
BITMAP
7FFFFFFF
01800020
01800020
01806E20
0180D020
01818020
02418020
2E018020
00018030
0000D070
00006FA0
00000020
00000020
ENDCHAR
STARTCHAR uni0917094D0938
ENCODING -1
SWIDTH 839 0
DWIDTH 17 0
BBX 18 13 -1 0
BITMAP
7FFFFFFFF0
01800C0300
01800C0300
01800C0300
01800C0300
0180180300
0243FFFF00
2E02400300
0000C00300
0000A00300
0000300300
0000180300
0000080200
ENDCHAR
STARTCHAR uni0918094D092E
ENCODING -1
SWIDTH 818 0
DWIDTH 16 0
BBX 18 13 -1 0
BITMAP
7FFFFFFFE0
0600300600
0900300600
0900300600
0600300600
02F4300600
06003FFE00
0900300600
0900300600
0600700600
01FF900600
0000000600
0000000500
ENDCHAR
STARTCHAR uni0918094D092F
ENCODING -1
SWIDTH 867 0
DWIDTH 17 0
BBX 19 13 -1 0
BITMAP
7FFFFFFFF4
0600020180
0900024180
0900024180
0600030180
02F4B90180
0600900180
0900900180
0900500280
0600740780
01FF9BFA80
0000000180
0000000140
ENDCHAR
STARTCHAR uni091A094D091A
ENCODING -1
SWIDTH 868 0
DWIDTH 17 0
BBX 19 13 -1 0
BITMAP
7FFFFFFFF8
0000000180
0000000180
0000000180
1FF8BFD180
0180180180
0200240180
0300200180
0200240280
0280780780
00BF9BFA80
0000000180
0000000140
ENDCHAR
STARTCHAR uni091A094D091B
ENCODING -1
SWIDTH 922 0
DWIDTH 18 0
BBX 20 12 -1 1
BITMAP
7FFFFFFFFE
0000180090
0000240090
0000240090
1FFD2407D0
0180180060
02000BC030
0300180030
0200240030
0280740030
00BFA800A0
00000BFF80
ENDCHAR
STARTCHAR uni091A094D092E
ENCODING -1
SWIDTH 830 0
DWIDTH 17 0
BBX 18 13 -1 0
BITMAP
7FFFFFFFE0
0000240600
0000240600
0000240600
1FFD240600
01802FFE00
0200240600
0300240600
0200240600
0180600600
00BF800600
0000000600
0000000200
ENDCHAR
STARTCHAR uni091A094D092F
ENCODING -1
SWIDTH 904 0
DWIDTH 18 0
BBX 20 13 -1 0
BITMAP
7FFFFFFFFD
0000018090
000000C090
000000C090
1FFD018090
01802E4090
0200300090
0300300090
02002400D0
02807802D0
00BF87FE90
0000000090
0000000090
ENDCHAR
STARTCHAR uni091B094D092F
ENCODING -1
SWIDTH 1068 0
DWIDTH 21 0
BBX 23 13 -1 0
BITMAP
7FFFFFFFFFF8
060000000180
060000000180
0601FFFE4180
06001C018180
07000800C180
02F008018180
0600083E4180
060008300280
06000C280780
0600180BFA80
01FFE0000180
000000000140
ENDCHAR
STARTCHAR uni091B094D0935
ENCODING -1
SWIDTH 581 0
DWIDTH 12 0
BBX 13 15 -1 -2
BITMAP
7FFFFF80
06001800
06001800
0601F400
06001C00
02F00800
07000800
06000800
06000C00
07001800
02FFF800
02401800
03001400
02402400
00BF9000
ENDCHAR
STARTCHAR uni091C094D0915
ENCODING -1
SWIDTH 1054 0
DWIDTH 21 0
BBX 23 13 -1 0
BITMAP
7FFFFFFFFFF4
000000090000
000000090000
00001B8AFE00
07FFF40A0280
002470090080
0018600900C0
0018600900C0
001830090080
0014241D0280
00340BE93E00
1FD000090000
000000090000
ENDCHAR
STARTCHAR uni091C094D091C
ENCODING -1
SWIDTH 903 0
DWIDTH 18 0
BBX 20 13 -1 0
BITMAP
7FFFFFFFFD
0000000090
0000000090
0000000090
07FF8BFFD0
0024009090
0018006090
0018006090
0018006090
0014006090
0034009090
1FD07F8090
0000000080
ENDCHAR
STARTCHAR uni091C094D091D
ENCODING -1
SWIDTH 990 0
DWIDTH 20 0
BBX 21 14 -1 -1
BITMAP
7FFFFFFFFFC0
000000180C00
000000180C00
00001FF40C00
07FFF4000C00
002430000C00
001824000C00
00181BFFFC00
0018000C0C00
001420080C00
0034340C0C00
1FD03FE40C00
000020000C00
000020000000
ENDCHAR
STARTCHAR uni091C094D091F
ENCODING -1
SWIDTH 815 0
DWIDTH 16 0
BBX 18 12 -1 1
BITMAP
7FFFFFFFD0
0000000900
0000000900
0000000900
0BFFDBFC00
0030340000
0024300000
0024300000
0024300140
0024300240
0030240700
1F900BF900
ENDCHAR
STARTCHAR uni091C094D0921
ENCODING -1
SWIDTH 797 0
DWIDTH 16 0
BBX 17 13 -1 0
BITMAP
7FFFFFFFC0
0000000C00
0000000C00
00000BFC00
0BFFF40000
0030300000
0024340000
00241BF800
0024000A00
0024000600
0030200600
1F90300900
00001FF800
ENDCHAR
STARTCHAR uni091C094D0924
ENCODING -1
SWIDTH 830 0
DWIDTH 17 0
BBX 18 13 -1 0
BITMAP
7FFFFFFFE0
0000000600
0000000600
0000000600
0BFFEBFE00
0030340600
0024300600
0024300600
0024300600
0024300600
0030300600
1F90280600
00000B4600
ENDCHAR
STARTCHAR uni091C094D0926
ENCODING -1
SWIDTH 817 0
DWIDTH 16 0
BBX 18 13 -1 0
BITMAP
7FFFFFFFD0
0000000600
0000000600
00000BFD00
07FFF40000
0024300000
0018300000
0018300000
0018300200
0014240700
00340BFB00
1FD0000300
0000000200
ENDCHAR
STARTCHAR uni091C094D092C
ENCODING -1
SWIDTH 820 0
DWIDTH 16 0
BBX 18 13 -1 0
BITMAP
7FFFFFFFE0
0000000600
0000000600
00001BC600
07FFF80600
0024260600
0018218600
0018206600
0018301E00
0014241E00
00340BEA00
1FD0000600
0000000500
ENDCHAR
STARTCHAR uni091C094D092E
ENCODING -1
SWIDTH 813 0
DWIDTH 16 0
BBX 18 13 -1 0
BITMAP
7FFFFFFFD0
0000300900
0000300900
0000300900
07FFF00900
0024300900
00183FFD00
0018300900
0018300900
0014200900
0034000900
1FD0000900
0000000500
ENDCHAR
STARTCHAR uni091C094D092F
ENCODING -1
SWIDTH 893 0
DWIDTH 18 0
BBX 19 13 -1 0
BITMAP
7FFFFFFFFC
00000180C0
000000C0C0
000000C0C0
0BFFD180C0
00203E00C0
00243000C0
00243000C0
00243000C0
00242802C0
003006FDC0
1F900000C0
0000000080
ENDCHAR
STARTCHAR uni091C094D0935
ENCODING -1
SWIDTH 813 0
DWIDTH 16 0
BBX 18 13 -1 0
BITMAP
7FFFFFFFD0
0000000900
0000000900
00001BC900
07FFF40900
0024300900
0018200900
0018200900
0018300900
0014241D00
00340BE900
1FD0000900
0000000500
ENDCHAR
STARTCHAR uni091D094D092E
ENCODING -1
SWIDTH 936 0
DWIDTH 19 0
BBX 20 14 -1 -1
BITMAP
7FFFFFFFFF
0003024030
0003024030
02FF024030
0600024030
0900024030
060002FFF0
02FFFF4030
0002424030
0901814030
0A02400030
0AFE000030
0900000030
0900000000
ENDCHAR
STARTCHAR uni091D094D092F
ENCODING -1
SWIDTH 1000 0
DWIDTH 20 0
BBX 22 14 -1 -1
BITMAP
7FFFFFFFFFD0
000300180900
0003000C0900
02FF000C0900
060000180900
090003E00900
060003000900
02FFFF000900
000242400D00
090181802D00
0A02406FE900
0AFE00000900
090000000900
090000000000
ENDCHAR
STARTCHAR uni091E094D091B
ENCODING -1
SWIDTH 913 0
DWIDTH 18 0
BBX 20 12 -1 1
BITMAP
7FFFFFFFFD
0000280090
0000240090
0BE0300090
0028240BC0
00181800A0
000FFF8020
0008280020
0018300020
0024200060
0FD0280090
00000BFF80
ENDCHAR
STARTCHAR uni091E094D091C
ENCODING -1
SWIDTH 932 0
DWIDTH 19 0
BBX 20 13 -1 0
BITMAP
7FFFFFFFFE
0000000020
0000000020
0000000020
0BE00BFFE0
0028006020
0008002420
000FD02420
0008002420
0024002420
0FE0007020
00002F9020
0000000020
ENDCHAR
STARTCHAR uni091E094D0936
ENCODING -1
SWIDTH 975 0
DWIDTH 20 0
BBX 21 13 -1 0
BITMAP
7FFF07E41F80
00000C181800
0000180C1800
0BE0180C1800
0028000C1800
000800281800
000FFFE01800
000818001800
000809001800
002407001800
0FE002401800
000000C01800
000000601800
ENDCHAR
STARTCHAR uni091F094D091F
ENCODING -1
SWIDTH 494 0
DWIDTH 10 0
BBX 11 19 -1 -6
BITMAP
7FFFFC
000180
000180
01FF40
060000
090000
090010
090060
060090
01FF80
000180
000180
01FF40
060000
090000
090010
090060
060090
01FE40
ENDCHAR
STARTCHAR uni091F094D0920
ENCODING -1
SWIDTH 495 0
DWIDTH 10 0
BBX 11 19 -1 -6
BITMAP
7FFFFC
000180
000180
01FF40
060000
090000
090010
090060
060090
01FFC0
000180
000280
01FF40
060090
090060
090060
090060
060090
01BF40
ENDCHAR
STARTCHAR uni091F094D092F
ENCODING -1
SWIDTH 990 0
DWIDTH 20 0
BBX 21 13 -1 0
BITMAP
7FFFFFFFFFC0
000180000C00
000180000C00
000180000C00
01FFFFF80C00
060000090C00
090000050C00
090000090C00
090011F40C00
090061800C00
060090D02C00
01BF806FDC00
000000000800
ENDCHAR
STARTCHAR uni091F094D0935
ENCODING -1
SWIDTH 501 0
DWIDTH 10 0
BBX 12 15 -1 -2
BITMAP
7FFFFD
000180
000180
01BF80
070000
090000
090010
090030
090060
0700A0
02FFD0
060050
060090
0600C0
01FE40
ENDCHAR
STARTCHAR uni0920094D092F
ENCODING -1
SWIDTH 998 0
DWIDTH 20 0
BBX 22 13 -1 0
BITMAP
7FFFFFFFFFD0
000180000800
000180000800
000180000800
01FF4BF80800
0600B4090800
090060060800
090060090800
090061F80800
090061800C00
060090D02C00
01FF406FD800
000000000800
ENDCHAR
STARTCHAR uni0921094D0921
ENCODING -1
SWIDTH 493 0
DWIDTH 10 0
BBX 11 19 -1 -6
BITMAP
7FFFFC
000180
000180
02FF80
060000
060000
02FF40
0000C0
050090
090090
0600C0
03FF40
060000
060000
02FF40
000090
090090
060090
02FF40
ENDCHAR
STARTCHAR uni0921094D0922
ENCODING -1
SWIDTH 493 0
DWIDTH 10 0
BBX 11 18 -1 -5
BITMAP
7FFFFC
000180
000180
02FF80
060000
050000
060000
02FF40
000090
090090
0600D0
03FF40
060000
090B90
090860
090420
060060
01FF80
ENDCHAR
STARTCHAR uni0921094D092F
ENCODING -1
SWIDTH 973 0
DWIDTH 19 0
BBX 21 13 -1 0
BITMAP
7FFFFFFFFF80
000180001800
000180001800
02FFFFE41800
0600001C1800
0500000C1800
0600001C1800
02FF42E41800
0000C2001800
000092402800
050091807800
0600C06F9800
02FE40001800
ENDCHAR
STARTCHAR uni0921094D0935
ENCODING -1
SWIDTH 493 0
DWIDTH 10 0
BBX 11 16 -1 -3
BITMAP
7FFFFC
000180
000180
02FF80
060000
060000
02FF40
0000D0
050090
090090
0600D0
02FE90
020090
060090
030180
01BE40
ENDCHAR
STARTCHAR uni0922094D092F
ENCODING -1
SWIDTH 981 0
DWIDTH 20 0
BBX 21 13 -1 0
BITMAP
7FFFFFFFFF80
000180001800
000180001800
000180001800
01FFFFE41800
0600000C1800
090000091800
090B900C1800
090862E41800
091862401800
0600A1807800
01BF806F9800
000000000800
ENDCHAR
STARTCHAR uni0923094D091F
ENCODING -1
SWIDTH 908 0
DWIDTH 18 0
BBX 20 12 -1 1
BITMAP
7FFFFFFFFD
06024000C0
06024000C0
06024000C0
060240BFC0
0602434000
0602420000
0303060000
01B9060020
0000020030
0000034060
000000BF80
ENDCHAR
STARTCHAR uni0923094D0920
ENCODING -1
SWIDTH 936 0
DWIDTH 19 0
BBX 20 12 -1 1
BITMAP
7FFFFFFFFF
0602400090
0602400090
06024000C0
060240BF80
0602434070
0602420024
0303060024
01B9060024
0000020020
0000034070
000000BF90
ENDCHAR
STARTCHAR uni0923094D0921
ENCODING -1
SWIDTH 892 0
DWIDTH 18 0
BBX 19 13 -1 0
BITMAP
7FFFFFFFFC
06024000C0
06024000C0
060241BFC0
0602430000
0602460000
0602430000
030301BF80
01B9000090
0000000060
0000060060
0000030090
000001FF80
ENDCHAR
STARTCHAR uni0923094D0922
ENCODING -1
SWIDTH 908 0
DWIDTH 18 0
BBX 20 12 -1 1
BITMAP
7FFFFFFFFD
0602400080
0602400080
0602400080
060240BFC0
0602424000
0602430000
03030207E0
01B9020930
0000030424
0000024030
000000BF90
ENDCHAR
STARTCHAR uni0923094D0923
ENCODING -1
SWIDTH 1127 0
DWIDTH 23 0
BBX 24 13 -1 0
BITMAP
7FFFFFFFFFFE
060241809060
060241809060
060241809060
060241809060
060241809060
060241809060
030301C1C060
01B9006E4060
000000000060
000000000060
000000000060
000000000060
ENDCHAR
STARTCHAR uni0923094D092E
ENCODING -1
SWIDTH 932 0
DWIDTH 19 0
BBX 20 13 -1 0
BITMAP
7FFFFFFFFE
0602424020
0602424020
0602424020
0602424020
0602424020
060242FFE0
0303024020
01B9024020
0000000020
0000000020
0000000020
0000000020
ENDCHAR
STARTCHAR uni0923094D092F
ENCODING -1
SWIDTH 998 0
DWIDTH 20 0
BBX 21 13 -1 0
BITMAP
7FFFFFFFFFC0
060240180C00
0602400C0C00
0602400C0C00
060240180C00
060243E00C00
060243000C00
030303000C00
01B903000C00
000001802C00
0000006FDC00
000000000C00
000000000800
ENDCHAR
STARTCHAR uni0923094D0935
ENCODING -1
SWIDTH 923 0
DWIDTH 18 0
BBX 20 13 -1 0
BITMAP
7FFFFFFFFE
0602400060
0602400060
060240BC60
0602428060
0602430060
0602430060
0303030060
01B9030060
00000280A0
000000BEA0
0000000060
0000000060
ENDCHAR
STARTCHAR uni0924094D0915
ENCODING -1
SWIDTH 992 0
DWIDTH 20 0
BBX 21 13 -1 0
BITMAP
7FFFFFFFFFC0
000000300000
000000300000
00006E37F400
02FFD0380900
060180300600
090180300600
090180300600
090180300600
0900D0700900
09006F71E400
060000300000
01E000200000
ENDCHAR
STARTCHAR uni0924094D0916
ENCODING -1
SWIDTH 1014 0
DWIDTH 20 0
BBX 22 13 -1 0
BITMAP
7FFFFFFFFFD0
000001400900
000001400900
00000146C900
02FE424D0900
060182580900
0900FD180900
0900A0180900
0900340D1D00
09001806E900
090009000900
060003000900
02E001800500
ENDCHAR
STARTCHAR uni0924094D0924
ENCODING -1
SWIDTH 542 0
DWIDTH 11 0
BBX 12 13 -1 0
BITMAP
7FFFFF
000030
000030
000030
1FFFF0
018030
024030
024030
024030
024030
024030
018030
00B830
ENDCHAR
STARTCHAR uni0924094D0925
ENCODING -1
SWIDTH 869 0
DWIDTH 17 0
BBX 19 13 -1 0
BITMAP
7FF82F41F8
000090C180
000090C180
000000C180
0000018180
02FFFE4180
0601800180
0901800180
0900C00280
0900900780
09002FFA80
0600000180
02E0000140
ENDCHAR
STARTCHAR uni0924094D092A
ENCODING -1
SWIDTH 757 0
DWIDTH 15 0
BBX 17 13 -1 0
BITMAP
7FFFFFFF40
0001802400
0001802400
0001802400
02FF802400
0601802400
0901802400
0900D07400
09006FA400
0900002400
0900002400
0600002400
02E0002400
ENDCHAR
STARTCHAR uni0924094D092B
ENCODING -1
SWIDTH 992 0
DWIDTH 20 0
BBX 21 13 -1 0
BITMAP
7FFFFFFFFFC0
000180300000
000180300000
0001803BE400
02FF80380D00
060180300600
090180300600
0900D0700600
09006FB00600
090000300D00
09000031E400
060000300000
02E000200000
ENDCHAR
STARTCHAR uni0924094D092E
ENCODING -1
SWIDTH 764 0
DWIDTH 15 0
BBX 17 13 -1 0
BITMAP
7FFFFFFF40
0000C02400
0000C02400
0000C02400
02FFC02400
0600C02400
0900FFF400
0900C02400
0900C02400
0900402400
0900002400
0600002400
01E0001400
ENDCHAR
STARTCHAR uni0924094D092F
ENCODING -1
SWIDTH 830 0
DWIDTH 17 0
BBX 18 13 -1 0
BITMAP
7FFFFFFFE0
0000090600
0000060600
0000060600
0000090600
02FFF80600
0601800600
0901800600
0901800600
0900901E00
09002FE600
0600000600
02E0000200
ENDCHAR
STARTCHAR uni0924094D0932
ENCODING -1
SWIDTH 957 0
DWIDTH 19 0
BBX 21 13 -1 0
BITMAP
7FFFFFFFFF40
000000002400
000000002400
000000002400
02FE6F5BA400
0601D0B07400
0900C0602400
0900C0602400
0900C0502400
0900C0002400
090090002400
06002F002400
02E000002400
ENDCHAR
STARTCHAR uni0924094D0935
ENCODING -1
SWIDTH 751 0
DWIDTH 15 0
BBX 17 13 -1 0
BITMAP
7FFFFFFF40
0000002400
0000002400
00006E2400
02FFD02400
0601802400
0901802400
0901802400
0901803400
0900D07400
09006FA400
0600002400
01E0002000
ENDCHAR
STARTCHAR uni0924094D0938
ENCODING -1
SWIDTH 876 0
DWIDTH 18 0
BBX 19 13 -1 0
BITMAP
7FFFFFFFF8
0000060180
0000060180
0000060180
02FE060180
0602490180
0901FFFF80
0900D00180
0900600180
0900240180
0900180180
0600090180
02E0060180
ENDCHAR
STARTCHAR uni0925094D092F
ENCODING -1
SWIDTH 931 0
DWIDTH 19 0
BBX 18 13 1 0
BITMAP
1F82FFFFE0
3090090600
6060060600
1060060600
0090090600
BF81F80600
9001800600
9001800600
9001800600
7402D01A00
1BF92FE600
0000000600
0000000200
ENDCHAR
STARTCHAR uni0925094D0935
ENCODING -1
SWIDTH 862 0
DWIDTH 17 0
BBX 17 13 1 0
BITMAP
1F82FFFF40
3090002400
6060002400
10602E2400
0090902400
BF80C02400
9000802400
9000802400
9000C02400
7402D07400
1BF96FA400
0000002400
0000001400
ENDCHAR
STARTCHAR uni0926094D0917
ENCODING -1
SWIDTH 489 0
DWIDTH 10 0
BBX 11 15 -1 -2
BITMAP
7FFFFC
0000C0
0000C0
01FFC0
070000
090000
090000
090090
090090
0601D0
01FE90
006090
005090
009000
0B4000
ENDCHAR
STARTCHAR uni0926094D0918
ENCODING -1
SWIDTH 686 0
DWIDTH 14 0
BBX 15 14 -1 -1
BITMAP
7FFFFFFC
000000C0
000000C0
0001FF80
00060000
06FD0000
09090000
0C090000
09090090
07D600D0
0902FE90
0C018090
09024090
06FE0000
ENDCHAR
STARTCHAR uni0926094D0926
ENCODING -1
SWIDTH 506 0
DWIDTH 10 0
BBX 12 14 -1 -1
BITMAP
7FFFFD
000090
000090
02FFC0
060000
060000
060000
02FC00
060000
060060
0600A0
02FFA0
000060
000060
ENDCHAR
STARTCHAR uni0926094D0927
ENCODING -1
SWIDTH 686 0
DWIDTH 14 0
BBX 15 14 -1 -1
BITMAP
7FFFFFFC
000000C0
000000C0
0001FF80
00060000
06C90000
09090000
0C090000
09090090
07D600D0
0902FE90
0C018090
09024090
06FE0000
ENDCHAR
STARTCHAR uni0926094D092C
ENCODING -1
SWIDTH 481 0
DWIDTH 10 0
BBX 11 16 -1 -3
BITMAP
7FFFF8
0000C0
0000C0
01FFC0
060000
090000
090000
090040
090090
0600D0
02FE90
079090
062490
060990
0703C0
01BE40
ENDCHAR
STARTCHAR uni0926094D092D
ENCODING -1
SWIDTH 499 0
DWIDTH 10 0
BBX 12 17 -1 -4
BITMAP
7FFFFD
0000C0
0000C0
01BFC0
070000
060000
090040
0600C0
0341C0
01BEC0
0E00C0
0240C0
0180C0
01FFC0
0180C0
0040C0
000040
ENDCHAR
STARTCHAR uni0926094D092E
ENCODING -1
SWIDTH 706 0
DWIDTH 14 0
BBX 16 14 -1 -1
BITMAP
7FFFFFFD
00024090
00024090
02FF4090
0A000090
0C000090
0C018090
0A028090
02FA8090
0001FFD0
00018090
00018090
00000090
00000040
ENDCHAR
STARTCHAR uni0926094D092F
ENCODING -1
SWIDTH 583 0
DWIDTH 12 0
BBX 13 13 -1 0
BITMAP
7FFFFF80
000C0800
000C0800
02FC0800
06000800
05000800
06000800
02F40800
06000800
05001800
06002800
02FFE800
00000800
ENDCHAR
STARTCHAR uni0926094D0935
ENCODING -1
SWIDTH 483 0
DWIDTH 10 0
BBX 11 16 -1 -3
BITMAP
7FFFF8
0000C0
0000C0
01FFC0
060000
090000
090000
090040
090090
0600D0
02FE90
030090
060090
060090
0301C0
01BE40
ENDCHAR
STARTCHAR uni0927094D092E
ENCODING -1
SWIDTH 817 0
DWIDTH 16 0
BBX 18 13 -1 0
BITMAP
7FE0FFFFE0
0600300600
0900300600
0900300600
0600300600
02F4300600
06003FFE00
0900300600
0900300600
0600700600
01FF900600
0000000600
0000000500
ENDCHAR
STARTCHAR uni0927094D092F
ENCODING -1
SWIDTH 886 0
DWIDTH 18 0
BBX 19 13 -1 0
BITMAP
7FE0FFFFFC
06000240C0
09000180C0
09000180C0
06000240C0
02F43E00C0
06006000C0
09006000C0
09003001C0
06003802C0
01FF9BF9C0
00000000C0
0000000080
ENDCHAR
STARTCHAR uni0927094D0935
ENCODING -1
SWIDTH 810 0
DWIDTH 16 0
BBX 18 13 -1 0
BITMAP
7FE0FFFFD0
0600000900
0900000900
09000B8900
0600340900
02F4200900
0600600900
0900600900
0900200900
0600741D00
01FF9BE900
0000000900
0000000500
ENDCHAR
STARTCHAR uni0928094D0915
ENCODING -1
SWIDTH 973 0
DWIDTH 19 0
BBX 21 13 -1 0
BITMAP
7FFFFFFFFF80
000000600000
000000600000
0000BC6BE000
000280741C00
0BFF40600800
1C0300600900
180300600900
080240600800
000180A01C00
0000BE62E000
000000600000
000000600000
ENDCHAR
STARTCHAR uni0928094D091A
ENCODING -1
SWIDTH 820 0
DWIDTH 16 0
BBX 18 13 -1 0
BITMAP
7FFFFFFFE0
0000000600
0000000600
0000000600
0002FF4600
0000600600
07FD900600
0C00900600
0800900600
0C00600E00
00002FEA00
0000000600
0000000500
ENDCHAR
STARTCHAR uni0928094D091B
ENCODING -1
SWIDTH 781 0
DWIDTH 16 0
BBX 17 12 -1 1
BITMAP
7FFFFFFF80
0006001800
0006001800
0006001800
000601F800
07FE001C00
0C03F00800
0C06000900
0C06000900
0006000C00
0006001C00
0001BFE000
ENDCHAR
STARTCHAR uni0928094D091F
ENCODING -1
SWIDTH 715 0
DWIDTH 14 0
BBX 16 12 -1 1
BITMAP
7FFFFFFD
00000090
00000090
00000090
0001BFC0
0BFF4000
1C030000
18030000
08030024
00030024
00024070
0000BF90
ENDCHAR
STARTCHAR uni0928094D0921
ENCODING -1
SWIDTH 705 0
DWIDTH 14 0
BBX 16 13 -1 0
BITMAP
7FFFFFFD
00000090
00000090
0000BFD0
00024000
0BFF0000
1C024000
1801BF80
08000060
00000030
00030030
00024060
0001BF80
ENDCHAR
STARTCHAR uni0928094D0924
ENCODING -1
SWIDTH 717 0
DWIDTH 14 0
BBX 16 13 -1 0
BITMAP
7FFFFFFD
00000060
00000060
00000060
0000BFE0
0BFF4060
1C060060
18060060
08060060
00060060
00060060
00034060
0001B050
ENDCHAR
STARTCHAR uni0928094D0925
ENCODING -1
SWIDTH 804 0
DWIDTH 16 0
BBX 18 13 -1 0
BITMAP
7FD1F80BD0
0003460900
0003020900
0001060900
00000A0900
0BFFF80900
1C09000900
1809000900
0C06000D00
0003402D00
0001BFE900
0000000900
0000000900
ENDCHAR
STARTCHAR uni0928094D0926
ENCODING -1
SWIDTH 724 0
DWIDTH 14 0
BBX 16 13 -1 0
BITMAP
7FFFFFFE
00000060
00000060
0000BFE0
00028000
0BFF0000
0C030000
18030000
08030030
00028070
0000BFB0
00000030
00000030
ENDCHAR
STARTCHAR uni0928094D0927
ENCODING -1
SWIDTH 753 0
DWIDTH 15 0
BBX 17 13 -1 0
BITMAP
7FFFD2FF40
0006002400
0009002400
0009002400
0006002400
0BFFF42400
0C06002400
1809002400
0C09002400
0009003400
0006007400
0001FFA400
0000002400
ENDCHAR
STARTCHAR uni0928094D092A
ENCODING -1
SWIDTH 742 0
DWIDTH 15 0
BBX 16 13 -1 0
BITMAP
7FFFFFFF
00024030
00024030
00024030
00024030
00024030
0BFF4030
0C0180B0
0800BF70
00000030
00000030
00000030
00000020
ENDCHAR
STARTCHAR uni0928094D092B
ENCODING -1
SWIDTH 970 0
DWIDTH 19 0
BBX 21 13 -1 0
BITMAP
7FFFFFFFFF80
000240600000
000240600000
0002406BE000
000240741800
0BFF40600C00
1C0240600800
180180A00800
08007EA00C00
000000601800
00000062E000
000000600000
000000600000
ENDCHAR
STARTCHAR uni0928094D092D
ENCODING -1
SWIDTH 739 0
DWIDTH 15 0
BBX 16 13 -1 0
BITMAP
7FFE03FF
00024030
00014030
00018030
00018030
00018030
07FFFFF0
0C018030
0C018030
04000030
00000030
00000030
00000020
ENDCHAR
STARTCHAR uni0928094D092E
ENCODING -1
SWIDTH 735 0
DWIDTH 15 0
BBX 16 13 -1 0
BITMAP
7FFFFFFE
00024030
00024030
00024030
00024030
00024030
07FFFFF0
0C024030
0C024030
04000030
00000030
00000030
00000020
ENDCHAR
STARTCHAR uni0928094D092F
ENCODING -1
SWIDTH 801 0
DWIDTH 16 0
BBX 18 13 -1 0
BITMAP
7FFFFFFFD0
0000180900
00000C0900
00000C0900
0000180900
0BFFE00900
1C03000900
1803000900
0802400D00
0001802D00
00006FE900
0000000900
0000000800
ENDCHAR
STARTCHAR uni0928094D0935
ENCODING -1
SWIDTH 732 0
DWIDTH 15 0
BBX 16 13 -1 0
BITMAP
7FFFFFFE
00000020
00000020
0000BD20
00018020
0BFF4020
1C024020
18024020
08024060
000180A0
00007F60
00000020
00000020
ENDCHAR
STARTCHAR uni0928094D0938
ENCODING -1
SWIDTH 867 0
DWIDTH 17 0
BBX 19 13 -1 0
BITMAP
7FFFFFFFF4
0000060180
0000060180
0000060180
0000050180
0BFE090180
1C02FFFF80
0800C00180
0400A00180
0000300180
0000180180
00000D0180
0000060140
ENDCHAR
STARTCHAR uni0928094D0939
ENCODING -1
SWIDTH 714 0
DWIDTH 14 0
BBX 16 14 -1 -1
BITMAP
7FFFFFFD
00000060
00000060
0000BFD0
00028000
07FF4000
0C028000
0C00FF80
080180A0
00024020
00030010
00024000
00018000
00007FD0
ENDCHAR
STARTCHAR uni092A094D091F
ENCODING -1
SWIDTH 489 0
DWIDTH 10 0
BBX 11 13 -1 0
BITMAP
7FFFFC
060090
060090
060090
060090
030090
02FFC0
060000
090000
090060
090060
060090
01BF40
ENDCHAR
STARTCHAR uni092A094D0920
ENCODING -1
SWIDTH 506 0
DWIDTH 10 0
BBX 12 13 -1 0
BITMAP
7FFFFD
060060
060060
060060
060090
0300D0
02FF80
060090
090060
090060
090060
060090
01BF40
ENDCHAR
STARTCHAR uni092A094D0924
ENCODING -1
SWIDTH 495 0
DWIDTH 10 0
BBX 11 13 -1 0
BITMAP
7FFFFC
0900C0
0900C0
0900C0
0500C0
0700C0
02FFC0
0600C0
0900C0
0900C0
0900C0
0600C0
02E080
ENDCHAR
STARTCHAR uni092A094D092A
ENCODING -1
SWIDTH 770 0
DWIDTH 15 0
BBX 17 13 -1 0
BITMAP
7FFFFFFF80
0600C01800
0600C01800
0600C01800
0600C01800
0600C01800
0600C01800
0341D03800
01BE2FA800
0000001800
0000001800
0000001800
0000001400
ENDCHAR
STARTCHAR uni092A094D092B
ENCODING -1
SWIDTH 1003 0
DWIDTH 20 0
BBX 22 13 -1 0
BITMAP
7FFFFFFFFFD0
0600C0240000
0600C0240000
0600C02BF800
0600C0280900
0600C0240600
0600C0240200
0341D0740200
01BE2FA40600
000000240900
00000024F800
000000240000
000000240000
ENDCHAR
STARTCHAR uni092A094D092E
ENCODING -1
SWIDTH 774 0
DWIDTH 15 0
BBX 17 13 -1 0
BITMAP
7FFFFFFF80
0600901800
0600901800
0600901800
0600901800
0600901800
0600BFF800
0341D01800
01BE901800
0000401800
0000001800
0000001800
0000001800
ENDCHAR
STARTCHAR uni092A094D092F
ENCODING -1
SWIDTH 855 0
DWIDTH 17 0
BBX 19 13 -1 0
BITMAP
7FFFFFFFF4
0600060240
0600030240
0600030240
0600070240
0600B90240
0600800240
0341C00240
01BE900340
0000600B40
00001BFA40
0000000240
0000000240
ENDCHAR
STARTCHAR uni092A094D0932
ENCODING -1
SWIDTH 960 0
DWIDTH 19 0
BBX 21 13 -1 0
BITMAP
7FFFFFFFFF40
060000002400
060000002400
060000002400
06002F5BA400
0600A0B43400
0600C0602400
0341C0602400
01BEC0102400
000080002400
0000A0002400
00002F002400
000000001400
ENDCHAR
STARTCHAR uni092A094D0935
ENCODING -1
SWIDTH 780 0
DWIDTH 16 0
BBX 17 13 -1 0
BITMAP
7FFFFFFF80
0600001800
0600001800
06002F5800
0600601800
0600901800
0600801800
0341C01800
01BE901800
0000602800
00002FD800
0000001800
0000000800
ENDCHAR
STARTCHAR uni092A094D0938
ENCODING -1
SWIDTH 880 0
DWIDTH 18 0
BBX 19 13 -1 0
BITMAP
7FFFFFFFF8
0600060180
0600060180
0600060180
0600060180
0600090180
0601FFFF80
0341D00180
01BE600180
0000240180
00000C0180
0000090180
0000020080
ENDCHAR
STARTCHAR uni092B094D091C
ENCODING -1
SWIDTH 1100 0
DWIDTH 22 0
BBX 24 13 -1 0
BITMAP
7FFFFFFFFFFD
0600C0000080
0600C0000080
0600C0000080
0600DF8BFFC0
0600E0009080
0600C0006080
0342C0006080
01BDC0006080
0000C0006080
0000C0009080
0000C07F4080
000080000080
ENDCHAR
STARTCHAR uni092B094D091F
ENCODING -1
SWIDTH 1006 0
DWIDTH 20 0
BBX 22 13 -1 0
BITMAP
7FFFFFFFFFD0
0600C0000C00
0600C0000C00
0600DF900C00
0600E07BFC00
0600C0340000
0600C0600000
0342C0600000
01BEC0600200
0000C0600300
0000C0340600
0000C01BF800
000080000000
ENDCHAR
STARTCHAR uni092B094D0924
ENCODING -1
SWIDTH 1034 0
DWIDTH 21 0
BBX 22 13 -1 0
BITMAP
7FFFFFFFFFE0
0600C0000300
0600C0000300
0600DFD00300
0600E02BFF00
0600C0280300
0600C0300300
0342C0300300
01BDC0300300
0000C0300300
0000C0300300
0000C0280300
0000C00B4200
ENDCHAR
STARTCHAR uni092B094D092A
ENCODING -1
SWIDTH 1021 0
DWIDTH 20 0
BBX 22 13 -1 0
BITMAP
7FFFFFFFFFE0
0600C0300600
0600C0300600
0600C0300600
0600DFF00600
0600E0300600
0600C0300600
0342C0240E00
01BDC00BEA00
0000C0000600
0000C0000600
0000C0000600
000080000500
ENDCHAR
STARTCHAR uni092B094D092B
ENCODING -1
SWIDTH 1256 0
DWIDTH 25 0
BBX 27 13 -1 0
BITMAP
7FFFFFFFFFFFF4
0600C030090000
0600C030090000
0600C0300ABE00
0600DFF00A0280
0600E030090080
0600C0300900C0
0342C0241D00C0
01BDC00BE90080
0000C000090280
0000C000093E00
0000C000090000
00008000090000
ENDCHAR
STARTCHAR uni092B094D092F
ENCODING -1
SWIDTH 1120 0
DWIDTH 22 0
BBX 23 13 -1 0
BITMAP
7FFFFFFFFFFC
0600C00140C0
0600C00080C0
0600C00080C0
0600C00280C0
0600DFFE00C0
0600E03000C0
0342C03000C0
01BDC03000C0
0000C02802C0
0000C00BF9C0
0000C00000C0
000080000080
ENDCHAR
STARTCHAR uni092B094D0932
ENCODING -1
SWIDTH 1202 0
DWIDTH 24 0
BBX 26 13 -1 0
BITMAP
7FFFFFFFFFFFD0
0600C000000900
0600C000000900
0600DFD0000900
0600E07BD6E900
0600C024281D00
0600C030180900
0342C030180900
01BDC030140900
0000C030000900
0000C024000900
0000C00BC00900
00008000000800
ENDCHAR
STARTCHAR uni092B094D0936
ENCODING -1
SWIDTH 1211 0
DWIDTH 24 0
BBX 26 13 -1 0
BITMAP
7FFFFFD2F80BD0
0600C006090900
0600C009060900
0600DF85060900
0600E0A0060900
0600C030090900
0600C03FF80900
0342C024000900
01BDC00C000900
0000C006000900
0000C002400900
0000C000C00900
00008000600500
ENDCHAR
STARTCHAR uni092C094D091C
ENCODING -1
SWIDTH 883 0
DWIDTH 18 0
BBX 19 13 -1 0
BITMAP
7FFFFFFFF8
0000000080
0000000080
01F4000080
07002FFF80
0A80018080
0990009080
0924009080
0908009080
0906009080
060241C080
01BFFE4080
0000000080
ENDCHAR
STARTCHAR uni092C094D091D
ENCODING -1
SWIDTH 962 0
DWIDTH 19 0
BBX 21 15 -1 -2
BITMAP
7FFFFFFFFF40
000000302400
000000302400
01F46FF02400
070090002400
0980C0002400
0920D0002400
0908EFFFF400
0902C0242400
060280182400
01FE00182400
000060242400
00006BE01400
000060000000
000060000000
ENDCHAR
STARTCHAR uni092C094D0924
ENCODING -1
SWIDTH 786 0
DWIDTH 16 0
BBX 17 13 -1 0
BITMAP
7FFFFFFFC0
0000000C00
0000000C00
01B4000C00
07402FFC00
0990A00C00
0924800C00
0908C00C00
0902C00C00
0602C00C00
01FE800C00
0000A00C00
00002D0800
ENDCHAR
STARTCHAR uni092C094D0926
ENCODING -1
SWIDTH 775 0
DWIDTH 16 0
BBX 17 13 -1 0
BITMAP
7FFFFFFF80
0000001800
0000001800
01B42FF800
0740600000
0990800000
0920C00000
0908C00000
0906C00C00
0602E01C00
01FE2FEC00
0000000C00
0000000C00
ENDCHAR
STARTCHAR uni092C094D0927
ENCODING -1
SWIDTH 844 0
DWIDTH 17 0
BBX 18 13 -1 0
BITMAP
7FFFFD2FF0
0000900300
0000C00300
01F4C00300
0700900300
09803F0300
0920A00300
0908C00300
0902C00300
0602C00300
01FE600B00
00002FF700
0000000200
ENDCHAR
STARTCHAR uni092C094D092C
ENCODING -1
SWIDTH 783 0
DWIDTH 16 0
BBX 17 13 -1 0
BITMAP
7FFFFFFF80
0000000C00
0000000C00
01F42F4C00
0700B00C00
0A80980C00
0960C60C00
0918C18C00
0906C06C00
0602E02C00
01FE2FDC00
0000000C00
0000000800
ENDCHAR
STARTCHAR uni092C094D092D
ENCODING -1
SWIDTH 764 0
DWIDTH 15 0
BBX 17 13 -1 0
BITMAP
7FFE41FF40
0001802400
0000C02400
01F4C02400
0700C02400
0A80C02400
0960FFF400
0918C02400
0906C02400
0602802400
01FE002400
0000002400
0000001400
ENDCHAR
STARTCHAR uni092C094D092F
ENCODING -1
SWIDTH 852 0
DWIDTH 17 0
BBX 19 13 -1 0
BITMAP
7FFFFFFFF4
0000060240
0000030240
01F4030240
0700060240
0A80B90240
0960C00240
0918C00240
0906D00340
0602E00B40
01FE1FFA40
0000000240
0000000200
ENDCHAR
STARTCHAR uni092C094D0932
ENCODING -1
SWIDTH 961 0
DWIDTH 19 0
BBX 21 13 -1 0
BITMAP
7FFFFFFFFF40
000000002400
000000002400
01F400002400
07002F5BA400
0A80A0B43400
0960C0602400
0918C0602400
0906C0102400
0602C0002400
01FEA0002400
00002F002400
000000001400
ENDCHAR
STARTCHAR uni092C094D0935
ENCODING -1
SWIDTH 776 0
DWIDTH 16 0
BBX 17 13 -1 0
BITMAP
7FFFFFFF80
0000001800
0000001800
01F42F5800
0700A01800
0980801800
0960C01800
0918C01800
0906C01800
0602E02800
01FE2FA800
0000001800
0000001800
ENDCHAR
STARTCHAR uni092C094D0936
ENCODING -1
SWIDTH 926 0
DWIDTH 19 0
BBX 20 13 -1 0
BITMAP
7FFC1F907E
0000306060
0000603060
01F4603060
0700003060
0980006060
0920BF8060
0908E00060
0902A40060
06029C0060
01FE0A0060
0000034060
0000018060
ENDCHAR
STARTCHAR uni092C094D0938
ENCODING -1
SWIDTH 897 0
DWIDTH 18 0
BBX 19 13 -1 0
BITMAP
7FFFFFFFFC
00000300C0
00000300C0
01F40300C0
07000300C0
09800600C0
0920BFFFC0
0908E000C0
0902B400C0
06029800C0
01FE0900C0
00000600C0
0000024080
ENDCHAR
STARTCHAR uni092D094D092F
ENCODING -1
SWIDTH 827 0
DWIDTH 17 0
BBX 18 13 -1 0
BITMAP
780FFFFFE0
0900090600
0600060600
0600060600
0600090600
0601F80600
07FF800600
0601800600
0601800600
0500901E00
00002FE600
0000000600
0000000600
ENDCHAR
STARTCHAR uni092D094D0932
ENCODING -1
SWIDTH 941 0
DWIDTH 19 0
BBX 20 13 -1 0
BITMAP
780FFFFFFF
0900000030
0600000030
0600000030
06006E5F70
0600D1E070
07FF809030
0601809030
0601805030
0001800030
0000D00030
00006E0030
0000000020
ENDCHAR
STARTCHAR uni092D094D0935
ENCODING -1
SWIDTH 755 0
DWIDTH 15 0
BBX 17 13 -1 0
BITMAP
780FFFFF40
0900002400
0600002400
06006E2400
0600D02400
0601802400
07FF802400
0601802400
0601802400
0000D07400
00006FA400
0000002400
0000002400
ENDCHAR
STARTCHAR uni092E094D0924
ENCODING -1
SWIDTH 765 0
DWIDTH 15 0
BBX 17 13 -1 0
BITMAP
7FFFFFFF40
0600002400
0600002400
0600002400
06006FF400
0600D02400
07FF802400
0601802400
0601802400
0001802400
0001802400
0000D02400
00006C1400
ENDCHAR
STARTCHAR uni092E094D0926
ENCODING -1
SWIDTH 766 0
DWIDTH 15 0
BBX 17 13 -1 0
BITMAP
7FFFFFFF40
0600001800
0600001800
06002FF400
0600900000
0600C00000
07FFC00000
0600C00000
0600C00800
0000901800
00002FE800
0000000800
0000000800
ENDCHAR
STARTCHAR uni092E094D092A
ENCODING -1
SWIDTH 762 0
DWIDTH 15 0
BBX 17 13 -1 0
BITMAP
7FFFFFFF40
0601802400
0601802400
0601802400
0601802400
0601802400
07FFC02400
0600D07400
05006FA400
0000002400
0000002400
0000002400
0000001400
ENDCHAR
STARTCHAR uni092E094D092C
ENCODING -1
SWIDTH 768 0
DWIDTH 15 0
BBX 17 13 -1 0
BITMAP
7FFFFFFF80
0600001800
0600001800
06002F1800
0600E01800
0600E41800
07FF891800
0601825800
060080A800
0000D07800
00006FA800
0000001800
0000001400
ENDCHAR
STARTCHAR uni092E094D092D
ENCODING -1
SWIDTH 768 0
DWIDTH 15 0
BBX 17 13 -1 0
BITMAP
7FFE41FF80
0601C01800
0600C01800
0600C01800
0600C01800
0600C01800
07FFFFF800
0600C01800
0600C01800
0000401800
0000001800
0000001800
0000001400
ENDCHAR
STARTCHAR uni092E094D092E
ENCODING -1
SWIDTH 759 0
DWIDTH 15 0
BBX 17 13 -1 0
BITMAP
7FFFFFFF40
0600C02400
0600C02400
0600C02400
0600C02400
0600C02400
07FFFFF400
0600C02400
0600C02400
0000402400
0000002400
0000002400
0000002400
ENDCHAR
STARTCHAR uni092E094D092F
ENCODING -1
SWIDTH 834 0
DWIDTH 17 0
BBX 18 13 -1 0
BITMAP
7FFFFFFFE0
0600090300
0600060300
0600060300
0600090300
0601F80300
07FF800300
0601800300
0600C00700
0500900B00
00002FE700
0000000300
0000000200
ENDCHAR
STARTCHAR uni092E094D0932
ENCODING -1
SWIDTH 945 0
DWIDTH 19 0
BBX 20 13 -1 0
BITMAP
7FFFFFFFFF
0600000030
0600000030
0600000030
06006E5FB0
0600D0A070
07FF809030
0601809030
0601805030
0000800030
0000D00030
00006E0030
0000000020
ENDCHAR
STARTCHAR uni092E094D0935
ENCODING -1
SWIDTH 761 0
DWIDTH 15 0
BBX 17 13 -1 0
BITMAP
7FFFFFFF40
0600002400
0600002400
06002E2400
0600902400
0600C02400
07FF802400
0601802400
0600C02400
0000D07400
00002FA400
0000002400
0000001400
ENDCHAR
STARTCHAR uni092E094D0936
ENCODING -1
SWIDTH 884 0
DWIDTH 18 0
BBX 19 13 -1 0
BITMAP
7FF46E40F8
0600C1C0C0
0600C0C0C0
060080C0C0
060000C0C0
06000180C0
07FFFE00C0
06018000C0
06009000C0
05003000C0
00001800C0
00000900C0
0000060080
ENDCHAR
STARTCHAR uni092E094D0938
ENCODING -1
SWIDTH 816 0
DWIDTH 16 0
BBX 18 13 -1 0
BITMAP
7FFFFFFFE0
0600180600
0600180600
0600180600
0600140600
0600240600
07FFFFFE00
0603000600
0602800600
0100C00600
0000600600
0000340600
0000180500
ENDCHAR
STARTCHAR uni092E094D0939
ENCODING -1
SWIDTH 758 0
DWIDTH 15 0
BBX 17 14 -1 -1
BITMAP
7FFFFFFF40
0600002400
0600002400
06002FF400
0600900000
0600C00000
07FFD00000
06007FE000
0600A02400
0000C01800
0000C00400
0000C00000
0000A00000
00002FF400
ENDCHAR
STARTCHAR uni092F094D092F
ENCODING -1
SWIDTH 897 0
DWIDTH 18 0
BBX 19 13 -1 0
BITMAP
7FFFFFFFFC
00200180C0
002400C0C0
002400C0C0
00300180C0
0B903E00C0
09003000C0
09003000C0
09003000C0
07407802C0
01BF8BFDC0
00000000C0
0000000080
ENDCHAR
STARTCHAR uni0930094D092F
ENCODING -1
SWIDTH 713 0
DWIDTH 14 0
BBX 16 13 -1 0
BITMAP
7FFFFFFD
00008090
00009090
00009090
2400C090
0BFE4090
00240090
00240090
00240090
001D01D0
0006FE90
00000090
00000050
ENDCHAR
STARTCHAR uni0930094D0939
ENCODING -1
SWIDTH 619 0
DWIDTH 12 0
BBX 14 14 -1 -1
BITMAP
7FFFFFE0
00000600
00000600
100BFD00
28180000
0BF40000
00280000
000BF800
00180600
00240300
00240200
00240000
00180000
0006FE00
ENDCHAR
STARTCHAR uni0932094D0915
ENCODING -1
SWIDTH 1182 0
DWIDTH 24 0
BBX 25 13 -1 0
BITMAP
7FFFFFFFFFFF80
00000000300000
00000000300000
0000007D3BE400
01F8BE80341C00
06074240300900
09030240300900
09030240300900
09020240300900
09000180B01C00
0600006E72E400
01B40000300000
00000000200000
ENDCHAR
STARTCHAR uni0932094D0916
ENCODING -1
SWIDTH 1195 0
DWIDTH 24 0
BBX 25 13 -1 0
BITMAP
7FFFFFFFFFFFC0
00000003000C00
00000003000C00
00000003078C00
01F8BD03180C00
06074247240C00
090301F9240C00
090300D0240C00
09020060181C00
0900002407DC00
0600000C000C00
01B40006000C00
00000002400800
ENDCHAR
STARTCHAR uni0932094D0917
ENCODING -1
SWIDTH 950 0
DWIDTH 19 0
BBX 21 13 -1 0
BITMAP
7FFFFFFFFF40
000000602400
000000602400
000000602400
01F8B8602400
060740602400
090300602400
090300902400
090306402400
090000002400
060000002400
01B400002400
000000002000
ENDCHAR
STARTCHAR uni0932094D091C
ENCODING -1
SWIDTH 1035 0
DWIDTH 21 0
BBX 22 13 -1 0
BITMAP
7FFFFFFFFFF0
000000000300
000000000300
000000000300
01F8B8BFFF00
060780060300
090300024300
090300024300
090300024300
090000024300
060000070300
01B407F90300
000000000200
ENDCHAR
STARTCHAR uni0932094D091F
ENCODING -1
SWIDTH 929 0
DWIDTH 19 0
BBX 20 12 -1 1
BITMAP
7FFFFFFFFE
0000000050
0000000050
0000000050
01F8B97FD0
0607428000
0903024000
0903024000
0902024018
0900024018
0600018024
01B4007F90
ENDCHAR
STARTCHAR uni0932094D0920
ENCODING -1
SWIDTH 953 0
DWIDTH 19 0
BBX 21 12 -1 1
BITMAP
7FFFFFFFFF40
000000006000
000000006000
000000009000
01F8B9BFD000
060742803400
090302001800
090303001800
090203001800
090002001800
060002803400
01B400BF9000
ENDCHAR
STARTCHAR uni0932094D0921
ENCODING -1
SWIDTH 916 0
DWIDTH 18 0
BBX 20 13 -1 0
BITMAP
7FFFFFFFFD
0000000050
0000000050
000000BFD0
01F8BF8000
0607424000
0903028000
090300BF90
0901000070
0900010030
0600020030
01B4024070
000000BF90
ENDCHAR
STARTCHAR uni0932094D0922
ENCODING -1
SWIDTH 924 0
DWIDTH 18 0
BBX 20 12 -1 1
BITMAP
7FFFFFFFFE
0000000050
0000000050
0000000050
01F8B9BFD0
0607428000
0903020000
09030302E0
0902030624
0900020514
0600028024
01B400BFE0
ENDCHAR
STARTCHAR uni0932094D0924
ENCODING -1
SWIDTH 929 0
DWIDTH 19 0
BBX 20 13 -1 0
BITMAP
7FFFFFFFFE
0000000060
0000000060
0000000060
01F9B97FE0
0607424060
0903030060
0903030060
0901030060
0900030060
0600030060
01B4028060
000000B460
ENDCHAR
STARTCHAR uni0932094D0925
ENCODING -1
SWIDTH 1061 0
DWIDTH 21 0
BBX 23 13 -1 0
BITMAP
7FFFF42E42F4
000000918240
000000C0C240
00000080C240
01F8BD00C240
060743028240
090302FE0240
090301400240
090201800240
090000D00740
0600006FFA40
01B400000240
000000000140
ENDCHAR
STARTCHAR uni0932094D0926
ENCODING -1
SWIDTH 939 0
DWIDTH 19 0
BBX 20 13 -1 0
BITMAP
7FFFFFFFFF
0000000030
0000000030
0000007FF0
01F8BE8000
0607424000
0903024000
0903024000
0902024024
0900018034
0600007FA4
01B4000024
0000000024
ENDCHAR
STARTCHAR uni0932094D092A
ENCODING -1
SWIDTH 939 0
DWIDTH 19 0
BBX 20 13 -1 0
BITMAP
7FFFFFFFFF
0000024030
0000024030
0000024030
01F8BF4030
0607424030
0903024030
09030180B0
0901007E70
0900000030
0600000030
01B4000030
0000000020
ENDCHAR
STARTCHAR uni0932094D092B
ENCODING -1
SWIDTH 1176 0
DWIDTH 24 0
BBX 25 13 -1 0
BITMAP
7FFFFFFFFFFF80
00000240600000
00000240600000
000002406BE400
01F8BF40741C00
06074240600900
09030240600900
09030180A00900
0901007E600900
09000000601C00
0600000062E400
01B40000600000
00000000200000
ENDCHAR
STARTCHAR uni0932094D092C
ENCODING -1
SWIDTH 949 0
DWIDTH 19 0
BBX 21 13 -1 0
BITMAP
7FFFFFFFFF40
000000002000
000000002000
0000007E2000
01F8BED02000
060742A02000
090302482000
090302426000
09020240B000
090001C07000
0600006FA000
01B400002000
000000002000
ENDCHAR
STARTCHAR uni0932094D092D
ENCODING -1
SWIDTH 931 0
DWIDTH 19 0
BBX 20 13 -1 0
BITMAP
7FFFFD03FE
0000030060
0000024060
0000024060
01F8BF4060
0607424060
090302FFE0
0903024060
0902024060
0900000060
0600000060
01B4000060
0000000020
ENDCHAR
STARTCHAR uni0932094D092E
ENCODING -1
SWIDTH 931 0
DWIDTH 19 0
BBX 20 13 -1 0
BITMAP
7FFFFFFFFE
0000024060
0000024060
0000024060
01F8BF4060
0607424060
090302FFE0
0903024060
0902024060
0900000060
0600000060
01B4000060
0000000020
ENDCHAR
STARTCHAR uni0932094D092F
ENCODING -1
SWIDTH 1033 0
DWIDTH 21 0
BBX 22 13 -1 0
BITMAP
7FFFFFFFFFE0
000000090200
000000060200
01B8BE060200
060782490200
050301F80200
090301800200
090301800200
090000C00600
050000900A00
0700002FE600
01B400000200
000000000200
ENDCHAR
STARTCHAR uni0932094D0932
ENCODING -1
SWIDTH 1112 0
DWIDTH 22 0
BBX 24 13 -1 0
BITMAP
7FFFFFFFFFFD
000000000090
000000000090
000000000090
01F8B9BE2E90
06074282D0D0
090302018090
090303018090
090203004090
090002000090
060002800090
01B400BD0090
000000000050
ENDCHAR
STARTCHAR uni0932094D0935
ENCODING -1
SWIDTH 940 0
DWIDTH 19 0
BBX 20 13 -1 0
BITMAP
7FFFFFFFFF
0000000030
0000000030
0000007D30
01F8BEC030
0607424030
0903024030
0903024030
0902024030
09000180B0
0600006F70
01B4000030
0000000020
ENDCHAR
STARTCHAR uni0932094D0938
ENCODING -1
SWIDTH 1068 0
DWIDTH 21 0
BBX 23 13 -1 0
BITMAP
7FFFFFFFFFF8
000000060180
000000060180
000000060180
01F8BD060180
060742490180
090301FFFF80
090300C00180
090100600180
090000300180
060000180180
01B400090180
000000060140
ENDCHAR
STARTCHAR uni0932094D0939
ENCODING -1
SWIDTH 922 0
DWIDTH 18 0
BBX 20 14 -1 -1
BITMAP
7FFFFFFFFE
0000000060
0000000060
000000BFE0
01F8BE8000
0607424000
0903018000
090300BF90
0901018060
0900024030
0600024010
01B4024000
0000018000
0000006FE0
ENDCHAR
STARTCHAR uni0933094D092F
ENCODING -1
SWIDTH 1050 0
DWIDTH 21 0
BBX 23 13 -1 0
BITMAP
7FFFFFFFFFF4
000000060200
000000030200
01F8BE030200
060781860200
090240F80200
090200C00200
090200C00200
090240D00300
060781E00B00
01F9BE5FF600
000000000200
000000000200
ENDCHAR
STARTCHAR uni0935094D092F
ENCODING -1
SWIDTH 852 0
DWIDTH 17 0
BBX 19 13 -1 0
BITMAP
7FFFFFFFF4
0000060240
0000030240
01F4030240
0600060240
0900B90240
0900C00240
0900C00240
0900D00340
0601E00B40
01FE1FFA40
0000000240
0000000200
ENDCHAR
STARTCHAR uni0935094D0932
ENCODING -1
SWIDTH 961 0
DWIDTH 19 0
BBX 21 13 -1 0
BITMAP
7FFFFFFFFF40
000000002400
000000002400
01F42F4BA400
0600A0B43400
090080602400
0900C0602400
0900C0602400
0900C0002400
0601C0002400
01FE60002400
00002F002400
000000001400
ENDCHAR
STARTCHAR uni0935094D0935
ENCODING -1
SWIDTH 776 0
DWIDTH 16 0
BBX 17 13 -1 0
BITMAP
7FFFFFFF80
0000001800
0000001800
01F42F5800
0600A01800
0900801800
0900C01800
0900C01800
0900C01800
0601E02800
01FE2F9800
0000001800
0000001800
ENDCHAR
STARTCHAR uni0935094D0939
ENCODING -1
SWIDTH 754 0
DWIDTH 15 0
BBX 17 14 -1 -1
BITMAP
7FFFFFFF40
0000002400
0000002400
01F46FF400
0600900000
0900C00000
0900900000
09003FE000
0900902400
0602C01800
01FEC00400
0000C00000
0000A00000
00002FF400
ENDCHAR
STARTCHAR uni0936094D0915
ENCODING -1
SWIDTH 1093 0
DWIDTH 22 0
BBX 21 13 1 0
BITMAP
2F82FFFFFFC0
60A000300000
506000300000
50606E3BF400
0060D0380900
009180300600
FF8180300600
900180300600
300180300600
1800D0700900
09006F71E400
070000300000
024000200000
ENDCHAR
STARTCHAR uni0936094D091A
ENCODING -1
SWIDTH 950 0
DWIDTH 19 0
BBX 19 13 1 0
BITMAP
2F82FFFFF4
60A0000240
5060000240
5060000240
0062FFC240
0090240240
FF80300240
9000200240
3000300340
1800240740
09000BFA40
0700000240
0240000200
ENDCHAR
STARTCHAR uni0936094D091B
ENCODING -1
SWIDTH 968 0
DWIDTH 19 0
BBX 19 13 1 0
BITMAP
2F82FFFFF8
6090600240
9060900240
9060900240
0060901F40
0090600180
FF807E00C0
9000A000C0
70009000C0
28009000C0
0D00600280
06002FFE00
0240000000
ENDCHAR
STARTCHAR uni0936094D091F
ENCODING -1
SWIDTH 854 0
DWIDTH 17 0
BBX 17 13 1 0
BITMAP
2F82FFFF40
60A0003000
5060003000
9060003000
00606FF000
0090D00000
FF81800000
9001800400
3001800C00
1801800C00
0900D01800
07006FE000
0240000000
ENDCHAR
STARTCHAR uni0936094D0924
ENCODING -1
SWIDTH 864 0
DWIDTH 17 0
BBX 17 13 1 0
BITMAP
2F82FFFF40
60A0002400
9060002400
5060002400
00606FF400
0090D02400
FF81802400
9001802400
3001802400
1801802400
0D01802400
0700D02400
02406C1400
ENDCHAR
STARTCHAR uni0936094D092E
ENCODING -1
SWIDTH 885 0
DWIDTH 18 0
BBX 17 13 1 0
BITMAP
2F82FFFF80
60A0900C00
5060900C00
5060900C00
0060900C00
0090900C00
FF80BFFC00
9000900C00
3000900C00
1800000C00
0900000C00
0700000C00
0240000800
ENDCHAR
STARTCHAR uni0936094D092F
ENCODING -1
SWIDTH 940 0
DWIDTH 19 0
BBX 18 13 1 0
BITMAP
2F82FFFFF0
60A0090300
5060020300
9060060300
00600A0300
0090F80300
FF80C00300
9000C00300
3000C00300
1800A00B00
09002FF700
0700000300
0240000200
ENDCHAR
STARTCHAR uni0936094D0932
ENCODING -1
SWIDTH 1039 0
DWIDTH 21 0
BBX 20 13 1 0
BITMAP
2F82FFFFFF
60A0000030
5060000030
9060000030
00606E6F70
0090D0E070
FF81809030
9001809030
3001804030
1801800030
0900D00030
07006E0030
0240000020
ENDCHAR
STARTCHAR uni0936094D0935
ENCODING -1
SWIDTH 850 0
DWIDTH 17 0
BBX 17 13 1 0
BITMAP
2F82FFFF40
60A0002400
5060002400
50606E2400
0060D02400
0091802400
FF81802400
9001802400
3001803400
1800D07400
09006FA400
0700002400
0240002000
ENDCHAR
STARTCHAR uni0936094D0936
ENCODING -1
SWIDTH 1009 0
DWIDTH 20 0
BBX 20 13 1 0
BITMAP
2F802F80BD
60A0609090
9060906090
5060506090
0060006090
0090009090
FF81FF4090
9000900090
3000700090
1800280090
09000D0090
0700060090
0240024090
ENDCHAR
STARTCHAR uni0937094D0915
ENCODING -1
SWIDTH 1039 0
DWIDTH 21 0
BBX 22 13 -1 0
BITMAP
7FFFFFFFFFF0
0700000C0000
0680000C0000
06601B4DF900
0618700E0340
0606600C0140
0601D00C0180
0341D00C0180
01BE600C0140
0000302C0340
00001B9C7900
0000000C0000
000000080000
ENDCHAR
STARTCHAR uni0937094D091F
ENCODING -1
SWIDTH 493 0
DWIDTH 10 0
BBX 11 13 -1 0
BITMAP
7FFFFC
074090
069090
062890
060690
0301D0
02FFC0
060000
090000
090020
090020
060090
01BF80
ENDCHAR
STARTCHAR uni0937094D0920
ENCODING -1
SWIDTH 511 0
DWIDTH 10 0
BBX 12 13 -1 0
BITMAP
7FFFFD
06FFE0
07FFE0
07FFE0
07FFE0
03FF90
02EAC0
060060
090060
090020
090060
060090
01BF80
ENDCHAR
STARTCHAR uni0937094D0923
ENCODING -1
SWIDTH 980 0
DWIDTH 20 0
BBX 21 13 -1 0
BITMAP
7FFFFFFFFF80
070060241800
068060241800
062060241800
061860241800
060660241800
0601E0241800
0341F0301800
01BE1B901800
000000001800
000000001800
000000001800
000000000800
ENDCHAR
STARTCHAR uni0937094D092A
ENCODING -1
SWIDTH 980 0
DWIDTH 20 0
BBX 21 13 -1 0
BITMAP
7FFFFFFFFF80
070060241800
068060241800
062060241800
061860241800
060660241800
0601E0241800
0341F0301800
01BE1B901800
000000001800
000000001800
000000001800
000000000800
ENDCHAR
STARTCHAR uni0937094D092B
ENCODING -1
SWIDTH 1036 0
DWIDTH 21 0
BBX 22 13 -1 0
BITMAP
7FFFFFFFFFF0
0700600C0000
0680600C0000
0660600EF900
0618600D0700
0606600C0240
0602A00C0140
0341F42C0140
01BE1B9C0240
0000000C0700
0000000C7900
0000000C0000
000000080000
ENDCHAR
STARTCHAR uni0937094D092E
ENCODING -1
SWIDTH 791 0
DWIDTH 16 0
BBX 17 13 -1 0
BITMAP
7FFFFFFFC0
0700600C00
0680600C00
0660600C00
0618600C00
0605600C00
0602BFFC00
0341E00C00
01BE600C00
0000000C00
0000000C00
0000000C00
0000000800
ENDCHAR
STARTCHAR uni0937094D092F
ENCODING -1
SWIDTH 877 0
DWIDTH 18 0
BBX 19 13 -1 0
BITMAP
7FFFFFFFF8
0700024180
0680018180
0660018180
0618024180
06057E0180
0602A00180
0341E00180
01BE600180
0000240680
00000BF980
0000000180
0000000180
ENDCHAR
STARTCHAR uni0937094D0935
ENCODING -1
SWIDTH 802 0
DWIDTH 16 0
BBX 18 13 -1 0
BITMAP
7FFFFFFFD0
0700000900
0680000900
06601B8900
0618340900
0606600900
0601A00900
0341E00900
01BE600900
0000341D00
00001BE900
0000000900
0000000800
ENDCHAR
STARTCHAR uni0937094D0937
ENCODING -1
SWIDTH 804 0
DWIDTH 16 0
BBX 18 13 -1 0
BITMAP
7FFFFFFFD0
0700700900
0680680900
0620660900
0618618900
0606606900
0601E01D00
0341F41D00
01BE1BE900
0000000900
0000000900
0000000900
0000000900
ENDCHAR
STARTCHAR uni0938094D0915
ENCODING -1
SWIDTH 1089 0
DWIDTH 22 0
BBX 23 13 -1 0
BITMAP
7FFFFFFFFFFC
006000030000
006000030000
006006D37E40
00601C0380D0
009018030050
1FFFF4030060
0D0014030060
060018030050
02400D0B00D0
018006F71E40
009000030000
002000020000
ENDCHAR
STARTCHAR uni0938094D0916
ENCODING -1
SWIDTH 990 0
DWIDTH 20 0
BBX 21 13 -1 0
BITMAP
7FFFFFFFFFC0
006003000C00
006003000C00
0060030B4C00
006003180C00
009006240C00
1FFFF8240C00
0C00C0240C00
060060182C00
0240240B9C00
01800C000C00
009006000C00
006002400800
ENDCHAR
STARTCHAR uni0938094D091C
ENCODING -1
SWIDTH 970 0
DWIDTH 19 0
BBX 21 13 -1 0
BITMAP
7FFFFFFFFF80
006000001800
006000001800
006000001800
006003FFF800
009000181800
1FFFF00C1800
0D00000C1800
0600000C1800
0240000C1800
018000181800
00900FE01800
002000001400
ENDCHAR
STARTCHAR uni0938094D091F
ENCODING -1
SWIDTH 844 0
DWIDTH 17 0
BBX 18 13 -1 0
BITMAP
7FFFFFFFF0
0060000600
0060000600
0060000600
006006FE00
00901C0000
1FFFF80000
0D00140000
06001400C0
0240180080
01800D0240
009006FE00
0020000000
ENDCHAR
STARTCHAR uni0938094D0924
ENCODING -1
SWIDTH 852 0
DWIDTH 17 0
BBX 19 13 -1 0
BITMAP
7FFFFFFFF4
0060000240
0060000240
0060000240
006007FF40
00901C0240
1FFFF40240
0C00240240
0600240240
0240240240
0180140240
00901C0240
0060068200
ENDCHAR
STARTCHAR uni0938094D0925
ENCODING -1
SWIDTH 960 0
DWIDTH 19 0
BBX 21 13 -1 0
BITMAP
7FFF42E02F40
006009182400
00600C0C2400
00600C0C2400
0060040C2400
009000282400
1FFFFFE02400
0C0018002400
060018002400
02400D007400
018006FFA400
009000002400
006000001400
ENDCHAR
STARTCHAR uni0938094D0926
ENCODING -1
SWIDTH 851 0
DWIDTH 17 0
BBX 19 13 -1 0
BITMAP
7FFFFFFFF4
0060000240
0060000240
006006FF00
00600D0000
0090180000
1FFFF80000
0C00180000
0600180140
02400D0280
018006FA80
0090000180
0060000140
ENDCHAR
STARTCHAR uni0938094D092A
ENCODING -1
SWIDTH 857 0
DWIDTH 17 0
BBX 19 13 -1 0
BITMAP
7FFFFFFFF4
0060180240
0060180240
0060180240
0060180240
0090180240
1FFFF80240
0D000D0740
060006FA40
0240000240
0180000240
0090000240
0020000240
ENDCHAR
STARTCHAR uni0938094D092B
ENCODING -1
SWIDTH 1092 0
DWIDTH 22 0
BBX 23 13 -1 0
BITMAP
7FFFFFFFFFFC
006018030000
006018030000
006018037E40
0060180380D0
009018030060
1FFFF8030060
0D000D070060
060006FB0060
0240000300D0
018000031E40
009000030000
002000020000
ENDCHAR
STARTCHAR uni0938094D092C
ENCODING -1
SWIDTH 857 0
DWIDTH 17 0
BBX 19 13 -1 0
BITMAP
7FFFFFFFF4
0060000240
0060000240
006006E240
00600D0240
00901A4240
1FFFF89240
0D00182640
0600180B40
02400D0740
018006FA40
0090000240
0020000240
ENDCHAR
STARTCHAR uni0938094D092E
ENCODING -1
SWIDTH 850 0
DWIDTH 17 0
BBX 19 13 -1 0
BITMAP
7FFFFFFFF4
0060180200
0060180200
0060180200
0060180200
0090180200
1FFFFFFF00
0D00180200
0600180200
0240040200
0180000200
0090000200
0020000200
ENDCHAR
STARTCHAR uni0938094D092F
ENCODING -1
SWIDTH 920 0
DWIDTH 18 0
BBX 20 13 -1 0
BITMAP
7FFFFFFFFE
0060008060
0060009060
0060009060
006000D060
00901F4060
1FFFF40060
0D00140060
06001800A0
02400901E0
018002FEA0
0090000060
0020000050
ENDCHAR
STARTCHAR uni0938094D0932
ENCODING -1
SWIDTH 1027 0
DWIDTH 21 0
BBX 22 13 -1 0
BITMAP
7FFFFFFFFFE0
006000000600
006000000600
006000000600
00600BE2EA00
0090181D0A00
1FFFF40C0600
0D00240C0600
060024040600
024014000600
018018000600
009006D00600
002000000600
ENDCHAR
STARTCHAR uni0938094D0935
ENCODING -1
SWIDTH 842 0
DWIDTH 17 0
BBX 18 13 -1 0
BITMAP
7FFFFFFFF0
0060000300
0060000300
006006D300
00601C0300
0090240300
1FFFF40300
0D00240300
0600140300
02401C0B00
018006F700
0090000300
0020000200
ENDCHAR
STARTCHAR uni0938094D0938
ENCODING -1
SWIDTH 871 0
DWIDTH 17 0
BBX 19 13 -1 0
BITMAP
7FFFFFFFF8
0060060180
0060060180
0060060180
0060060180
0090090180
1FFFFFFF80
0D00C00180
0600600180
0240340180
0180180180
0090090180
0020060140
ENDCHAR
STARTCHAR uni0939094D0923
ENCODING -1
SWIDTH 1136 0
DWIDTH 23 0
BBX 24 18 -1 -5
BITMAP
7FFFFFFFFFFF
0000C1806030
0000C1806030
01FF81806030
060001806030
060001806030
060001805030
02FE40D09030
0301C06F4030
060080000030
090040000030
060000000030
034000000030
01BF80000000
000000000000
000900000000
000300000000
000180000000
ENDCHAR
STARTCHAR uni0939094D092E
ENCODING -1
SWIDTH 746 0
DWIDTH 15 0
BBX 16 15 -1 -2
BITMAP
7FFFFFFF
0000C030
0000C030
02FF8030
06000030
09000030
06000030
02FF8030
0600C030
0900FFF0
0900C030
0900C030
09004030
06000030
01BF8010
ENDCHAR
STARTCHAR uni0939094D092F
ENCODING -1
SWIDTH 785 0
DWIDTH 16 0
BBX 17 16 -1 -3
BITMAP
7FFFFFFFC0
0000C00C00
0000C00C00
02FF800C00
0600000C00
0900000C00
0600000C00
02FFF80C00
0600090C00
0900090C00
0902F80C00
0902400C00
0901801C00
0600D02C00
01BD6F9C00
0000000400
ENDCHAR
STARTCHAR uni0939094D0932
ENCODING -1
SWIDTH 1110 0
DWIDTH 22 0
BBX 24 18 -1 -5
BITMAP
7FFFFFFFFFFD
0000C0000090
0000C0000090
01FF80BD2E90
0600028290D0
060002018090
060003018090
02FE43018090
0601C3004090
050082000090
050042800090
070000BC0090
01BF80000000
000000000000
000400000000
000900000000
000300000000
000280000000
ENDCHAR
STARTCHAR uni0939094D0935
ENCODING -1
SWIDTH 920 0
DWIDTH 18 0
BBX 20 18 -1 -5
BITMAP
7FFFFFFFFE
0000C00060
0000C00060
01FF80BC60
0600028060
0600030060
0600030060
02FE430060
0301C30060
06008280E0
090040BEA0
0600000060
0340000060
01BF800000
0000000000
000C000000
0006000000
0002400000
ENDCHAR
STARTCHAR uni0915093C094D0915093C
ENCODING -1
SWIDTH 1275 0
DWIDTH 26 0
BBX 27 14 -1 -1
BITMAP
7FFFFFFFFFFFF8
00018000060000
00018000060000
02F5AF9BD6BE40
0601D0780741C0
09018024060090
09018024060090
09018024060090
09018024060090
060280180A01C0
02F9800BE62E40
00018000060000
00018000060000
01800006000000
ENDCHAR
STARTCHAR uni0915093C094D0924
ENCODING -1
SWIDTH 1016 0
DWIDTH 20 0
BBX 22 14 -1 -1
BITMAP
7FFFFFFFFFD0
000180000500
000180000500
02F5AF900500
0601D07BFD00
090180340500
090180600500
090180600500
090180600500
060280600500
02F980600500
000180340500
0001801B0500
018000000000
ENDCHAR
STARTCHAR uni0915093C094D092B
ENCODING -1
SWIDTH 1246 0
DWIDTH 25 0
BBX 26 14 -1 -1
BITMAP
7FFFFFFFFFFFF0
00018060080000
00018060080000
02F5806009FD00
0601AFE00A0240
0901D060090180
090180600C0180
090180341C0180
0901801BE80180
06028000080240
02F98000087D00
00018000080000
00018000080000
01800000000000
ENDCHAR
STARTCHAR uni0915093C094D092B093C
ENCODING -1
SWIDTH 1247 0
DWIDTH 25 0
BBX 26 14 -1 -1
BITMAP
7FFFFFFFFFFFF0
00018060080000
00018060080000
02F5806009FD00
0601AFE00A0240
0901D060090180
090180600C0180
090180341C0180
0901801BE80180
06028000080240
02F98000087D00
00018000080000
00018000080000
01800008000000
ENDCHAR
STARTCHAR uni0915093C094D092C
ENCODING -1
SWIDTH 1043 0
DWIDTH 21 0
BBX 22 14 -1 -1
BITMAP
7FFFFFFFFFF0
000180000300
000180000300
02F5AF9BD300
0601D07D0300
090180260300
090180248300
090180242300
090180240B00
060280180B00
02F98007FB00
000180000300
000180000300
018000000000
ENDCHAR
STARTCHAR uni0915093C094D092E
ENCODING -1
SWIDTH 998 0
DWIDTH 20 0
BBX 21 14 -1 -1
BITMAP
7FFFFFFFFFC0
000180600C00
000180600C00
02F580600C00
0601AFE00C00
0901D0600C00
0901807FFC00
090180600C00
090180600C00
060280100C00
02F980000C00
000180000C00
000180000C00
018000000000
ENDCHAR
STARTCHAR uni0916093C094D0924
ENCODING -1
SWIDTH 984 0
DWIDTH 20 0
BBX 21 14 -1 -1
BITMAP
7FFFFFFFFF80
003000000C00
003000000C00
003078000C00
0031802FFC00
007240A00C00
1F9240C00C00
0D0240C00C00
060180C00C00
02407FC00C00
00C000C00C00
006000A00C00
0024002D0800
000018000000
ENDCHAR
STARTCHAR uni0916093C094D092E
ENCODING -1
SWIDTH 965 0
DWIDTH 19 0
BBX 21 14 -1 -1
BITMAP
7FFFFFFFFF40
003000C02400
003000C02400
003078C02400
003180C02400
007240C02400
1F9240FFF400
0D0240C02400
060181C02400
02406E402400
00C000002400
006000002400
002400001400
000008000000
ENDCHAR
STARTCHAR uni0916093C094D092F
ENCODING -1
SWIDTH 1045 0
DWIDTH 21 0
BBX 22 14 -1 -1
BITMAP
7FFFFFFFFFF0
003000060300
003000030300
003078030300
003180060300
007240F80300
1F9240C00300
0D0240C00300
060181C00300
02407E600B00
00C0001FF700
006000000300
003400000300
000018000100
ENDCHAR
STARTCHAR uni0916093C094D0935
ENCODING -1
SWIDTH 972 0
DWIDTH 19 0
BBX 21 14 -1 -1
BITMAP
7FFFFFFFFF80
003000001800
003000001800
0030782F1800
003180A01800
007240C01800
1F9240C01800
0D0240C01800
060181C01800
02407EA02800
00C0002FA800
006000001800
003400001800
000018000000
ENDCHAR
STARTCHAR uni0916093C094D0936
ENCODING -1
SWIDTH 1123 0
DWIDTH 22 0
BBX 24 14 -1 -1
BITMAP
7FFFFC1F807E
003000706060
003000603060
003078103060
003180002060
00724000A060
1F9242FF8060
0D0241800060
060181D00060
02407E700060
00C000280060
0060000D0060
003400060060
000018010000
ENDCHAR
STARTCHAR uni0916093C094D0938
ENCODING -1
SWIDTH 1066 0
DWIDTH 21 0
BBX 23 14 -1 -1
BITMAP
7FFFFFFFFFF8
003000060180
003000060180
003078060180
003180050180
007240090180
1F9241FFFF80
0D0240C00180
060181D00180
02407E300180
00C000280180
0060000C0180
0034000A0180
000018010000
ENDCHAR
STARTCHAR uni091C093C094D091C093C
ENCODING -1
SWIDTH 934 0
DWIDTH 19 0
BBX 20 14 -1 -1
BITMAP
7FFFFFFFFD
0000000090
0000000090
0000000090
07FF8BFFD0
0024009090
0018006090
0018006090
0018006090
0014006090
0034009090
1FD07F8090
0000000090
0600050000
ENDCHAR
STARTCHAR uni091C093C094D092F
ENCODING -1
SWIDTH 893 0
DWIDTH 18 0
BBX 19 14 -1 -1
BITMAP
7FFFFFFFFC
00000180C0
00000080C0
00000080C0
0BFFD180C0
00203E00C0
00243000C0
00243000C0
00243000C0
00242802C0
003006FDC0
1F900000C0
00000000C0
0600000000
ENDCHAR
STARTCHAR uni092B093C094D091C093C
ENCODING -1
SWIDTH 1100 0
DWIDTH 22 0
BBX 24 14 -1 -1
BITMAP
7FFFFFFFFFFD
0600C0000080
0600C0000080
0600C0000080
0600DF8BFFC0
0600E0009080
0600C0006080
0342C0006080
01BDC0006080
0000C0006080
0000C0009080
0000C07F4080
0000C0000080
024000090000
ENDCHAR
STARTCHAR uni092B093C094D0924
ENCODING -1
SWIDTH 1036 0
DWIDTH 21 0
BBX 22 14 -1 -1
BITMAP
7FFFFFFFFFF0
0600C0000300
0600C0000300
0600DF900300
0600E02BFF00
0600C0280300
0600C0200300
0342C0300300
01BDC0300300
0000C0300300
0000C0200300
0000C0280300
0000C00B4200
024000000000
ENDCHAR
STARTCHAR uni092B093C094D092B093C
ENCODING -1
SWIDTH 1256 0
DWIDTH 25 0
BBX 27 14 -1 -1
BITMAP
7FFFFFFFFFFFF4
0600C030090000
0600C030090000
0600C0300ABE00
0600DFF00A0280
0600E030090080
0600C0300900C0
0342C0241D00C0
01BDC00BE90080
0000C000090280
0000C000093E00
0000C000090000
0000C000090000
02404009040000
ENDCHAR
STARTCHAR uni092B093C094D0938
ENCODING -1
SWIDTH 1141 0
DWIDTH 23 0
BBX 24 14 -1 -1
BITMAP
7FFFFFFFFFFF
0600C000C030
0600C000C030
0600DF80C030
0600E0A0C030
0600C0318030
0600C03FFFF0
0342C0240030
01BDC00C0030
0000C0090030
0000C0030030
0000C0024030
0000C000C030
024040004010
ENDCHAR
STARTCHAR uni092C094D091C093C
ENCODING -1
SWIDTH 883 0
DWIDTH 18 0
BBX 19 14 -1 -1
BITMAP
7FFFFFFFF8
0000000080
0000000080
01F4000080
07002FFF80
0A80018080
0990009080
0924009080
0908009080
0906009080
060241C080
01BFFE4080
0000000080
0000240000
ENDCHAR
STARTCHAR uni0932094D091C093C
ENCODING -1
SWIDTH 1062 0
DWIDTH 21 0
BBX 22 14 -1 -1
BITMAP
7FFFFFFFFFF0
000000000300
000000000300
000000000300
01F8B8BFFF00
060780060300
090300024300
090300024300
090300024300
090000024300
060000070300
01B407F90300
000000000200
000000900000
ENDCHAR
STARTCHAR uni0936094D0915093C
ENCODING -1
SWIDTH 1093 0
DWIDTH 22 0
BBX 21 14 1 -1
BITMAP
2F82FFFFFFC0
60A000300000
506000300000
50606E37F400
0060D0380900
009180300600
FF8180300600
900180300600
300180300600
2800D0700900
0D006F71E400
060000300000
024000300000
000020000000
ENDCHAR
STARTCHAR uni0924094D0924094D
ENCODING -1
SWIDTH 309 0
DWIDTH 6 0
BBX 10 13 -1 0
BITMAP
7FFFD0
000000
000000
000000
1FFFD0
018000
024000
020000
020000
020000
024000
018000
00B400
ENDCHAR
STARTCHAR uni0928094D092D094D
ENCODING -1
SWIDTH 505 0
DWIDTH 10 0
BBX 14 10 -1 3
BITMAP
7FFD03D0
00024000
00024000
00024000
00024000
0BFF4000
1C02FFD0
18024000
08024000
00010000
ENDCHAR
STARTCHAR uni0928094D0938094D
ENCODING -1
SWIDTH 635 0
DWIDTH 13 0
BBX 16 13 -1 0
BITMAP
7FFFFFFF
00000600
00000600
00000600
00000600
07FE0900
0C01FFFF
0C00C000
04006000
00002400
00001800
00000900
00000600
ENDCHAR
STARTCHAR uni092E094D092D094D
ENCODING -1
SWIDTH 533 0
DWIDTH 11 0
BBX 14 10 -1 3
BITMAP
7FFE41E0
06018000
0600C000
0600C000
0600C000
0600C000
07FFFFE0
0600C000
0600C000
01004000
ENDCHAR
STARTCHAR uni0932094D092D094D
ENCODING -1
SWIDTH 694 0
DWIDTH 14 0
BBX 17 12 -1 1
BITMAP
7FFFFD03C0
0000030000
0000024000
0000024000
01F8BF4000
0607424000
090302FFC0
0903024000
0902024000
0900000000
0600000000
01B4000000
ENDCHAR
STARTCHAR uni0938094D0924094D0930094D
ENCODING -1
SWIDTH 575 0
DWIDTH 12 0
BBX 15 13 -1 0
BITMAP
7FFFFFD0
00600000
00600000
00600000
00601FE0
00906018
1FFFD008
0D000008
06000018
024000A0
01800280
00901D00
00202400
ENDCHAR
STARTCHAR uni0915094D0924094D092F
ENCODING -1
SWIDTH 1356 0
DWIDTH 27 0
BBX 29 13 -1 0
BITMAP
7FFFFFFFFFFFFF40
0001800000602400
0001800000302400
02F5AF8000302400
0601D06000702400
0901803BFF902400
0901803408002400
0901802008002400
0901806009003400
0602806006007400
02F9802001BFA400
0001803400002400
0001801B00002400
ENDCHAR
STARTCHAR uni0915094D0924094D0930
ENCODING -1
SWIDTH 997 0
DWIDTH 20 0
BBX 21 13 -1 0
BITMAP
7FFFFFFFFFC0
000180000C00
000180000C00
02F5AF900C00
0601D07FEC00
090180601C00
090180900C00
090180900C00
090180001C00
06028000AC00
02F980028C00
0001801D0C00
000080600800
ENDCHAR
STARTCHAR uni0915094D0924094D0935
ENCODING -1
SWIDTH 1242 0
DWIDTH 25 0
BBX 26 13 -1 0
BITMAP
7FFFFFFFFFFFF0
00018000000300
00018000000300
02F5AF9006D300
0601D07FFC0300
090180A0240300
09018090240300
090180C0240300
090180C0140300
060280C01C0B00
02F9809006F700
000180A0000300
0001802D000200
ENDCHAR
STARTCHAR uni0915094D092A094D0930
ENCODING -1
SWIDTH 1007 0
DWIDTH 20 0
BBX 22 14 -1 -1
BITMAP
7FFFFFFFFFD0
000180600900
000180600900
02F580600900
0601AFE00900
0901D0600900
090180600900
090180341D00
0901801BF900
060280009900
02F980024900
000180090900
000180280900
000000100000
ENDCHAR
STARTCHAR uni0915094D0935094D092F
ENCODING -1
SWIDTH 1384 0
DWIDTH 28 0
BBX 29 13 -1 0
BITMAP
7FFFFFFFFFFFFF80
0001800000240C00
0001800000180C00
02F5AF9BC0180C00
0601D07400240C00
0901803007E00C00
0901803006000C00
0901803006000C00
0901803007001C00
060280240B402C00
02F9800BF8BF9C00
0001800000000C00
0000800000000800
ENDCHAR
STARTCHAR uni0915094D0938094D091F
ENCODING -1
SWIDTH 1376 0
DWIDTH 28 0
BBX 29 13 -1 0
BITMAP
7FFFFFFFFFFFFF80
0001800090002400
0001800090002400
02F5AF8090002400
0601D060902FF400
09018031C0A00000
0901802FFFD00000
0901801800800000
0901800900800600
0602800600900500
02F9800240600D00
00018001C02FE400
0000800090000000
ENDCHAR
STARTCHAR uni0915094D0938094D0921
ENCODING -1
SWIDTH 1388 0
DWIDTH 28 0
BBX 29 13 -1 0
BITMAP
7FFFFFFFFFFFFFC0
0001800090000C00
0001800090000C00
02F5AF80901FF800
0601D06090300000
09018031C0600000
0901802FFFF00000
09018018001FF800
0901800D00000900
0602800600000600
02FA800240600500
00018001C0600900
00018000901FF800
ENDCHAR
STARTCHAR uni0915094D0938094D0924
ENCODING -1
SWIDTH 1423 0
DWIDTH 28 0
BBX 30 13 -1 0
BITMAP
7FFFFFFFFFFFFFE0
0001800090000600
0001800090000600
02F5AF8090000600
0601D060901BFE00
09018031C0240600
0901802FFFF00600
0901801800200600
0901800D00200600
0602800600200600
02F9800240300600
00018001C0240600
00018000900B4600
ENDCHAR
STARTCHAR uni0915094D0938094D092A094D0930
ENCODING -1
SWIDTH 1437 0
DWIDTH 29 0
BBX 30 14 -1 -1
BITMAP
7FFFFFFFFFFFFFF0
0001800090240300
0001800090240300
02F5AF8090240300
0601D06090240300
09018031C0240300
0901802FFFF40300
0901801800180B00
0901800D000BFB00
0602800600006300
02F9800240018300
00018001C0030300
00018000900D0300
0000000000040000
ENDCHAR
STARTCHAR uni0915094D0938094D092A094D0932
ENCODING -1
SWIDTH 1866 0
DWIDTH 37 0
BBX 39 13 -1 0
BITMAP
7FFFFFFFFFFFFFFFFFF4
00018000902400000180
00018000902400000180
02F5AF80902400000180
0601D060902402F8BA80
09018031C0240A0B4380
0901802FFFF409030280
0901801800180D020180
090180090007FD010180
06028006000009000180
02F98002400006000180
00018001C00002F40180
00008000900000000140
ENDCHAR
STARTCHAR uni0917094D0927094D092F
ENCODING -1
SWIDTH 1156 0
DWIDTH 23 0
BBX 25 13 -1 0
BITMAP
7FFFFC7FFFFF40
0180C000602400
01818000302400
01818000302400
0180D000702400
01807E0B902400
02408008002400
2E018008002400
00018009003400
0000D00A007400
00006FE5BFA400
00000000002400
00000000002400
ENDCHAR
STARTCHAR uni0917094D0927094D0935
ENCODING -1
SWIDTH 1084 0
DWIDTH 22 0
BBX 23 13 -1 0
BITMAP
7FFFFC7FFFF8
0180C00000C0
0181800000C0
01818001F4C0
0180D00600C0
01807E0900C0
0240C00900C0
2E01800900C0
0001800900C0
0000D00A02C0
00006FE5BDC0
0000000000C0
000000000080
ENDCHAR
STARTCHAR uni0917094D0928094D092F
ENCODING -1
SWIDTH 1069 0
DWIDTH 21 0
BBX 23 13 -1 0
BITMAP
7FFFFFFFFFF8
018000020180
018000024180
018000024180
018000030180
0181FFF90180
018340900180
024300900180
2D0240600280
000000340780
0000001BFA80
000000000180
000000000140
ENDCHAR
STARTCHAR uni0917094D092D094D092F
ENCODING -1
SWIDTH 1102 0
DWIDTH 22 0
BBX 24 13 -1 0
BITMAP
7FFE41FFFFFD
0181C0018090
0180C000C090
0180C000C090
0180C0018090
0180C02E4090
0240FFF00090
2E00C0300090
0000C02400D0
0000401802D0
00000006FD90
000000000090
000000000080
ENDCHAR
STARTCHAR uni0917094D0930094D092F
ENCODING -1
SWIDTH 817 0
DWIDTH 16 0
BBX 18 14 -1 -1
BITMAP
7FFFFFFFD0
0180080600
0180090600
0180090600
01800C0600
0182E40600
0242400600
2E02400600
0001400A00
0000D01E00
00006FEA00
0000028600
00000A0500
0000240000
ENDCHAR
STARTCHAR uni091A094D091B094D0935
ENCODING -1
SWIDTH 913 0
DWIDTH 18 0
BBX 20 15 -1 -2
BITMAP
7FFFFFFFFD
0000180090
0000240090
0000240BC0
1FFD280060
01800B8020
0200180030
0300240030
0200240020
0280780090
00BF9BFFD0
00000C0090
0000080090
00000D01C0
000006FE40
ENDCHAR
STARTCHAR uni091C094D091C094D091E
ENCODING -1
SWIDTH 945 0
DWIDTH 19 0
BBX 20 14 -1 -1
BITMAP
7FFFFFFFFF
0000000030
0000000030
00001FFFF0
07FFF40030
0024300030
0018340030
00181BF830
0018000930
0014200930
0034740930
1FD07FF830
0000600020
0000200000
ENDCHAR
STARTCHAR uni091C094D091C094D092F
ENCODING -1
SWIDTH 1252 0
DWIDTH 25 0
BBX 27 13 -1 0
BITMAP
7FFFFFFFFFFFF4
00000000060240
00000000030240
00000000030240
07FF4BFF460240
00240090F90240
00180050C00240
00180060C00240
00180060900340
00180050600B40
002400D01BFA40
1FD07F40000240
00000000000200
ENDCHAR
STARTCHAR uni091C094D091C094D0935
ENCODING -1
SWIDTH 1243 0
DWIDTH 25 0
BBX 25 13 -1 0
BITMAP
7FFFFFFFFFFF80
00000000001800
00000000001800
000000002F5800
07FF4BFFE01800
00240090C01800
00180050C01800
00180060C01800
00180060801800
00180050A02800
002400D02FA800
1FD07F40001800
00000000001800
ENDCHAR
STARTCHAR uni0924094D0915094D092F
ENCODING -1
SWIDTH 1346 0
DWIDTH 27 0
BBX 28 13 -1 0
BITMAP
7FFFFFFFFFFFFF
00000020006030
00000020003030
00006E20006030
02FFD027FF8030
060180280C0030
090180240C0030
090180200C0030
09018030080030
0900D0700600B0
09006FA001FF70
06000020000030
01E00020000020
ENDCHAR
STARTCHAR uni0924094D0915094D0930
ENCODING -1
SWIDTH 995 0
DWIDTH 20 0
BBX 21 14 -1 -1
BITMAP
7FFFFFFFFFC0
000000200000
000000200000
00006E2BF400
02FFD0280900
060180240600
090180200600
090180200600
090180300600
0900D0700900
09006FB1E400
060006200000
01E018200000
000020000000
ENDCHAR
STARTCHAR uni0924094D0915094D0935
ENCODING -1
SWIDTH 1282 0
DWIDTH 26 0
BBX 27 13 -1 0
BITMAP
7FFFFFFFFFFFF8
00000020000080
00000020000080
00006E2BF6F480
02FFD0280A0080
06018024090080
09018020090080
09018020090080
09018030090180
0900D070060280
09006FA001FD80
06000020000080
01E00020000080
ENDCHAR
STARTCHAR uni0924094D0915094D0937
ENCODING -1
SWIDTH 943 0
DWIDTH 19 0
BBX 20 13 -1 0
BITMAP
7FFF0BE03F
0000242430
0000301830
0000201830
02FE582430
0601FFFFF0
0900D00030
0900C00030
0900C01430
0900801830
0900903830
06002FA830
01E0001420
ENDCHAR
STARTCHAR uni0924094D0916094D0930
ENCODING -1
SWIDTH 1008 0
DWIDTH 20 0
BBX 22 14 -1 -1
BITMAP
7FFFFFFFFFD0
000002400900
000002400900
000002468900
02FE024D0900
060183180900
0900F9180900
090090180900
0900300D1D00
09001806F900
090009009900
060007028900
02E001460900
000000080000
ENDCHAR
STARTCHAR uni0924094D0924094D092F
ENCODING -1
SWIDTH 888 0
DWIDTH 18 0
BBX 19 13 -1 0
BITMAP
7FFFFFFFFC
00000240C0
00000180C0
00000180C0
1FFF8280C0
01807E00C0
02406000C0
02006000C0
02003001C0
02002802C0
02400BF9C0
01800000C0
00B4000080
ENDCHAR
STARTCHAR uni0924094D0924094D0935
ENCODING -1
SWIDTH 788 0
DWIDTH 16 0
BBX 17 13 -1 0
BITMAP
7FFFFFFFC0
0000000C00
0000000C00
00002F4C00
1FFFE00C00
0180900C00
0240900C00
0200900C00
0200900C00
0200602C00
02401B9C00
0180000C00
00B4000800
ENDCHAR
STARTCHAR uni0924094D0928094D092F
ENCODING -1
SWIDTH 1098 0
DWIDTH 22 0
BBX 23 13 -1 0
BITMAP
7FFFFFFFFFFC
0000000180C0
00000000C0C0
00000000C0C0
02FE400180C0
0600FFFE00C0
0901803000C0
0901803000C0
0900802000C0
0900001802C0
09000006FDC0
0600000000C0
02E000000080
ENDCHAR
STARTCHAR uni0924094D092A094D0930
ENCODING -1
SWIDTH 763 0
DWIDTH 15 0
BBX 17 14 -1 -1
BITMAP
7FFFFFFF40
0000802400
0000802400
0000802400
02FF802400
0600802400
0900C02400
0900D07400
09006FE400
0900026400
0900092400
0600282400
01E0601400
0000400000
ENDCHAR
STARTCHAR uni0924094D092A094D0932
ENCODING -1
SWIDTH 1219 0
DWIDTH 24 0
BBX 26 13 -1 0
BITMAP
7FFFFFFFFFFFE0
00018000000600
00018000000600
00018000000600
02FF800BE6EA00
060180181D0A00
0900C0240C0600
0900D0740C0600
09002FB4040600
09000024000600
09000018000600
06000007D00600
01E00000000500
ENDCHAR
STARTCHAR uni0924094D092E094D092F
ENCODING -1
SWIDTH 1096 0
DWIDTH 22 0
BBX 23 13 -1 0
BITMAP
7FFFFFFFFFFC
0001800180C0
00018000C0C0
00018000C0C0
02FF800180C0
0601803E00C0
0901FFF000C0
0901803000C0
0901803000C0
0900401802C0
09000006FDC0
0600000000C0
01E000000080
ENDCHAR
STARTCHAR uni0924094D0930094D092F
ENCODING -1
SWIDTH 848 0
DWIDTH 17 0
BBX 18 13 -1 0
BITMAP
7FFFFFFFF0
0000060300
0000030300
0000030300
02FE460300
0601F90300
0900C00300
0800C00300
0001D00300
000A600B00
00241FF700
01D0000300
0600000200
ENDCHAR
STARTCHAR uni0924094D0938094D092F
ENCODING -1
SWIDTH 1234 0
DWIDTH 25 0
BBX 26 13 -1 0
BITMAP
7FFFFFFFFFFFE0
00000240090300
00000240060300
00000240060300
02FF4200090300
0600C601F80300
0900BFFF800300
09006001800300
09003400C00700
09001800900B00
090009002FE700
06000700000300
02E00240000200
ENDCHAR
STARTCHAR uni0924094D0938094D0935
ENCODING -1
SWIDTH 1155 0
DWIDTH 23 0
BBX 25 13 -1 0
BITMAP
7FFFFFFFFFFF40
00000240002400
00000240002400
000002406E2400
02FF4200D02400
0600C601802400
0900BFFF802400
09006001802400
09003401802400
09001800D07400
090009006FA400
06000700002400
02E00240002400
ENDCHAR
STARTCHAR uni0926094D0917094D0930
ENCODING -1
SWIDTH 493 0
DWIDTH 10 0
BBX 11 18 -1 -5
BITMAP
7FFFFC
0000C0
0000C0
01FFC0
070000
090000
090000
090050
090090
0600D0
01FE90
006090
005090
0092D0
0B4690
001890
007050
004000
ENDCHAR
STARTCHAR uni0926094D092C094D0930
ENCODING -1
SWIDTH 483 0
DWIDTH 10 0
BBX 11 18 -1 -5
BITMAP
7FFFF8
0000C0
0000C0
0000C0
01FFC0
060000
090000
090000
090090
0600D0
02FE90
039090
062490
060990
030380
01BF00
000900
002400
ENDCHAR
STARTCHAR uni0926094D092F094D092D
ENCODING -1
SWIDTH 607 0
DWIDTH 12 0
BBX 14 17 -1 -4
BITMAP
7FFFFFD0
00050900
00050900
01FD0900
03000900
03000900
02F80900
03000900
06000900
03001D00
01BFE900
00018900
0A860900
00B80900
00280900
00090900
00000400
ENDCHAR
STARTCHAR uni0926094D092F094D0930
ENCODING -1
SWIDTH 595 0
DWIDTH 12 0
BBX 13 14 -1 -1
BITMAP
7FFFFFC0
00090C00
00090C00
02FC0C00
06000C00
05000C00
06000C00
02F40C00
06000C00
05000C00
06001C00
02FFEC00
00024800
00090000
ENDCHAR
STARTCHAR uni0927094D0928094D092F
ENCODING -1
SWIDTH 1138 0
DWIDTH 23 0
BBX 24 13 -1 0
BITMAP
7FF1FFFFFFFF
060000009030
090000006030
060000006030
02F40000A030
02002FFF8030
050060080030
090050080030
0700A00C0070
01BF600A00B0
00000002FE70
000000000030
000000000020
ENDCHAR
STARTCHAR uni0928094D0915094D0938
ENCODING -1
SWIDTH 1384 0
DWIDTH 28 0
BBX 29 13 -1 0
BITMAP
7FFFFFFFFFFFFFC0
0000006000300C00
0000006000300C00
0000BD6BE0300C00
0002807424200C00
0BFF406018A00C00
1C0200600FFFFC00
1802006009000C00
0802406007000C00
000180A002400C00
0000BE6000C00C00
0000006000A00C00
0000006000200800
ENDCHAR
STARTCHAR uni0928094D0924094D092F
ENCODING -1
SWIDTH 1073 0
DWIDTH 21 0
BBX 23 13 -1 0
BITMAP
7FFFFFFFFFF8
000000020180
000000024180
000000024180
000000034180
0BFFFFFD0180
0C0280500180
180300500180
0C0300600180
000300340780
0002000BF980
000280000180
0000B4000180
ENDCHAR
STARTCHAR uni0928094D0924094D0930
ENCODING -1
SWIDTH 732 0
DWIDTH 15 0
BBX 16 13 -1 0
BITMAP
7FFFFFFE
00000020
00000020
00000020
0000BE60
0BFF80A0
1C030060
18030020
080000A0
000002A0
00001D20
00006020
00018020
ENDCHAR
STARTCHAR uni0928094D0924094D0938
ENCODING -1
SWIDTH 1134 0
DWIDTH 23 0
BBX 24 13 -1 0
BITMAP
7FFFFFFFFFFE
00000000C030
00000000C030
00000000C030
0001BF808030
0BFF80628030
1C03007FFFF0
180300240030
0803001C0030
000300090030
000200030030
000280028030
0000B400C020
ENDCHAR
STARTCHAR uni0928094D0925094D092F
ENCODING -1
SWIDTH 1168 0
DWIDTH 23 0
BBX 25 13 -1 0
BITMAP
7FF07E0FFFFF80
00008240201800
00018140241800
00014140241800
00000240301800
07FFFD0B901800
0C030009001800
08030009001800
0C024006002800
0001800B407800
00006FE5BFA800
00000000001800
00000000001400
ENDCHAR
STARTCHAR uni0928094D0925094D0935
ENCODING -1
SWIDTH 1089 0
DWIDTH 22 0
BBX 23 13 -1 0
BITMAP
7FF07E0FFFFC
0001824000C0
0001814000C0
00014141F4C0
0000024600C0
07FFFD0900C0
0C03000900C0
0803000900C0
0C02400900C0
0001801E02C0
00006FE6FDC0
0000000000C0
000000000080
ENDCHAR
STARTCHAR uni0928094D0926094D0930
ENCODING -1
SWIDTH 734 0
DWIDTH 15 0
BBX 16 14 -1 -1
BITMAP
7FFFFFFE
00000030
00000030
00007FE0
00018000
0BFF4000
0C024000
18024000
08024020
00018034
00007FE4
00000724
00001C20
00001000
ENDCHAR
STARTCHAR uni0928094D0926094D0935
ENCODING -1
SWIDTH 732 0
DWIDTH 15 0
BBX 16 16 -1 -3
BITMAP
7FFFFFFE
00000030
00000030
00007FE0
00018000
0BFF4000
1C024000
18024010
08024020
00018070
0000BFB0
00018020
00024020
00024030
00018060
00007F80
ENDCHAR
STARTCHAR uni0928094D0927094D092F
ENCODING -1
SWIDTH 1097 0
DWIDTH 22 0
BBX 23 13 -1 0
BITMAP
7FFFF0FFFFFC
0002400180C0
00030000C0C0
00030000C0C0
0002400180C0
07FFFC3E00C0
0C02403000C0
0C03003000C0
0803003000C0
0002402802C0
0001BF96FDC0
0000000000C0
000000000080
ENDCHAR
STARTCHAR uni0928094D0927094D0930
ENCODING -1
SWIDTH 783 0
DWIDTH 16 0
BBX 17 14 -1 -1
BITMAP
7FFFF0FF80
0002400800
0003000800
0003000800
0002400800
07FFFC0800
0C02400800
0C03000800
0803001800
0002402800
0000BFE800
0000034800
00000D0800
0000240000
ENDCHAR
STARTCHAR uni0928094D0927094D0935
ENCODING -1
SWIDTH 1036 0
DWIDTH 21 0
BBX 22 13 -1 0
BITMAP
7FFFF0FFFFF0
000240000300
000300000300
00030007D300
000240180300
07FFFC240300
0C0240240300
0C0300240300
080300240300
000240280B00
0001BF96E700
000000000300
000000000200
ENDCHAR
STARTCHAR uni0928094D0928094D092F
ENCODING -1
SWIDTH 1071 0
DWIDTH 21 0
BBX 23 13 -1 0
BITMAP
7FFFFFFFFFF8
000000020180
000000024180
000000024180
000000034180
0BFFFFFD0180
1C0240900180
180300500180
080140600280
000000340780
0000001BF980
000000000180
000000000140
ENDCHAR
STARTCHAR uni0928094D092A094D0930
ENCODING -1
SWIDTH 737 0
DWIDTH 15 0
BBX 16 14 -1 -1
BITMAP
7FFFFFFF
00024030
00024030
00024030
00024030
0BFF4030
1C024030
180180B0
0800BFB0
00000630
00001830
00003030
0000D020
00004000
ENDCHAR
STARTCHAR uni0928094D092B094D0930
ENCODING -1
SWIDTH 975 0
DWIDTH 20 0
BBX 21 14 -1 -1
BITMAP
7FFFFFFFFF80
000240600000
000240600000
0002406BE400
000240741C00
0BFF40600900
1C0240600900
180180A00900
0800BFA00900
00000A601C00
00001862E400
000070600000
0001C0600000
000140000000
ENDCHAR
STARTCHAR uni0928094D092D094D092F
ENCODING -1
SWIDTH 1071 0
DWIDTH 21 0
BBX 23 13 -1 0
BITMAP
7FFD03FFFFF8
000340020180
000240024180
000240024180
000240034180
0BFF407D0180
0C02FFD00180
180240500180
0C0240600280
000100340780
0000000BF980
000000000180
000000000140
ENDCHAR
STARTCHAR uni0928094D092D094D0935
ENCODING -1
SWIDTH 995 0
DWIDTH 20 0
BBX 21 13 -1 0
BITMAP
7FFD03FFFFC0
000340000C00
000240000C00
0002401B8C00
000240300C00
0BFF40600C00
1C02FFD00C00
180240900C00
080240600C00
000000701C00
0000001BEC00
000000000C00
000000000800
ENDCHAR
STARTCHAR uni0928094D092E094D092F
ENCODING -1
SWIDTH 1071 0
DWIDTH 21 0
BBX 23 13 -1 0
BITMAP
7FFFFFFFFFF8
000240020180
000240024180
000240024180
000240034180
0BFF407D0180
0C02FFD00180
180240500180
0C0240600280
000100340780
0000000BF980
000000000180
000000000140
ENDCHAR
STARTCHAR uni0928094D0938094D091F
ENCODING -1
SWIDTH 1113 0
DWIDTH 22 0
BBX 24 13 -1 0
BITMAP
7FFFFFFFFFFD
000009000080
000009000080
000009000080
00000800BFC0
07FE18034000
0C03FFFF0000
0C0180030000
040090030024
000060030024
000024024070
00001C00BF80
000009000000
ENDCHAR
STARTCHAR uni0928094D0938094D092E094D092F
ENCODING -1
SWIDTH 1453 0
DWIDTH 29 0
BBX 31 13 -1 0
BITMAP
7FFFFFFFFFFFFFF4
00000C0300060240
00000C0300030240
00000C0300030240
00000C0300060240
0BFD180300B90240
0C03FFFFFFC00240
0802800300C00240
0800C00300900340
0000600200600B40
00003400001BFA40
0000180000000240
0000090000000200
ENDCHAR
STARTCHAR uni0928094D0938094D092F
ENCODING -1
SWIDTH 1194 0
DWIDTH 24 0
BBX 25 13 -1 0
BITMAP
7FFFFFFFFFFFC0
00000C00240C00
00000C00180C00
00000C00180C00
00000C00240C00
0BFD1807E00C00
1C03FFFE000C00
18028006000C00
0800C003001C00
00006002802C00
00003400BF9C00
00001800000C00
00000900000800
ENDCHAR
STARTCHAR uni092A094D0924094D092F
ENCODING -1
SWIDTH 1119 0
DWIDTH 22 0
BBX 24 13 -1 0
BITMAP
7FFFFFFFFFFE
060000008060
060000009060
060000009060
06000000D060
06002FFF4060
0600A0240060
0341C0240060
01BEC01800A0
0000C00D01E0
0000C006FE60
0000A0000060
00002D000050
ENDCHAR
STARTCHAR uni092C094D091C094D092F
ENCODING -1
SWIDTH 1235 0
DWIDTH 25 0
BBX 26 13 -1 0
BITMAP
7FFFFFFFFFFFE0
00000000090300
00000000060300
01F40000060300
07402FFF490300
0A400181F80300
09900091800300
09200091800300
09180090C00700
09060090900B00
060241C02FE700
01BFFE40000300
00000000000200
ENDCHAR
STARTCHAR uni092C094D0927094D0935
ENCODING -1
SWIDTH 1097 0
DWIDTH 22 0
BBX 23 13 -1 0
BITMAP
7FFFFD0FFFFC
0000900000C0
0000900000C0
01F49001B8C0
0700A00340C0
09803F4600C0
0920A00600C0
0918900600C0
0906D00600C0
0602E00741C0
01FE2FF9BEC0
0000000000C0
000000000080
ENDCHAR
STARTCHAR uni092C094D092D094D0930
ENCODING -1
SWIDTH 764 0
DWIDTH 15 0
BBX 17 13 -1 0
BITMAP
7FFE41FF40
0001802400
0000C02400
01F4C02400
0700C02400
0A80C02400
0960FFF400
0918C02400
0906C0A400
0602826400
01FE0A2400
0000282400
0000601400
ENDCHAR
STARTCHAR uni092C094D0932094D092F
ENCODING -1
SWIDTH 480 0
DWIDTH 10 0
BBX 28 13 -1 0
BITMAP
7FFFFFFFFFFFFE
00000000008060
00000000009060
01B42F9B909060
0740A0B470C060
099080602F4060
0920C060240060
0908C060240060
0906C0001800A0
0602C0000D01E0
01FE600006FEA0
00002F00000060
00000000000050
ENDCHAR
STARTCHAR uni092D094D0930094D092F
ENCODING -1
SWIDTH 830 0
DWIDTH 17 0
BBX 18 13 -1 0
BITMAP
780BFFFFE0
0900090600
0600060600
0600060600
0600090600
0601F80600
07FF800600
0601800600
0607800600
0118901E00
00202FE600
0090000600
0240000200
ENDCHAR
STARTCHAR uni092E094D092A094D0930
ENCODING -1
SWIDTH 765 0
DWIDTH 15 0
BBX 17 14 -1 -1
BITMAP
7FFFFFFF40
0600802400
0600802400
0600802400
0600802400
0600802400
07FFC02400
0600D07400
06006FE400
0000026400
0000092400
0000282400
0000601400
0000400000
ENDCHAR
STARTCHAR uni092E094D092C094D092F
ENCODING -1
SWIDTH 1124 0
DWIDTH 22 0
BBX 24 13 -1 0
BITMAP
7FFFFFFFFFFE
060000009060
060000005060
06006E009060
0600E0009060
0601A41F4060
07FF89180060
060182580060
060180A80060
0500D07D01E0
00006F96FE60
000000000060
000000000060
ENDCHAR
STARTCHAR uni092E094D092C094D0930
ENCODING -1
SWIDTH 768 0
DWIDTH 15 0
BBX 17 14 -1 -1
BITMAP
7FFFFFFF80
0600001800
0600001800
06002F1800
0600E01800
0600E41800
07FF891800
0601825800
060080A800
0000D07800
00006FE800
0000025800
0000091400
0000240000
ENDCHAR
STARTCHAR uni092E094D092D094D092F
ENCODING -1
SWIDTH 1101 0
DWIDTH 22 0
BBX 24 13 -1 0
BITMAP
7FFE41FFFFFD
060180018090
0600C000C090
0600C000C090
0600C0018090
0600C03E0090
07FFFFF00090
0600C0300090
0600C02400D0
0500401802D0
00000006FE90
000000000090
000000000080
ENDCHAR
STARTCHAR uni092E094D092D094D0930
ENCODING -1
SWIDTH 759 0
DWIDTH 15 0
BBX 17 13 -1 0
BITMAP
7FFE02FF40
0601802400
0600C02400
0600C02400
0600C02400
0600C02400
07FFFFF400
0600C03400
0600C0A400
0000426400
0000092400
0000242400
0000602400
ENDCHAR
STARTCHAR uni092E094D092D094D0935
ENCODING -1
SWIDTH 1028 0
DWIDTH 21 0
BBX 22 13 -1 0
BITMAP
7FFE41FFFFE0
060180000600
0600C0000600
0600C00BD600
0600C0180600
0600C0240600
07FFFFF00600
0600C0300600
0600C0240600
000040280A00
0000000BE600
000000000600
000000000200
ENDCHAR
STARTCHAR uni0932094D0915094D092F
ENCODING -1
SWIDTH 1534 0
DWIDTH 31 0
BBX 32 13 -1 0
BITMAP
7FFFFFFFFFFFFFFE
0000000030009030
0000000030006030
000000BD3000A030
01F9BF803BFF8030
0607424034180030
0903024030180030
0903024030180030
09020240300C0070
09000180B00A00B0
0600006E7002FE70
01B4000030000030
0000000020000020
ENDCHAR
STARTCHAR uni0932094D0925094D092F
ENCODING -1
SWIDTH 1397 0
DWIDTH 28 0
BBX 29 13 -1 0
BITMAP
7FFFF42E47FFFFC0
0000009180180C00
000000C0C00C0C00
00000080C00C0C00
01F8BD00C0180C00
0607430283E00C00
090302FE03000C00
0903014003000C00
0902018003000C00
090000D007802C00
0600006FF87FDC00
01B4000000000C00
0000000000000800
ENDCHAR
STARTCHAR uni0932094D0926094D0930
ENCODING -1
SWIDTH 933 0
DWIDTH 19 0
BBX 20 14 -1 -1
BITMAP
7FFFFFFFFE
0000000030
0000000030
0000007FE0
01F8BE8000
0607424000
0903024000
0903024000
0902024020
0900018034
060000BFE4
01B4000724
0000001C20
0000001000
ENDCHAR
STARTCHAR uni0932094D0932094D092F
ENCODING -1
SWIDTH 1476 0
DWIDTH 30 0
BBX 31 13 -1 0
BITMAP
7FFFFFFFFFFFFFF8
0000000000024180
0000000000018180
01F8B9BE2F418180
06078282D0924180
05030240C07E0180
09030240C0600180
09030240C0600180
0900024000600180
0500024000340780
07000180000BF980
01B4007D00000180
0000000000000180
ENDCHAR
STARTCHAR uni0932094D0935094D0921
ENCODING -1
SWIDTH 1247 0
DWIDTH 25 0
BBX 26 13 -1 0
BITMAP
7FFFFFFFFFFFF0
00000000000300
00000000000300
000000BD06FF00
01F8BF800D0000
060742400C0000
090302400D0000
0903024006FE00
09010240300280
09000180700180
0600007FB00180
01B40000240280
000000001BFE00
ENDCHAR
STARTCHAR uni0937094D0915094D0930
ENCODING -1
SWIDTH 1042 0
DWIDTH 21 0
BBX 22 14 -1 -1
BITMAP
7FFFFFFFFFF0
0700000C0000
0680000C0000
06601B8DF900
0618340E0240
0606600C0180
0601E00C0180
0341E00C0180
01BE600C0180
0000341C0240
00001BEC7900
0000018C0000
0000060C0000
000018000000
ENDCHAR
STARTCHAR uni0937094D091F094D092F
ENCODING -1
SWIDTH 997 0
DWIDTH 20 0
BBX 21 13 -1 0
BITMAP
7FFFFFFFFFC0
074090000C00
069090000C00
0628BFF80C00
060690090C00
0301D0060C00
02FFC0090C00
060001F80C00
090001800C00
090020D02C00
0900206FDC00
060090000C00
01BF80000800
ENDCHAR
STARTCHAR uni0937094D091F094D0930
ENCODING -1
SWIDTH 493 0
DWIDTH 10 0
BBX 11 16 -1 -3
BITMAP
7FFFFC
074090
069090
062890
060690
0301D0
02FFC0
060000
090000
090020
090060
060090
01FF80
006A00
01C240
0240C0
ENDCHAR
STARTCHAR uni0937094D091F094D0935
ENCODING -1
SWIDTH 493 0
DWIDTH 10 0
BBX 11 17 -1 -4
BITMAP
7FFFFC
074090
069090
062490
060990
0302D0
02FFC0
060000
090010
090020
060090
02FFC0
060080
050080
0600C0
070180
01BE00
ENDCHAR
STARTCHAR uni0937094D0920094D092F
ENCODING -1
SWIDTH 1006 0
DWIDTH 20 0
BBX 21 13 0 0
BITMAP
FFFFFFFFFF40
1BFF80002400
1FFF80002400
1FFFFFE02400
1FFF80282400
0FFE40182400
0BFF00282400
180283E02400
240083002400
2400C2407400
140080BFA400
1C0280002400
06FE00002400
ENDCHAR
STARTCHAR uni0937094D0920094D0930
ENCODING -1
SWIDTH 512 0
DWIDTH 10 0
BBX 12 17 -1 -4
BITMAP
7FFFFD
06FFE0
07FFE0
07FFE0
07FFE0
03FF90
02EAC0
060060
090060
090020
090060
060090
01FF80
006A00
00C340
0241C0
010040
ENDCHAR
ENDFONT
